<?xml version="1.0" encoding="UTF-8"?>
<svg xmlns="http://www.w3.org/2000/svg" xmlns:xlink="http://www.w3.org/1999/xlink" width="512" height="512" viewBox="0 0 60 60" version="1.1"><!-- Generator: Sketch 51.3 (57544) - http://www.bohemiancoding.com/sketch --><title>013 - Meditation</title><desc>Created with Sketch.</desc><defs/><g id="Page-1" stroke="none" stroke-width="1" fill="none" fill-rule="evenodd"><g id="013---Meditation" fill-rule="nonzero"><path d="M48,35 L48,37 L40,37 L40,41 L34,41 C32.9387272,40.9986709 31.9205391,41.4196715 31.1701053,42.1701053 C30.4196715,42.9205391 29.9986709,43.9387272 30,45 C30,42.790861 28.209139,41 26,41 L20,41 L20,37 L12,37 L12,35 C12,30.581722 15.581722,27 20,27 L40,27 C44.418278,27 48,30.581722 48,35 Z" id="Shape" fill="#9D27B0"/><path d="M48,35 L48,37 L45,37 L45,35 C45,30.581722 41.418278,27 37,27 L40,27 C44.418278,27 48,30.581722 48,35 Z" id="Shape" fill="#6A1B9A"/><polygon id="Shape" fill="#955BA5" points="48 45 48 51 44 51 16 51 12 51 12 45"/><path d="M42,12 L42.0000016,27.25 L17.9999989,27.25 L18,12 C17.9974566,6.14454322 22.5824092,1.3134186 28.43,1.01 L28.57,1.01 C28.71,1 28.86,1 29,1 L31,1 C33.9178694,0.998407131 36.716688,2.15682085 38.7799336,4.22006641 C40.8431791,6.28331196 42.0015929,9.08213059 42,12 Z" id="Shape" fill="#783E22"/><path d="M39,12 L39.0000011,27.25 L17.9999989,27.25 L18,12 C17.9974566,6.14454322 22.5824092,1.3134186 28.43,1.01 L28.57,1.01 C34.4175908,1.3134186 39.0025434,6.14454322 39,12 Z" id="Shape" fill="#A0522D"/><path d="M34,21.74 L34,27 C34,28.6568542 32.6568542,30 31,30 L29,30 C27.3431458,30 26,28.6568542 26,27 L26,21.74 L34,21.74 Z" id="Shape" fill="#FFE0B2"/><path d="M37,14 L37,16 C37,19.8659932 33.8659932,23 30,23 C29.4958296,22.9983669 28.9931713,22.94475 28.5,22.84 C25.287431,22.1352213 22.9987771,19.2889681 23,16 L23,13.95 C25.3749714,13.680292 27.6302908,12.7636361 29.52,11.3 C30.4316208,10.6303546 31.2636906,9.8586769 32,9 C32,9 32,14 37,14 Z" id="Shape" fill="#DFC49C"/><path d="M34,14 L34,16 C34.0012229,19.2889681 31.712569,22.1352213 28.5,22.84 C25.287431,22.1352213 22.9987771,19.2889681 23,16 L23,13.95 C25.3749714,13.680292 27.6302908,12.7636361 29.52,11.3 C30.288014,13.0604221 32.0846896,14.14324 34,14 Z" id="Shape" fill="#FFE0B2"/><path d="M24,49 L24,59 L6,59 C3.23857625,59 1,56.7614237 1,54 C1,51.2385763 3.23857625,49 6,49 L24,49 Z" id="Shape" fill="#3F51B5"/><path d="M59,54 C59.0039999,55.3273046 58.4785003,56.6013996 57.5399499,57.5399499 C56.6013996,58.4785003 55.3273046,59.0039999 54,59 L36,59.0000227 L36,49 L54,49 C56.7614237,49 59,51.2385763 59,54 Z" id="Shape" fill="#283593"/><path d="M56,54 C56.0039999,55.3273046 55.4785003,56.6013996 54.5399499,57.5399499 C53.6013996,58.4785003 52.3273046,59.0039999 51,59 L36,59.0000227 L36,49 L51,49 C53.7614237,49 56,51.2385763 56,54 Z" id="Shape" fill="#3F51B5"/><path d="M36,49 L36,59 L32,59 C30.8967981,58.9967052 30.0032948,58.1032019 30,57 L30,51 C30.0032948,49.8967981 30.8967981,49.0032948 32,49 L36,49 Z" id="Shape" fill="#7F8E94"/><path d="M30,51 L30,57 C29.9967052,58.1032019 29.1032019,58.9967052 28,59 L24,59 L24,49 L28,49 C29.1032019,49.0032948 29.9967052,49.8967981 30,51 Z" id="Shape" fill="#7F8E94"/><path d="M30,45 C30.0013291,46.0612728 29.5803285,47.0794609 28.8298947,47.8298947 C28.0794609,48.5803285 27.0612728,49.0013291 26,49 L16,49 C13.790861,49 12,47.209139 12,45 L12,37 L20,37 L20,41 L26,41 C27.8238506,40.9985297 29.416779,42.233358 29.87,44 C29.9593041,44.3257307 30.0030533,44.6622628 30,45 Z" id="Shape" fill="#FFE0B2"/><path d="M48,37 L48,45 C48,47.209139 46.209139,49 44,49 L34,49 C31.790861,49 30,47.209139 30,45 C29.9969467,44.6622628 30.0406959,44.3257307 30.13,44 C30.3105544,43.3095019 30.669167,42.6784818 31.17,42.17 C31.9223311,41.4223608 32.9393573,41.0018942 34,41 L40,41 L40,37 L48,37 Z" id="Shape" fill="#DFC49C"/><path d="M45,37 L45,45 C45,47.209139 43.209139,49 41,49 L34,49 C31.790861,49 30,47.209139 30,45 C29.9969467,44.6622628 30.0406959,44.3257307 30.13,44 C30.3105544,43.3095019 30.669167,42.6784818 31.17,42.17 C31.9223311,41.4223608 32.9393573,41.0018942 34,41 L40,41 L40,37 L45,37 Z" id="Shape" fill="#FFE0B2"/><path d="M30,24 C25.5837781,23.9950401 22.0049599,20.4162219 22,16 L22,13.95 C22.0004397,13.4333019 22.3944455,13.0020194 22.909,12.955 C27.841,12.501 31.187,8.415 31.22,8.374 C31.485627,8.04291044 31.9313343,7.91559177 32.3317665,8.05641794 C32.7321987,8.19724411 33.0000936,8.57552623 33,9 C32.9572975,10.073388 33.3649955,11.1158038 34.1245958,11.8754042 C34.8841962,12.6350045 35.926612,13.0427025 37,13 C37.5522847,13 38,13.4477153 38,14 L38,16 C37.9950401,20.4162219 34.4162219,23.9950401 30,24 Z M24,14.828 L24,16 C24,19.3137085 26.6862915,22 30,22 C33.3137085,22 36,19.3137085 36,16 L36,14.938 C33.8188832,14.7075875 31.9888245,13.1912758 31.357,11.091 C29.3026308,13.0004981 26.7536851,14.2952391 24,14.828 Z" id="Shape" fill="#000000"/><path d="M42,28.25 C41.4477153,28.25 41,27.8022847 41,27.25 L41,12 C40.9939376,6.47966557 36.5203344,2.00606237 31,2 L29,2 C23.4796656,2.00606237 19.0060624,6.47966557 19,12 L19,27.25 C19,27.8022847 18.5522847,28.25 18,28.25 C17.4477153,28.25 17,27.8022847 17,27.25 L17,12 C17.0071648,5.37555305 22.375553,0.00716484761 29,0 L31,0 C37.624447,0.00716484761 42.9928352,5.37555305 43,12 L43,27.25 C43,27.8022847 42.5522847,28.25 42,28.25 Z" id="Shape" fill="#000000"/><path d="M48,50 L12,50 C11.4477153,50 11,49.5522847 11,49 L11,35 C11.006061,30.0319499 15.0319499,26.006061 20,26 L26,26 C26.5522847,26 27,26.4477153 27,27 C27,27.5522847 26.5522847,28 26,28 L20,28 C16.1358343,28.0044086 13.0044086,31.1358343 13,35 L13,48 L47,48 L47,35 C46.9955914,31.1358343 43.8641657,28.0044086 40,28 L34,28 C33.4477153,28 33,27.5522847 33,27 C33,26.4477153 33.4477153,26 34,26 L40,26 C44.9680501,26.006061 48.993939,30.0319499 49,35 L49,49 C49,49.5522847 48.5522847,50 48,50 Z" id="Shape" fill="#000000"/><path d="M28,60 L6,60 C2.6862915,60 4.05812251e-16,57.3137085 0,54 C-4.05812251e-16,50.6862915 2.6862915,48 6,48 L28,48 C29.6568542,48 31,49.3431458 31,51 L31,57 C31,58.6568542 29.6568542,60 28,60 Z M6,50 C3.790861,50 2,51.790861 2,54 C2,56.209139 3.790861,58 6,58 L28,58 C28.5522847,58 29,57.5522847 29,57 L29,51 C29,50.4477153 28.5522847,50 28,50 L6,50 Z" id="Shape" fill="#000000"/><path d="M54,60 L32,60 C30.3431458,60 29,58.6568542 29,57 L29,51 C29,49.3431458 30.3431458,48 32,48 L54,48 C57.3137085,48 60,50.6862915 60,54 C60,57.3137085 57.3137085,60 54,60 Z M32,50 C31.4477153,50 31,50.4477153 31,51 L31,57 C31,57.5522847 31.4477153,58 32,58 L54,58 C56.209139,58 58,56.209139 58,54 C58,51.790861 56.209139,50 54,50 L32,50 Z" id="Shape" fill="#000000"/><path d="M31,31 L29,31 C26.790861,31 25,29.209139 25,27 L25,21.74 C25,21.1877153 25.4477153,20.74 26,20.74 C26.5522847,20.74 27,21.1877153 27,21.74 L27,27 C27,28.1045695 27.8954305,29 29,29 L31,29 C32.1045695,29 33,28.1045695 33,27 L33,21.74 C33,21.1877153 33.4477153,20.74 34,20.74 C34.5522847,20.74 35,21.1877153 35,21.74 L35,27 C35,29.209139 33.209139,31 31,31 Z" id="Shape" fill="#000000"/><path d="M26,50 L16,50 C13.2399468,49.9966939 11.0033061,47.7600532 11,45 L11,41 C11,40.4477153 11.4477153,40 12,40 C12.5522847,40 13,40.4477153 13,41 L13,45 C13,46.6568542 14.3431458,48 16,48 L26,48 C27.6568542,48 29,46.6568542 29,45 C29,43.3431458 27.6568542,42 26,42 L18,42 C17.4477153,42 17,41.5522847 17,41 C17,40.4477153 17.4477153,40 18,40 L26,40 C28.7614237,40 31,42.2385763 31,45 C31,47.7614237 28.7614237,50 26,50 Z" id="Shape" fill="#000000"/><path d="M44,50 L34,50 C31.2385763,50 29,47.7614237 29,45 C29,42.2385763 31.2385763,40 34,40 L42,40 C42.5522847,40 43,40.4477153 43,41 C43,41.5522847 42.5522847,42 42,42 L34,42 C32.3431458,42 31,43.3431458 31,45 C31,46.6568542 32.3431458,48 34,48 L44,48 C45.6568542,48 47,46.6568542 47,45 L47,41 C47,40.4477153 47.4477153,40 48,40 C48.5522847,40 49,40.4477153 49,41 L49,45 C48.9966939,47.7600532 46.7600532,49.9966939 44,50 Z" id="Shape" fill="#000000"/><path d="M20,42 C19.4477153,42 19,41.5522847 19,41 L19,35 C19,34.4477153 19.4477153,34 20,34 C20.5522847,34 21,34.4477153 21,35 L21,41 C21,41.5522847 20.5522847,42 20,42 Z" id="Shape" fill="#000000"/><path d="M40,42 C39.4477153,42 39,41.5522847 39,41 L39,35 C39,34.4477153 39.4477153,34 40,34 C40.5522847,34 41,34.4477153 41,35 L41,41 C41,41.5522847 40.5522847,42 40,42 Z" id="Shape" fill="#000000"/><path d="M37,15 C34.4409749,15.1601412 32.1065294,13.5430319 31.357,11.091 C29.0821725,13.2229918 26.1863943,14.5734908 23.091,14.946 C22.73,14.979 22.371,15 22,15 C21.4477153,15 21,14.5522847 21,14 C21,13.4477153 21.4477153,13 22,13 C22.309,13 22.61,12.981 22.91,12.954 C27.841,12.501 31.187,8.415 31.22,8.374 C31.485627,8.04291044 31.9313343,7.91559177 32.3317665,8.05641794 C32.7321987,8.19724411 33.0000936,8.57552623 33,9 C32.9572975,10.073388 33.3649955,11.1158038 34.1245958,11.8754042 C34.8841962,12.6350045 35.926612,13.0427025 37,13 C37.5522847,13 38,13.4477153 38,14 C38,14.5522847 37.5522847,15 37,15 Z" id="Shape" fill="#000000"/><path d="M24,60 C23.4477153,60 23,59.5522847 23,59 L23,49 C23,48.4477153 23.4477153,48 24,48 C24.5522847,48 25,48.4477153 25,49 L25,59 C25,59.5522847 24.5522847,60 24,60 Z" id="Shape" fill="#000000"/><path d="M36,60 C35.4477153,60 35,59.5522847 35,59 L35,49 C35,48.4477153 35.4477153,48 36,48 C36.5522847,48 37,48.4477153 37,49 L37,59 C37,59.5522847 36.5522847,60 36,60 Z" id="Shape" fill="#000000"/><path d="M20,38 L12,38 C11.4477153,38 11,37.5522847 11,37 C11,36.4477153 11.4477153,36 12,36 L20,36 C20.5522847,36 21,36.4477153 21,37 C21,37.5522847 20.5522847,38 20,38 Z" id="Shape" fill="#000000"/><path d="M48,38 L40,38 C39.4477153,38 39,37.5522847 39,37 C39,36.4477153 39.4477153,36 40,36 L48,36 C48.5522847,36 49,36.4477153 49,37 C49,37.5522847 48.5522847,38 48,38 Z" id="Shape" fill="#000000"/><path d="M11,8 C10.824461,7.99999228 10.6520167,7.95377721 10.5,7.866 L6.17,5.366 C5.69144528,5.08985762 5.52735765,4.47805474 5.80350002,3.99950001 C6.07964239,3.52094528 6.69144527,3.35685764 7.17,3.633 L11.5,6.133 C11.892998,6.35887406 12.0849154,6.82084023 11.967654,7.25869442 C11.8503925,7.69654861 11.4532835,8.00076803 11,8 Z" id="Shape" fill="#000000"/><path d="M8,18 L3,18 C2.44771525,18 2,17.5522847 2,17 C2,16.4477153 2.44771525,16 3,16 L8,16 C8.55228475,16 9,16.4477153 9,17 C9,17.5522847 8.55228475,18 8,18 Z" id="Shape" fill="#000000"/><path d="M6.671,30.5 C6.21771648,30.500768 5.82060748,30.1965486 5.70334604,29.7586944 C5.58608461,29.3208402 5.77800198,28.8588741 6.171,28.633 L10.501,26.133 C10.9795547,25.8568576 11.5913576,26.0209453 11.8675,26.4995 C12.1436424,26.9780547 11.9795547,27.5898576 11.501,27.866 L7.171,30.366 C7.01898325,30.4537772 6.84653897,30.4999923 6.671,30.5 Z" id="Shape" fill="#000000"/><path d="M53.329,30.5 C53.153461,30.4999923 52.9810167,30.4537772 52.829,30.366 L48.499,27.866 C48.0204453,27.5898576 47.8563577,26.9780547 48.1325,26.4995 C48.4086424,26.0209453 49.0204453,25.8568576 49.499,26.133 L53.829,28.633 C54.221998,28.8588741 54.4139154,29.3208402 54.296654,29.7586944 C54.1793925,30.1965486 53.7822835,30.500768 53.329,30.5 Z" id="Shape" fill="#000000"/><path d="M57,18 L52,18 C51.4477153,18 51,17.5522847 51,17 C51,16.4477153 51.4477153,16 52,16 L57,16 C57.5522847,16 58,16.4477153 58,17 C58,17.5522847 57.5522847,18 57,18 Z" id="Shape" fill="#000000"/><path d="M49,8 C48.5467165,8.00076803 48.1496075,7.69654861 48.032346,7.25869442 C47.9150846,6.82084023 48.107002,6.35887406 48.5,6.133 L52.83,3.633 C53.3085547,3.35685765 53.9203576,3.52094529 54.1965,3.99950002 C54.4726423,4.47805474 54.3085547,5.08985762 53.83,5.366 L49.5,7.866 C49.3479833,7.95377721 49.175539,7.99999228 49,8 Z" id="Shape" fill="#000000"/><path d="M8,18 L3,18 C2.44771525,18 2,17.5522847 2,17 C2,16.4477153 2.44771525,16 3,16 L8,16 C8.55228475,16 9,16.4477153 9,17 C9,17.5522847 8.55228475,18 8,18 Z" id="Shape" fill="#000000"/><path d="M57,18 L52,18 C51.4477153,18 51,17.5522847 51,17 C51,16.4477153 51.4477153,16 52,16 L57,16 C57.5522847,16 58,16.4477153 58,17 C58,17.5522847 57.5522847,18 57,18 Z" id="Shape" fill="#000000"/><path d="M30,39 C29.4477153,39 29,38.5522847 29,38 L29,35 C29,34.4477153 29.4477153,34 30,34 C30.5522847,34 31,34.4477153 31,35 L31,38 C31,38.5522847 30.5522847,39 30,39 Z" id="Shape" fill="#000000"/></g></g></svg>
