<svg height="512pt" viewBox="0 0 512 512" width="512pt" xmlns="http://www.w3.org/2000/svg"><path d="m512 256c0 141.386719-114.613281 256-256 256s-256-114.613281-256-256 114.613281-256 256-256 256 114.613281 256 256zm0 0" fill="#ffc107"/><path d="m256 512c-141.164062 0-256-114.835938-256-256s114.835938-256 256-256 256 114.835938 256 256-114.835938 256-256 256zm0-490.667969c-129.386719 0-234.667969 105.28125-234.667969 234.667969s105.28125 234.667969 234.667969 234.667969 234.667969-105.28125 234.667969-234.667969-105.28125-234.667969-234.667969-234.667969zm0 0"/><path d="m341.332031 341.332031c-5.886719 0-10.664062-4.777343-10.664062-10.664062 0-5.890625 4.777343-10.667969 10.664062-10.667969 35.285157 0 64-28.714844 64-64s-28.714843-64-64-64h-117.332031c-5.886719 0-10.667969-4.777344-10.667969-10.667969 0-5.886719 4.78125-10.664062 10.667969-10.664062h117.332031c47.0625 0 85.335938 38.269531 85.335938 85.332031s-38.273438 85.332031-85.335938 85.332031zm0 0"/><path d="m288 341.332031h-117.332031c-47.0625 0-85.335938-38.269531-85.335938-85.332031s38.273438-85.332031 85.335938-85.332031c5.886719 0 10.664062 4.777343 10.664062 10.664062 0 5.890625-4.777343 10.667969-10.664062 10.667969-35.285157 0-64 28.714844-64 64s28.714843 64 64 64h117.332031c5.886719 0 10.667969 4.777344 10.667969 10.667969 0 5.886719-4.78125 10.664062-10.667969 10.664062zm0 0"/><path d="m266.667969 234.667969c-2.730469 0-5.460938-1.046875-7.554688-3.117188l-42.664062-42.664062c-4.160157-4.160157-4.160157-10.925781 0-15.085938l42.664062-42.664062c4.160157-4.160157 10.925781-4.160157 15.085938 0 4.15625 4.160156 4.15625 10.921875 0 15.082031l-35.117188 35.113281 35.117188 35.117188c4.15625 4.160156 4.15625 10.921875 0 15.082031-2.070313 2.089844-4.800781 3.136719-7.53125 3.136719zm0 0"/><path d="m245.332031 384c-2.730469 0-5.460937-1.046875-7.550781-3.113281-4.160156-4.160157-4.160156-10.925781 0-15.085938l35.113281-35.113281-35.113281-35.113281c-4.160156-4.160157-4.160156-10.921875 0-15.082031 4.160156-4.160157 10.921875-4.160157 15.082031 0l42.667969 42.664062c4.160156 4.160156 4.160156 10.921875 0 15.082031l-42.667969 42.667969c-2.070312 2.046875-4.800781 3.09375-7.53125 3.09375zm0 0"/></svg>