<?xml version="1.0" encoding="utf-8"?>
<!-- Generator: Adobe Illustrator 23.0.3, SVG Export Plug-In . SVG Version: 6.00 Build 0)  -->
<svg version="1.1" id="Layer_1" xmlns="http://www.w3.org/2000/svg" xmlns:xlink="http://www.w3.org/1999/xlink" x="0px" y="0px"
	 viewBox="0 0 485 485" style="enable-background:new 0 0 485 485;" xml:space="preserve">
<style type="text/css">
	.st0{fill:#3C92CA;}
</style>
<g>
	<g>
		<path id="XMLID_1929_" class="st0" d="M375.6,25l96.4,0c2.1,0,3.9,1.8,3.9,3.9l0,248.4c0,2.1-1.8,3.9-3.9,3.9l-96.4,0
			c-2.1,0-3.9-1.8-3.9-3.9l0-248.4C371.7,26.8,373.4,25,375.6,25z"/>
		<path d="M200.4,464.6c28.2,20.7,67.2,8.8,68.8,8.3c3.8-1.2,6.3-4.7,6.3-8.6l0-85.8c0-29.1,13.8-53.7,41.1-73.2
			c21.1-15.1,42.7-21.3,42.9-21.4c0.2,0,0.3-0.1,0.5-0.2l5.1-1.7c3,4.9,8.3,8.2,14.5,8.2l88.5,0c9.3,0,16.9-7.6,16.9-16.9l0-240.5
			c0-9.3-7.6-16.9-16.9-16.9l-88.6,0c-8,0-14.7,5.6-16.4,13c-11.9-12.7-28.8-20.7-47.6-20.7l-209.8,0c-44.6,0-73.1,23.3-78.1,64
			L0.8,242.4c-3.9,24.7,6.2,49.7,25.8,63.7c11.1,8,24.2,12.2,37.9,12.2l109.1,0l0,79.6C173.6,429.1,182.6,451.5,200.4,464.6z
			 M380.8,34.1l86.1,0l0,238l-86.1,0L380.8,34.1z M64.5,300.2c-9.9,0-19.3-3-27.3-8.8c-14-10.1-21.3-28.2-18.4-46.2L45.5,74.9
			c0-0.1,0-0.2,0-0.3c4.9-39.8,35.4-48.2,60.2-48.2l209.8,0c26,0,47.1,21.1,47.1,47.1l0,190.2l-8.3,2.8c-2.9,0.8-25.2,7.6-47.8,23.7
			c-32.1,22.8-49.1,53.3-49.1,88.2l0,78.6c-10.4,2-31.3,4-46.4-7.1c-12.8-9.4-19.3-26.9-19.3-52l0-88.7c0-5-4.1-9.1-9.1-9.1
			l-118.1,0V300.2z"/>
	</g>
</g>
</svg>
