<svg height="479pt" viewBox="0 0 479 479.9946" width="479pt" xmlns="http://www.w3.org/2000/svg"><path d="m256.453125 267.699219c-15.304687 8.839843-34.878906 3.59375-43.714844-11.710938l-16-27.714843 55.425781-32 16 27.714843c8.835938 15.304688 3.59375 34.875-11.710937 43.710938zm0 0" fill="#3d4d63"/><path d="m192.464844 263.996094h96v32h-96zm0 0" fill="#348fd9"/><path d="m256.464844 263.996094h32v32h-32zm0 0" fill="#3086cd"/><path d="m224.464844 295.996094h32v176h-32zm0 0" fill="#4db7e5"/><path d="m224.464844 295.996094h-32l-64 176h32zm0 0" fill="#4db7e5"/><path d="m256.464844 295.996094h32l64 176h-32zm0 0" fill="#4db7e5"/><path d="m353.003906 189.464844-66.890625-109.511719 119.464844-71.957031 66.886719 109.511718zm0 0" fill="#348fd9"/><path d="m194.820312 259.777344-44.59375-73.007813 147.03125-88.558593 44.59375 73zm0 0" fill="#4db7e5"/><path d="m195.011719 260.089844-13.898438-22.390625 146.847657-88.878907 13.890624 22.390626zm0 0" fill="#48add9"/><path d="m376.726562 53.707031 13.878907-8.679687 8.484375 13.566406-13.875 8.679688zm0 0" fill="#62a9e6"/><path d="m326.253906 83.871094 40.9375-24.324219 8.171875 13.753906-40.9375 24.324219zm0 0" fill="#62a9e6"/><path d="m268.339844 143.644531 14.066406-8.464843 8.246094 13.699218-14.0625 8.46875zm0 0" fill="#79c6e8"/><path d="m190.1875 190.714844 62.390625-37.558594 8.246094 13.699219-62.390625 37.5625zm0 0" fill="#79c6e8"/><path d="m183.675781 241.53125-22.296875-36.503906-82.710937 49.816406 22.292969 36.503906zm0 0" fill="#348fd9"/><path d="m183.675781 241.53125-12.015625-19.550781-82.632812 49.933593 12.007812 19.550782zm0 0" fill="#3086cd"/><path d="m78.667969 254.84375-27.570313 16.605469 5.601563 9.128906c9.300781 15.140625 29.070312 19.949219 44.289062 10.769531zm0 0" fill="#3d4d63"/><path d="m51.097656 271.449219 27.570313-16.605469-16.722657-27.378906-27.566406 16.609375zm0 0" fill="#348fd9"/><g fill="#3d4d63"><path d="m34.378906 244.074219-25.914062-21.847657 45.953125-27.671874 7.527343 32.910156zm0 0"/><path d="m168.464844 263.667969c0-11.824219-9.648438-21.410157-21.550782-21.410157-11.902343 0-21.550781 9.585938-21.550781 21.410157 0 11.820312 9.648438 21.40625 21.550781 21.40625 11.902344 0 21.550782-9.585938 21.550782-21.40625zm0 0"/><path d="m224.464844 439.996094h32v32h-32zm0 0"/><path d="m128.464844 471.996094h32l11.640625-32h-32zm0 0"/><path d="m308.828125 439.996094 11.636719 32h32l-11.636719-32zm0 0"/></g><path d="m335.265625 160.433594 17.738281 29.03125 119.460938-71.957032-17.980469-29.449218zm0 0" fill="#3086cd"/><path d="m412.402344 3.828125c-2.292969-3.7539062-7.183594-4.949219-10.953125-2.679687l-119.460938 71.957031c-1.828125 1.101562-3.136719 2.882812-3.644531 4.953125-.503906 2.070312-.164062 4.253906.945312 6.070312l6.953126 11.378906-140.175782 84.414063c-1.824218 1.097656-3.136718 2.878906-3.644531 4.949219-.507813 2.070312-.167969 4.257812.941406 6.074218l6.953125 11.378907-68.96875 41.597656-11.90625-19.527344-7.199218-31.625c-.570313-2.5-2.304688-4.570312-4.664063-5.574219-2.359375-1.003906-5.058594-.816406-7.253906.503907l-45.953125 27.679687c-2.210938 1.332032-3.644532 3.644532-3.847656 6.21875-.207032 2.570313.84375 5.085938 2.816406 6.75l24.886718 21 16.046876 26.269532 5.601562 9.128906c11.609375 18.847656 36.222656 24.847656 55.199219 13.449218l27.390625-16.480468c2.613281 2.097656 5.648437 3.601562 8.898437 4.40625 1.800781.4375 3.648438.660156 5.503907.664062 10.664062.011719 19.960937-7.25 22.535156-17.597656.78125-3.234375.847656-6.597656.191406-9.855469l11.34375-6.839843 4.648438 7.613281c-.710938 1.175781-1.097657 2.515625-1.121094 3.890625v30.597656l-63.511719 174.664062c-.890625 2.453126-.53125 5.183594.964844 7.324219 1.496093 2.136719 3.941406 3.410157 6.546875 3.414063h32c3.363281-.003906 6.363281-2.105469 7.515625-5.265625l48.484375-133.335938v130.601563c0 4.417968 3.582031 8 8 8h32c4.421875 0 8-3.582032 8-8v-130.601563l48.488281 133.335938c1.152344 3.160156 4.152344 5.261719 7.511719 5.265625h32c2.609375-.003906 5.054687-1.277344 6.550781-3.414063 1.496094-2.140625 1.855469-4.871093.964844-7.324219l-63.515625-174.664062v-30.597656c0-4.417969-3.578125-8-8-8h-11.511719c5.074219-11.390625 4.484375-24.507813-1.597656-35.394532l63.808593-38.398437 7 11.464844c1.453126 2.378906 4.039063 3.832031 6.832032 3.832031 1.453125 0 2.878906-.398438 4.117187-1.152344l119.472657-71.953125c1.828124-1.097656 3.140624-2.878906 3.644531-4.949219.507812-2.070312.171875-4.257812-.941407-6.074218zm-358.617188 256.664063-8.382812-13.722657 13.863281-8.375 8.402344 13.753907-12.472657 7.511718zm-4.710937-53.386719 3.777343 16.496093-17.695312 10.664063-12.984375-10.949219zm14.398437 69.296875-1.382812-2.253906 5.03125-3.035157 8.800781-5.3125 4.800781 7.84375 8.441406 13.839844c-10.03125 2.074219-20.289062-2.355469-25.65625-11.082031zm90.402344-11.054688c-.980469 3.84375-4.882812 6.171875-8.726562 5.207032-1.863282-.4375-3.472657-1.609376-4.457032-3.25-.96875-1.589844-1.257812-3.503907-.800781-5.308594.976563-3.839844 4.875-6.167969 8.71875-5.210938 1.863281.4375 3.46875 1.609375 4.457031 3.25.980469 1.585938 1.285156 3.5.847656 5.3125zm7.40625-19.703125c-7.539062-6.128906-18.117188-6.867187-26.4375-1.851562-8.320312 5.019531-12.601562 14.71875-10.695312 24.25l-20.480469 12.34375-10.777344-17.601563-3.152344-5.175781 68.9375-41.613281 8.796875 14.351562 5.1875 8.488282zm-6.414062 218.351563h-14.976563l58.175781-160h14.976563zm93.597656 0h-16v-160h16zm77.601562 0-58.175781-160h14.976563l58.175781 160zm-45.601562-176h-80v-16h80zm-22.300782-32h-35.433593c-.714844-.789063-1.371094-1.625-1.96875-2.503906l40.871093-24.625c4.714844 8.863281 3.324219 19.738281-3.46875 27.128906zm-60.664062-7.203125-6.976562-11.421875v-.054688l-8.679688-14.121094-20.578125-33.710937 133.328125-80.320313 36.273438 59.351563zm158.167969-70.285157-6.96875-11.417968v-.046875l-44.59375-73.007813-6.933594-11.351562 105.695313-63.738282 58.542968 95.867188zm0 0"/><path d="m376.726562 53.707031 13.878907-8.679687 8.484375 13.566406-13.875 8.679688zm0 0"/><path d="m326.121094 83.875 40.921875-24.320312 8.167969 13.746093-40.917969 24.320313zm0 0"/><path d="m268.464844 143.667969 14.066406-8.46875 8.253906 13.703125-14.070312 8.472656zm0 0"/><path d="m190.1875 190.714844 62.390625-37.558594 8.246094 13.699219-62.390625 37.5625zm0 0"/></svg>