<svg height="511pt" viewBox="-34 0 511 511.98743" width="511pt" xmlns="http://www.w3.org/2000/svg"><path d="m324.503906 389.789062 35.414063 79.53125h-74.753907l-19.796874-44.457031-17.234376-38.488281c-3.808593-8.324219-.285156-18.164062 7.933594-22.183594 30.441406-14.289062 53.449219-40.746094 63.375-72.871094 9.921875-32.128906 5.84375-66.953124-11.234375-95.917968l26.878907-28.84375 15.019531-16.128906c54.300781 74.496093 43.226562 178.035156-25.601563 239.359374zm0 0" fill="#545c60"/><path d="m298.90625 389.789062 35.410156 79.53125h-49.152344l-19.796874-44.457031-17.234376-38.488281c-3.808593-8.324219-.285156-18.164062 7.933594-22.183594 30.441406-14.289062 53.449219-40.746094 63.375-72.871094 9.921875-32.128906 5.84375-66.953124-11.234375-95.917968l26.878907-28.84375c42.238281 73.605468 27.144531 166.734375-36.179688 223.230468zm0 0" fill="#7f8e94"/><path d="m163.480469 383.988281-18.261719 40.875-19.796875 44.457031h-74.753906l35.414062-79.53125 2.644531-5.800781zm0 0" fill="#545c60"/><path d="m137.878906 383.988281-18.261718 40.875-19.796876 44.457031h-49.152343l35.414062-79.53125 2.644531-5.800781zm0 0" fill="#7f8e94"/><path d="m401.558594 494.921875v8.53125h-392.53125v-8.53125c-.007813-6.792969 2.683594-13.308594 7.488281-18.113281 4.800781-4.800782 11.320313-7.496094 18.113281-7.488282h341.332032c6.792968-.007812 13.308593 2.6875 18.113281 7.488282 4.800781 4.804687 7.496093 11.320312 7.484375 18.113281zm0 0" fill="#283593"/><path d="m375.960938 494.921875v8.53125h-366.933594v-8.53125c-.007813-6.792969 2.683594-13.308594 7.488281-18.113281 4.800781-4.800782 11.320313-7.496094 18.113281-7.488282h315.730469c6.792969-.007812 13.308594 2.6875 18.113281 7.488282 4.800782 4.804687 7.496094 11.320312 7.488282 18.113281zm0 0" fill="#3f51b5"/><path d="m34.628906 349.855469h170.664063c4.714843 0 8.535156 3.820312 8.535156 8.53125v17.066406c0 4.714844-3.820313 8.535156-8.535156 8.535156h-170.664063c-4.714844 0-8.535156-3.820312-8.535156-8.535156v-17.066406c0-4.710938 3.820312-8.53125 8.535156-8.53125zm0 0" fill="#707070"/><path d="m34.628906 349.855469h145.066406c4.710938 0 8.53125 3.820312 8.53125 8.53125v17.066406c0 4.714844-3.820312 8.535156-8.53125 8.535156h-145.066406c-4.714844 0-8.535156-3.820312-8.535156-8.535156v-17.066406c0-4.710938 3.820312-8.53125 8.535156-8.53125zm0 0" fill="#9e9e9e"/><path d="m409.070312 95.476562-100.523437 100.523438-68.4375 68.433594c-1.59375 1.601562-3.757813 2.496094-6.015625 2.496094s-4.421875-.894532-6.015625-2.496094l-48.300781-48.296875c-2.828125-2.816407-3.292969-7.238281-1.109375-10.582031.324219-.519532.695312-1.003907 1.109375-1.449219l168.960937-168.960938c1.59375-1.597656 3.757813-2.496093 6.015625-2.496093 2.257813 0 4.421875.898437 6.015625 2.496093l6.058594 6.058594 33.453125 33.449219 2.730469 2.730468 6.058593 6.0625c1.597657 1.59375 2.496094 3.757813 2.496094 6.015626 0 2.253906-.898437 4.421874-2.496094 6.015624zm0 0" fill="#0377bc"/><path d="m400.28125 74.652344c-.425781.429687-.769531.941406-1.195312 1.367187l-168.960938 168.960938c-1.59375 1.597656-3.757812 2.496093-6.015625 2.496093s-4.421875-.898437-6.015625-2.496093l-39.425781-39.425781c.324219-.519532.695312-1.003907 1.109375-1.449219l168.960937-168.960938c1.59375-1.597656 3.757813-2.496093 6.015625-2.496093 2.257813 0 4.421875.898437 6.015625 2.496093l6.058594 6.058594zm0 0" fill="#02a9f4"/><path d="m433.21875 47.261719-30.207031 30.121093-36.183594-36.179687 4.269531-4.265625 25.855469-25.941406c3.351563-3.328125 8.761719-3.328125 12.117187 0l24.148438 24.148437c3.328125 3.355469 3.328125 8.765625 0 12.117188zm0 0" fill="#37474f"/><path d="m426.222656 28.148438c-.414062.75-.933594 1.4375-1.535156 2.046874l-30.210938 30.121094-23.378906-23.378906 25.855469-25.941406c3.351563-3.328125 8.761719-3.328125 12.117187 0zm0 0" fill="#607d8b"/><path d="m228.078125 264.433594-18.175781 18.09375c-1.59375 1.597656-3.757813 2.496094-6.015625 2.496094-2.257813 0-4.421875-.898438-6.015625-2.496094l-36.183594-36.183594c-1.597656-1.59375-2.496094-3.757812-2.496094-6.015625s.898438-4.421875 2.496094-6.015625l16.980469-16.980469 1.109375-1.195312zm0 0" fill="#37474f"/><path d="m213.828125 252.488281-18.089844 18.089844c-1.964843 1.976563-4.78125 2.839844-7.511719 2.304687l-26.539062-26.539062c-1.597656-1.59375-2.496094-3.757812-2.496094-6.015625s.898438-4.421875 2.496094-6.015625l16.980469-16.980469zm0 0" fill="#607d8b"/><path d="m128.492188 264.519531v85.335938h-93.863282v-119.46875c.027344-9.414063 7.652344-17.039063 17.066406-17.066407h25.597657zm0 0" fill="#fec108"/><path d="m102.894531 264.519531v85.335938h-68.265625v-119.46875c0-9.386719 24.746094-17.066407 34.132813-17.066407zm0 0" fill="#ffdc00"/><path d="m77.292969 213.320312 51.199219 51.199219h-42.664063c-4.714844 0-8.535156-3.820312-8.535156-8.53125zm0 0" fill="#ffeb3a"/><path d="m350.359375 145.054688c0 1.792968-.085937 3.667968-.253906 5.375-2.4375 22.628906-19.5 40.941406-41.898438 44.972656-2.980469.585937-6.011719.871094-9.046875.851562-4.351562 0-8.683594-.574218-12.886718-1.707031-22.558594-5.832031-38.316407-26.1875-38.3125-49.492187v-.597657c.269531-22.789062 15.578124-42.65625 37.546874-48.726562.253907-.085938.597657-.167969.851563-.253907 4.179687-1.101562 8.480469-1.644531 12.800781-1.621093 28.269532.019531 51.175782 22.929687 51.199219 51.199219zm0 0" fill="#cfd8dc"/><path d="m324.761719 145.054688c0 1.792968-.085938 3.667968-.257813 5.375-2.265625 21.253906-17.515625 38.851562-38.230468 44.117187-22.558594-5.832031-38.316407-26.1875-38.3125-49.492187v-.597657c.269531-22.789062 15.578124-42.65625 37.546874-48.726562.253907-.085938.597657-.167969.851563-.253907 22.574219 5.886719 38.347656 26.246094 38.402344 49.578126zm0 0" fill="#f5f5f5"/><path d="m316.226562 145.054688c0 .597656-.027343 1.222656-.085937 1.792968-.8125 7.542969-6.5 13.644532-13.964844 14.988282-.992187.195312-2.003906.292968-3.015625.285156-9.421875-.007813-17.058594-7.644532-17.066406-17.066406v-.199219c.089844-7.597657 5.191406-14.21875 12.515625-16.242188 1.480469-.425781 3.011719-.636719 4.550781-.625 9.421875.007813 17.058594 7.644531 17.066406 17.066407zm0 0" fill="#607d8b"/><path d="m324.511719 398.324219c-3.542969 0-6.714844-2.183594-7.976563-5.492188-1.261718-3.308593-.347656-7.050781 2.292969-9.410156 36.328125-32.398437 57.109375-78.757813 57.132813-127.433594.113281-36.144531-11.359376-71.375-32.742188-100.515625-2.785156-3.804687-1.957031-9.144531 1.847656-11.929687 3.800782-2.785157 9.144532-1.957031 11.925782 1.84375 23.527343 32.066406 36.15625 70.828125 36.035156 110.601562-.019532 53.539063-22.882813 104.53125-62.84375 140.164063-1.558594 1.398437-3.578125 2.171875-5.671875 2.171875zm0 0"/><path d="m285.164062 477.855469c-3.371093 0-6.425781-1.980469-7.796874-5.058594l-37.023438-82.921875c-5.648438-12.589844-.277344-27.390625 12.132812-33.425781 28.257813-13.273438 49.609376-37.839844 58.816407-67.667969s5.417969-62.15625-10.441407-89.046875c-2.277343-4.054687-.894531-9.183594 3.113282-11.539063 4.007812-2.359374 9.164062-1.074218 11.597656 2.886719 18.21875 31.046875 22.546875 68.324219 11.921875 102.722657-10.621094 34.394531-35.21875 62.738281-67.773437 78.101562-4.035157 2.058594-5.703126 6.953125-3.769532 11.046875l37.019532 82.894531c1.914062 4.304688-.023438 9.347656-4.324219 11.261719-1.09375.492187-2.273438.746094-3.472657.746094zm0 0"/><path d="m359.921875 477.855469c-3.371094 0-6.425781-1.980469-7.800781-5.058594l-35.410156-79.53125c-1.921876-4.304687.015624-9.351563 4.320312-11.273437 4.304688-1.917969 9.351562.015624 11.269531 4.324218l35.414063 79.53125c1.914062 4.304688-.019532 9.34375-4.324219 11.261719-1.089844.492187-2.273437.746094-3.46875.746094zm0 0"/><path d="m125.421875 477.855469c-1.195313 0-2.375-.25-3.464844-.742188-4.304687-1.917969-6.242187-6.960937-4.328125-11.265625l38.058594-85.339844c1.925781-4.304687 6.972656-6.234374 11.277344-4.308593 4.304687 1.921875 6.230468 6.972656 4.308594 11.273437l-38.058594 85.324219c-1.371094 3.078125-4.425782 5.058594-7.792969 5.058594zm0 0"/><path d="m50.664062 477.855469c-1.195312 0-2.375-.253907-3.464843-.742188-4.304688-1.917969-6.242188-6.960937-4.328125-11.265625l38.09375-85.402344c1.230468-2.828124 3.890625-4.773437 6.957031-5.085937 3.070313-.3125 6.070313 1.058594 7.84375 3.578125 1.777344 2.523438 2.050781 5.808594.722656 8.589844l-2.644531 5.804687-35.378906 79.464844c-1.375 3.078125-4.429688 5.058594-7.800782 5.058594zm0 0"/><path d="m401.558594 511.988281h-392.53125c-4.714844 0-8.535156-3.820312-8.535156-8.535156v-8.53125c.019531-18.84375 15.292968-34.113281 34.136718-34.132813h341.332032c18.84375.019532 34.113281 15.289063 34.132812 34.132813v8.53125c0 4.714844-3.820312 8.535156-8.535156 8.535156zm-384-17.066406h375.46875c-.011719-9.421875-7.644532-17.058594-17.066406-17.066406h-341.332032c-9.421875.007812-17.058594 7.644531-17.070312 17.066406zm0 0"/><path d="m299.160156 204.789062c-29.882812.003907-55.171875-22.078124-59.191406-51.691406-4.019531-29.609375 14.46875-57.636718 43.273438-65.59375 5.175781-1.476562 10.535156-2.210937 15.917968-2.183594 32.972656.039063 59.695313 26.761719 59.734375 59.734376.003907 2.082031-.097656 4.167968-.304687 6.242187-2.851563 26.40625-22.757813 47.785156-48.894532 52.507813-3.472656.675781-7 1.007812-10.535156.984374zm0-102.402343c-3.804687-.023438-7.59375.492187-11.253906 1.535156-20.609375 5.632813-33.875 25.648437-31.027344 46.824219 2.84375 21.175781 20.914063 36.980468 42.28125 36.976562 2.460938.015625 4.921875-.207031 7.339844-.675781 18.734375-3.316406 33.039062-18.59375 35.109375-37.507813.148437-1.492187.222656-2.988281.21875-4.484374-.027344-23.554688-19.113281-42.640626-42.667969-42.667969zm0 0"/><path d="m299.160156 170.652344c-12.808594.003906-23.644531-9.460938-25.367187-22.152344-1.71875-12.691406 6.203125-24.703125 18.550781-28.113281 2.214844-.632813 4.511719-.945313 6.816406-.933594 14.132813.015625 25.585938 11.46875 25.601563 25.601563 0 .875-.042969 1.78125-.121094 2.597656-1.207031 11.351562-9.746094 20.546875-20.976563 22.585937-1.484374.285157-2.992187.425781-4.503906.414063zm0-34.132813c-.726562-.007812-1.449218.085938-2.148437.285157-4.15625 1.082031-6.859375 5.078124-6.3125 9.335937.542969 4.257813 4.167969 7.449219 8.460937 7.445313.433594.007812.863282-.027344 1.289063-.105469 3.820312-.609375 6.769531-3.691407 7.207031-7.535157.019531-.226562.039062-.566406.039062-.890624-.003906-4.710938-3.824218-8.53125-8.535156-8.535157zm0 0"/><path d="m205.292969 392.519531h-170.664063c-9.421875-.007812-17.058594-7.644531-17.070312-17.066406v-17.066406c.011718-9.421875 7.648437-17.054688 17.070312-17.066407h170.664063c9.421875.011719 17.054687 7.644532 17.066406 17.066407v17.066406c-.011719 9.421875-7.644531 17.058594-17.066406 17.066406zm0-34.140625-170.664063.007813v17.066406h170.664063zm0 0"/><path d="m351.726562 161.351562c-3.453124 0-6.5625-2.078124-7.882812-5.265624-1.324219-3.191407-.59375-6.859376 1.847656-9.300782l57.34375-57.34375-48.296875-48.265625-59.703125 59.730469c-3.34375 3.246094-8.675781 3.207031-11.972656-.089844s-3.339844-8.628906-.09375-11.976562l59.734375-59.730469c6.660156-6.636719 17.433594-6.640625 24.097656-.007813l48.296875 48.304688c3.199219 3.195312 4.996094 7.53125 4.996094 12.050781s-1.792969 8.855469-4.992188 12.050781l-57.34375 57.34375c-1.597656 1.605469-3.769531 2.503907-6.03125 2.5zm0 0"/><path d="m234.09375 275.453125c-4.515625.007813-8.851562-1.78125-12.046875-4.972656l-48.304687-48.308594c-6.644532-6.660156-6.644532-17.441406 0-24.101563l69.292968-69.289062c3.347656-3.234375 8.667969-3.1875 11.960938.101562 3.292968 3.292969 3.339844 8.613282.105468 11.964844l-69.292968 69.289063 48.300781 48.265625 68.402344-68.441406c2.144531-2.210938 5.3125-3.09375 8.292969-2.3125 2.976562.785156 5.304687 3.109374 6.085937 6.089843.78125 2.976563-.101563 6.144531-2.3125 8.289063l-68.4375 68.4375c-3.195313 3.195312-7.527344 4.992187-12.046875 4.988281zm0 0"/><path d="m403.023438 85.929688c-2.261719 0-4.433594-.898438-6.035157-2.5l-36.203125-36.207032c-3.332031-3.332031-3.332031-8.734375 0-12.070312l30.171875-30.164063c6.671875-6.652343 17.464844-6.652343 24.136719 0l24.132812 24.132813c6.652344 6.667968 6.652344 17.464844 0 24.132812l-30.171874 30.175782c-1.597657 1.601562-3.769532 2.5-6.03125 2.5zm-24.136719-44.742188 24.136719 24.140625 24.136718-24.140625-24.132812-24.132812zm0 0"/><path d="m203.902344 293.578125c-4.527344.011719-8.875-1.789063-12.066406-5l-36.207032-36.199219c-6.652344-6.667968-6.652344-17.464844 0-24.132812l18.105469-18.101563c3.332031-3.332031 8.734375-3.332031 12.066406 0l48.269531 48.269531c3.332032 3.332032 3.332032 8.730469 0 12.066407l-18.101562 18.097656c-3.191406 3.214844-7.539062 5.015625-12.066406 5zm-24.132813-65.332031-12.070312 12.066406 36.203125 36.199219.007812.007812 12.0625-12.074219zm0 0"/><path d="m128.492188 358.386719h-93.863282c-4.714844 0-8.535156-3.820313-8.535156-8.53125v-119.46875c.015625-14.132813 11.46875-25.582031 25.601562-25.597657h25.597657c4.714843 0 8.535156 3.820313 8.535156 8.53125 0 4.714844-3.820313 8.535157-8.535156 8.535157h-25.597657c-4.710937.003906-8.53125 3.820312-8.535156 8.53125v110.933593h76.800782v-76.800781c0-4.710937 3.820312-8.53125 8.53125-8.53125 4.714843 0 8.535156 3.820313 8.535156 8.53125v85.335938c0 4.710937-3.820313 8.53125-8.535156 8.53125zm0 0"/><path d="m128.492188 273.054688h-42.664063c-9.421875-.011719-17.058594-7.644532-17.066406-17.066407v-42.667969c0-3.449218 2.078125-6.5625 5.265625-7.882812s6.859375-.589844 9.300781 1.851562l51.199219 51.199219c2.4375 2.441407 3.167968 6.109375 1.847656 9.296875s-4.429688 5.269532-7.882812 5.269532zm-42.664063-39.132813v22.066406h22.066406zm0 0"/><path d="m68.761719 298.664062h-8.535157c-4.710937 0-8.53125-3.820312-8.53125-8.535156 0-4.710937 3.820313-8.53125 8.53125-8.53125h8.535157c4.710937 0 8.53125 3.820313 8.53125 8.53125 0 4.714844-3.820313 8.535156-8.53125 8.535156zm0 0"/><path d="m102.894531 298.664062c-1.117187-.015624-2.21875-.246093-3.242187-.683593-1.035156-.433594-1.988282-1.039063-2.816406-1.792969-2.441407-2.441406-3.152344-6.125-1.792969-9.300781.414062-1.042969 1.019531-2 1.792969-2.816407 2.050781-2 4.953124-2.863281 7.765624-2.304687.535157.097656 1.050782.273437 1.535157.519531.542969.183594 1.0625.441406 1.535156.765625.445313.320313.875.660157 1.28125 1.027344.769531.816406 1.378906 1.769531 1.792969 2.816406 1.359375 3.171875.652344 6.859375-1.792969 9.300781-.832031.753907-1.78125 1.359376-2.816406 1.789063-1.027344.4375-2.128907.667969-3.242188.679687zm0 0"/><path d="m102.894531 324.253906h-8.535156c-4.710937 0-8.53125-3.820312-8.53125-8.53125 0-4.714844 3.820313-8.535156 8.53125-8.535156h8.535156c4.710938 0 8.53125 3.820312 8.53125 8.535156 0 4.710938-3.820312 8.53125-8.53125 8.53125zm0 0"/><path d="m60.226562 324.253906c1.117188-.011718 2.21875-.246094 3.242188-.683594 1.035156-.429687 1.988281-1.039062 2.816406-1.789062 2.441406-2.445312 3.148438-6.128906 1.792969-9.304688-.414063-1.042968-1.019531-2-1.792969-2.816406-2.050781-2-4.953125-2.863281-7.765625-2.300781-.535156.09375-1.050781.269531-1.535156.515625-.542969.183594-1.0625.445312-1.535156.769531-.445313.316407-.875.65625-1.28125 1.023438-.769531.816406-1.378907 1.769531-1.792969 2.816406-1.359375 3.175781-.652344 6.859375 1.792969 9.300781.832031.753906 1.78125 1.359375 2.816406 1.792969 1.027344.433594 2.128906.664063 3.242187.675781zm0 0"/></svg>