<svg height="512pt" viewBox="0 0 512 512" width="512pt" xmlns="http://www.w3.org/2000/svg"><path d="m502 363h-492v19c0 22.089844 17.910156 40 40 40h412c22.089844 0 40-17.910156 40-40zm0 0" fill="#81b3e6"/><path d="m196 427v-5h120v5c0 19.328125 15.671875 35 35 35s35 15.671875 35 35v5h-260v-5c0-19.328125 15.671875-35 35-35s35-15.671875 35-35zm0 0" fill="#8397aa"/><path d="m502 50.011719c0-22.097657-17.914062-40.011719-40.011719-40.011719h-411.976562c-22.097657 0-40.011719 17.914062-40.011719 40.011719v16.988281h492zm0 0" fill="#81b3e6"/><path d="m10 67h492v296h-492zm0 0" fill="#c8e7f9"/><path d="m50 67h412v296h-412zm0 0" fill="#e6e6e6"/><path d="m136 67h240v50h-240zm0 0" fill="#fad79b"/><g fill="#fa9600"><path d="m330.5 298c0 13.808594-11.191406 25-25 25s-25-11.191406-25-25 11.191406-25 25-25 25 11.191406 25 25zm0 0"/><path d="m331 182c0 13.808594-11.191406 25-25 25s-25-11.191406-25-25 11.191406-25 25-25 25 11.191406 25 25zm0 0"/><path d="m231.5 242c0 13.808594-11.191406 25-25 25s-25-11.191406-25-25 11.191406-25 25-25 25 11.191406 25 25zm0 0"/></g><path d="m255.5 452c-5.511719 0-10 4.488281-10 10s4.488281 10 10 10 10-4.488281 10-10-4.488281-10-10-10zm0 0"/><path d="m461.988281 0h-411.976562c-27.578125 0-50.011719 22.433594-50.011719 50.011719v331.988281c0 27.570312 22.429688 50 50 50h135.496094c-2.320313 11.398438-12.421875 20-24.496094 20-24.8125 0-45 20.1875-45 45v5c0 5.523438 4.476562 10 10 10h260c5.523438 0 10-4.476562 10-10v-5c0-24.8125-20.1875-45-45-45-12.074219 0-22.175781-8.601562-24.496094-20h135.496094c27.570312 0 50-22.429688 50-50v-331.988281c0-27.578125-22.433594-50.011719-50.011719-50.011719zm-441.988281 77h20v276h-20zm331 395c12.074219 0 22.175781 8.601562 24.496094 20h-238.992188c2.320313-11.398438 12.421875-20 24.496094-20h54.5c5.511719 0 10-4.488281 10-10s-4.488281-10-10-10h-17.113281c3.921875-5.847656 6.519531-12.65625 7.335937-20h100.554688c.816406 7.34375 3.414062 14.152344 7.335937 20h-18.113281c-5.511719 0-10 4.488281-10 10s4.488281 10 10 10zm141-90c0 16.542969-13.457031 30-30 30h-412c-16.542969 0-30-13.457031-30-30v-9h472zm-356-255h240c5.523438 0 10-4.476562 10-10v-40h66v276h-392v-276h66v40c0 5.523438 4.476562 10 10 10zm10-20v-30h220v30zm346 246h-20v-276h20zm0-296h-472v-6.988281c0-16.546875 13.464844-30.011719 30.011719-30.011719h411.976562c16.546875 0 30.011719 13.464844 30.011719 30.011719zm0 0"/><path d="m206.5 277c9.40625 0 17.949219-3.738281 24.246094-9.796875l40.644531 22.988281c-.578125 2.511719-.890625 5.125-.890625 7.808594 0 19.296875 15.699219 35 35 35s35-15.703125 35-35c0-19.300781-15.699219-35-35-35-9.40625 0-17.949219 3.734375-24.246094 9.796875l-40.644531-22.992187c.578125-2.511719.890625-5.121094.890625-7.804688 0-2.496094-.269531-4.933594-.765625-7.28125l44.734375-24.402344c5.769531 4.199219 12.863281 6.683594 20.53125 6.683594 19.300781 0 35-15.699219 35-35s-15.699219-35-35-35-35 15.699219-35 35c0 4.296875.78125 8.414062 2.207031 12.222656l-42.066406 22.949219c-6.332031-6.285156-15.039063-10.171875-24.640625-10.171875-19.300781 0-35 15.699219-35 35s15.699219 35 35 35zm99 6c8.269531 0 15 6.730469 15 15s-6.730469 15-15 15-15-6.730469-15-15 6.730469-15 15-15zm.5-116c8.269531 0 15 6.730469 15 15s-6.730469 15-15 15-15-6.730469-15-15 6.730469-15 15-15zm-99.5 60c8.269531 0 15 6.730469 15 15s-6.730469 15-15 15-15-6.730469-15-15 6.730469-15 15-15zm0 0"/><path d="m170 333h30c5.523438 0 10-4.476562 10-10s-4.476562-10-10-10h-30c-5.523438 0-10 4.476562-10 10s4.476562 10 10 10zm0 0"/><path d="m130 313h-40c-5.523438 0-10 4.476562-10 10s4.476562 10 10 10h40c5.523438 0 10-4.476562 10-10s-4.476562-10-10-10zm0 0"/><path d="m140 273h-50c-5.523438 0-10 4.476562-10 10s4.476562 10 10 10h50c5.523438 0 10-4.476562 10-10s-4.476562-10-10-10zm0 0"/><path d="m140 233h-50c-5.523438 0-10 4.476562-10 10s4.476562 10 10 10h50c5.523438 0 10-4.476562 10-10s-4.476562-10-10-10zm0 0"/><path d="m80 203c0 5.523438 4.476562 10 10 10h50c5.523438 0 10-4.476562 10-10s-4.476562-10-10-10h-50c-5.523438 0-10 4.476562-10 10zm0 0"/><path d="m352 253c5.511719 0 10-4.488281 10-10s-4.488281-10-10-10-10 4.488281-10 10 4.488281 10 10 10zm0 0"/><path d="m422 233h-30c-5.511719 0-10 4.488281-10 10s4.488281 10 10 10h30c5.511719 0 10-4.488281 10-10s-4.488281-10-10-10zm0 0"/><path d="m382 213h40c5.523438 0 10-4.476562 10-10s-4.476562-10-10-10h-40c-5.523438 0-10 4.476562-10 10s4.476562 10 10 10zm0 0"/><path d="m372 293h50c5.523438 0 10-4.476562 10-10s-4.476562-10-10-10h-50c-5.523438 0-10 4.476562-10 10s4.476562 10 10 10zm0 0"/><path d="m422 313h-50c-5.523438 0-10 4.476562-10 10s4.476562 10 10 10h50c5.523438 0 10-4.476562 10-10s-4.476562-10-10-10zm0 0"/></svg>