<?xml version="1.0" encoding="iso-8859-1"?>
<!-- Generator: Adobe Illustrator 19.0.0, SVG Export Plug-In . SVG Version: 6.00 Build 0)  -->
<svg version="1.1" id="Capa_1" xmlns="http://www.w3.org/2000/svg" xmlns:xlink="http://www.w3.org/1999/xlink" x="0px" y="0px"
	 viewBox="0 0 512.001 512.001" style="enable-background:new 0 0 512.001 512.001;" xml:space="preserve">
<linearGradient id="SVGID_1_" gradientUnits="userSpaceOnUse" x1="0" y1="258.0003" x2="512.0006" y2="258.0003" gradientTransform="matrix(1 0 0 -1 0 514.0006)">
	<stop  offset="0" style="stop-color:#80D8FF"/>
	<stop  offset="1" style="stop-color:#EA80FC"/>
</linearGradient>
<path style="fill:url(#SVGID_1_);" d="M438.142,256l71.924-151.419c2.943-6.196,2.506-13.469-1.159-19.267
	C505.241,79.516,498.859,76,492,76H20C8.954,76,0,84.954,0,96v320c0,11.046,8.954,20,20,20h472c6.859,0,13.241-3.516,16.906-9.314
	c3.665-5.798,4.103-13.07,1.159-19.267L438.142,256z M40,396V116h420.358l-62.424,131.419c-2.579,5.43-2.579,11.732,0,17.162
	L460.358,396H40z M142.313,209.924v33.751h29.956c5.991,0,9.386,5.792,9.386,12.183c0,5.392-2.795,11.782-9.386,11.782h-29.956
	v33.95h53.521c5.991,0,9.387,6.391,9.387,13.779c0,6.391-2.797,13.381-9.387,13.381h-71.096c-6.79,0-13.58-3.195-13.58-9.586V192.35
	c0-6.391,6.79-9.586,13.58-9.586h71.096c6.59,0,9.387,6.99,9.387,13.381c0,7.389-3.396,13.779-9.387,13.779L142.313,209.924
	L142.313,209.924z M320.846,192.15v127.014c0,6.391-7.788,9.586-15.576,9.586c-7.189,0-13.58-1.398-17.375-8.388l-37.944-69.099
	v67.9c0,6.391-7.788,9.586-15.577,9.586s-15.577-3.195-15.577-9.586V192.35c0-6.59,7.788-9.586,15.577-9.586
	c11.184,0,15.377,0.999,22.967,15.578l32.352,61.709v-67.9c0-6.59,7.789-9.387,15.578-9.387
	C313.058,182.764,320.846,185.561,320.846,192.15z"/>
<g>
</g>
<g>
</g>
<g>
</g>
<g>
</g>
<g>
</g>
<g>
</g>
<g>
</g>
<g>
</g>
<g>
</g>
<g>
</g>
<g>
</g>
<g>
</g>
<g>
</g>
<g>
</g>
<g>
</g>
</svg>
