<svg height="504pt" viewBox="-48 0 504 504" width="504pt" xmlns="http://www.w3.org/2000/svg"><path d="m32.007812 220h-4c-2.207031 0-4-1.792969-4-4s1.792969-4 4-4h4c2.207032 0 4 1.792969 4 4s-1.792968 4-4 4zm0 0" fill="#aab2bd"/><path d="m371.992188 232h-327.984376l-8-16 8-16h327.984376l8 16zm0 0" fill="#545c66"/><path d="m60.007812 216c0 8.835938-7.164062 16-16 16-8.835937 0-16-7.164062-16-16s7.164063-16 16-16c8.835938 0 16 7.164062 16 16zm0 0" fill="#545c66"/><path d="m383.992188 212h4c2.207031 0 4 1.792969 4 4s-1.792969 4-4 4h-4c-2.207032 0-4-1.792969-4-4s1.792968-4 4-4zm0 0" fill="#aab2bd"/><path d="m387.992188 216c0 8.835938-7.164063 16-16 16-8.835938 0-16-7.164062-16-16s7.164062-16 16-16c8.835937 0 16 7.164062 16 16zm0 0" fill="#545c66"/><path d="m360 0c-13.257812 0-24 10.742188-24 24v8h48v-8c0-13.257812-10.742188-24-24-24zm0 0" fill="#ccd1d9"/><path d="m104 0h256c-13.28125 0-24 10.71875-24 24v208h-256v-208c0-13.28125 10.71875-24 24-24zm0 0" fill="#e6e9ed"/><path d="m72 272c-40 0-47.359375 8-47.359375 8v-.398438l1.199219-8.082031c3.359375-21.765625 24.160156-39.519531 46.160156-39.519531h264c22 0 42.800781 17.761719 46.160156 39.519531l1.199219 8.082031v.398438s-15.359375-8-55.359375-8-72 24-124 24-92-24-132-24zm0 0" fill="#7a8189"/><path d="m34.320312 480h339.359376c19.441406 0 33.519531-13.839844 34.242187-32h.078125v24c-.800781 18.160156-14.878906 32-34.320312 32h-339.359376c-19.441406 0-33.519531-13.839844-34.320312-32v-24h.078125c.722656 18.160156 14.800781 32 34.242187 32zm0 0" fill="#545c66"/><path d="m276 360c0-4.398438-5.359375-8-12-8s-12 3.601562-12 8 5.359375 8 12 8 12-3.601562 12-8zm8-24c6.640625 0 12-3.601562 12-8s-5.359375-8-12-8-12 3.601562-12 8 5.359375 8 12 8zm0 64c6.640625 0 12-3.601562 12-8s-5.359375-8-12-8-12 3.601562-12 8 5.359375 8 12 8zm32-40c0-4.398438-5.359375-8-12-8s-12 3.601562-12 8 5.359375 8 12 8 12-3.601562 12-8zm8 24c-6.640625 0-12 3.601562-12 8s5.359375 8 12 8 12-3.601562 12-8-5.359375-8-12-8zm0-48c6.640625 0 12-3.601562 12-8s-5.359375-8-12-8-12 3.601562-12 8 5.359375 8 12 8zm8 24c0 4.398438 5.359375 8 12 8s12-3.601562 12-8-5.359375-8-12-8-12 3.601562-12 8zm-176 0c0-4.398438-5.359375-8-12-8s-12 3.601562-12 8 5.359375 8 12 8 12-3.601562 12-8zm20 32c0-4.398438-5.359375-8-12-8s-12 3.601562-12 8 5.359375 8 12 8 12-3.601562 12-8zm-12-56c6.640625 0 12-3.601562 12-8s-5.359375-8-12-8-12 3.601562-12 8 5.359375 8 12 8zm32 24c0-4.398438-5.359375-8-12-8s-12 3.601562-12 8 5.359375 8 12 8 12-3.601562 12-8zm-4-32c0 4.398438 5.359375 8 12 8s12-3.601562 12-8-5.359375-8-12-8-12 3.601562-12 8zm24 64c0-4.398438-5.359375-8-12-8s-12 3.601562-12 8 5.359375 8 12 8 12-3.601562 12-8zm20-32c0-4.398438-5.359375-8-12-8s-12 3.601562-12 8 5.359375 8 12 8 12-3.601562 12-8zm20-32c0-4.398438-5.359375-8-12-8s-12 3.601562-12 8 5.359375 8 12 8 12-3.601562 12-8zm-12 56c-6.640625 0-12 3.601562-12 8s5.359375 8 12 8 12-3.601562 12-8-5.359375-8-12-8zm-209.679688 96c-19.441406 0-33.519531-13.839844-34.242187-32-.15625-2.480469 0-4.960938.402344-7.519531l24.160156-160.878907v.398438s7.359375-8 47.359375-8 80 24 132 24 84-24 124-24 55.359375 8 55.359375 8v-.398438l24.160156 160.878907c.402344 2.558593.550781 5.046875.402344 7.519531-.722656 18.160156-14.808594 32-34.242187 32zm29.679688-112c6.640625 0 12-3.601562 12-8s-5.359375-8-12-8-12 3.601562-12 8 5.359375 8 12 8zm32 24c0-4.398438-5.359375-8-12-8s-12 3.601562-12 8 5.359375 8 12 8 12-3.601562 12-8zm-12-56c6.640625 0 12-3.601562 12-8s-5.359375-8-12-8-12 3.601562-12 8 5.359375 8 12 8zm20 16c-6.640625 0-12 3.601562-12 8s5.359375 8 12 8 12-3.601562 12-8-5.359375-8-12-8zm20 32c-6.640625 0-12 3.601562-12 8s5.359375 8 12 8 12-3.601562 12-8-5.359375-8-12-8zm-12-56c0 4.398438 5.359375 8 12 8s12-3.601562 12-8-5.359375-8-12-8-12 3.601562-12 8zm172 88h-160c-6.640625 0-12 3.601562-12 8s5.359375 8 12 8h160c6.640625 0 12-3.601562 12-8s-5.359375-8-12-8zm0 0" fill="#656d78"/><g fill="#e6e9ed"><path d="m336 328c0-4.417969-5.371094-8-12-8s-12 3.582031-12 8 5.371094 8 12 8 12-3.582031 12-8zm0 0"/><path d="m356 360c0-4.417969-5.371094-8-12-8s-12 3.582031-12 8 5.371094 8 12 8 12-3.582031 12-8zm0 0"/><path d="m336 392c0-4.417969-5.371094-8-12-8s-12 3.582031-12 8 5.371094 8 12 8 12-3.582031 12-8zm0 0"/><path d="m316 360c0-4.417969-5.371094-8-12-8s-12 3.582031-12 8 5.371094 8 12 8 12-3.582031 12-8zm0 0"/><path d="m296 328c0-4.417969-5.371094-8-12-8s-12 3.582031-12 8 5.371094 8 12 8 12-3.582031 12-8zm0 0"/><path d="m256 328c0-4.417969-5.371094-8-12-8s-12 3.582031-12 8 5.371094 8 12 8 12-3.582031 12-8zm0 0"/><path d="m276 360c0-4.417969-5.371094-8-12-8s-12 3.582031-12 8 5.371094 8 12 8 12-3.582031 12-8zm0 0"/><path d="m296 392c0-4.417969-5.371094-8-12-8s-12 3.582031-12 8 5.371094 8 12 8 12-3.582031 12-8zm0 0"/><path d="m284 416c6.640625 0 12 3.601562 12 8s-5.359375 8-12 8h-160c-6.640625 0-12-3.601562-12-8s5.359375-8 12-8zm0 0"/><path d="m256 392c0-4.417969-5.371094-8-12-8s-12 3.582031-12 8 5.371094 8 12 8 12-3.582031 12-8zm0 0"/><path d="m216 392c0-4.417969-5.371094-8-12-8s-12 3.582031-12 8 5.371094 8 12 8 12-3.582031 12-8zm0 0"/><path d="m236 360c0-4.417969-5.371094-8-12-8s-12 3.582031-12 8 5.371094 8 12 8 12-3.582031 12-8zm0 0"/><path d="m216 328c0-4.417969-5.371094-8-12-8s-12 3.582031-12 8 5.371094 8 12 8 12-3.582031 12-8zm0 0"/><path d="m196 360c0-4.417969-5.371094-8-12-8s-12 3.582031-12 8 5.371094 8 12 8 12-3.582031 12-8zm0 0"/><path d="m156 360c0-4.417969-5.371094-8-12-8s-12 3.582031-12 8 5.371094 8 12 8 12-3.582031 12-8zm0 0"/><path d="m176 328c0-4.417969-5.371094-8-12-8s-12 3.582031-12 8 5.371094 8 12 8 12-3.582031 12-8zm0 0"/><path d="m136 328c0-4.417969-5.371094-8-12-8s-12 3.582031-12 8 5.371094 8 12 8 12-3.582031 12-8zm0 0"/><path d="m116 360c0-4.417969-5.371094-8-12-8s-12 3.582031-12 8 5.371094 8 12 8 12-3.582031 12-8zm0 0"/><path d="m96 328c0-4.417969-5.371094-8-12-8s-12 3.582031-12 8 5.371094 8 12 8 12-3.582031 12-8zm0 0"/><path d="m76 360c0-4.417969-5.371094-8-12-8s-12 3.582031-12 8 5.371094 8 12 8 12-3.582031 12-8zm0 0"/><path d="m96 392c0-4.417969-5.371094-8-12-8s-12 3.582031-12 8 5.371094 8 12 8 12-3.582031 12-8zm0 0"/><path d="m136 392c0-4.417969-5.371094-8-12-8s-12 3.582031-12 8 5.371094 8 12 8 12-3.582031 12-8zm0 0"/><path d="m176 392c0-4.417969-5.371094-8-12-8s-12 3.582031-12 8 5.371094 8 12 8 12-3.582031 12-8zm0 0"/></g><path d="m349.785156 2.351562c.136719-.0625.246094-.152343.382813-.207031-.136719.054688-.257813.144531-.382813.207031zm0 0"/><path d="m354.136719.808594c.269531-.074219.527343-.191406.816406-.25-.289063.058594-.546875.175781-.816406.25zm0 0"/><path d="m376 468h-344c-2.207031 0-4-1.792969-4-4s1.792969-4 4-4h344c2.207031 0 4 1.792969 4 4s-1.792969 4-4 4zm0 0" fill="#545c66"/><path d="m232 240h-56c-2.207031 0-4-1.792969-4-4s1.792969-4 4-4h56c2.207031 0 4 1.792969 4 4s-1.792969 4-4 4zm0 0" fill="#656d78"/><path d="m296 52h-176c-2.207031 0-4-1.792969-4-4s1.792969-4 4-4h176c2.207031 0 4 1.792969 4 4s-1.792969 4-4 4zm0 0" fill="#ccd1d9"/><path d="m296 84h-176c-2.207031 0-4-1.792969-4-4s1.792969-4 4-4h176c2.207031 0 4 1.792969 4 4s-1.792969 4-4 4zm0 0" fill="#ccd1d9"/><path d="m296 116h-176c-2.207031 0-4-1.792969-4-4s1.792969-4 4-4h176c2.207031 0 4 1.792969 4 4s-1.792969 4-4 4zm0 0" fill="#ccd1d9"/><path d="m296 148h-176c-2.207031 0-4-1.792969-4-4s1.792969-4 4-4h176c2.207031 0 4 1.792969 4 4s-1.792969 4-4 4zm0 0" fill="#ccd1d9"/><path d="m208 180h-88c-2.207031 0-4-1.792969-4-4s1.792969-4 4-4h88c2.207031 0 4 1.792969 4 4s-1.792969 4-4 4zm0 0" fill="#ccd1d9"/></svg>