<svg height="481pt" viewBox="-1 0 481 481.972" width="481pt" xmlns="http://www.w3.org/2000/svg"><path d="m32.484375 249.972656h416v232h-416zm0 0" fill="#bdd5ea"/><path d="m112.25 417.972656-20.957031-16c-14.929688 0-27.042969 12.101563-27.042969 27.039063v52.960937h96v-52.960937c0-14.925781-12.101562-27.039063-27.039062-27.039063zm0 0" fill="#577399"/><path d="m91.292969 402.957031 20.957031 16 20.960938-16c8.503906-7.433593 13.175781-19.128906 10.074218-31.914062-2.777344-11.414063-12.105468-20.648438-23.5625-23.246094-20.925781-4.738281-39.480468 11.039063-39.480468 31.152344.007812 9.621093 4.335937 18.144531 11.050781 24.007812zm0 0" fill="#ffdbac"/><path d="m112.25 418.957031-16 24 16 32 16-32zm0 0" fill="#bdd5ea"/><g fill="#577399"><path d="m296.484375 281.972656h32v32h-32zm0 0"/><path d="m224.484375 281.972656h32v32h-32zm0 0"/><path d="m152.484375 281.972656h32v32h-32zm0 0"/><path d="m80.484375 281.972656h32v32h-32zm0 0"/><path d="m368.484375 281.972656h32v32h-32zm0 0"/></g><path d="m472.484375 249.972656h-464l80-64h304zm0 0" fill="#495867"/><path d="m240.484375 8.003906v32c21.007813 5.257813 42.992187 5.257813 64 0v-32c-21.007813 5.25-42.992187 5.25-64 0zm0 0" fill="#fe5f55"/><path d="m312.484375 137.972656h-144c0-35.34375 28.65625-64 64-64h16c35.34375 0 64 28.65625 64 64zm0 0" fill="#495867"/><path d="m176.484375 137.972656h128v48h-128zm0 0" fill="#eaeaea"/><path d="m240.484375 417.972656-20.960937-16c-14.9375 0-27.039063 12.101563-27.039063 27.039063v52.960937h96v-52.960937c0-14.925781-12.105469-27.039063-27.039063-27.039063zm0 0" fill="#577399"/><path d="m219.523438 402.957031 20.960937 16 20.960937-16c8.503907-7.433593 13.175782-19.128906 10.070313-31.914062-2.777344-11.414063-12.105469-20.648438-23.558594-23.246094-20.921875-4.730469-39.472656 11.046875-39.472656 31.160156 0 9.613281 4.328125 18.136719 11.039063 24zm0 0" fill="#ffdbac"/><path d="m240.484375 418.957031-16 24 16 32 16-32zm0 0" fill="#bdd5ea"/><path d="m368.25 417.972656-20.957031-16c-14.929688 0-27.042969 12.101563-27.042969 27.039063v52.960937h96v-52.960937c0-14.925781-12.101562-27.039063-27.039062-27.039063zm0 0" fill="#577399"/><path d="m347.292969 402.957031 20.957031 16 20.960938-16c8.503906-7.433593 13.175781-19.128906 10.074218-31.914062-2.777344-11.414063-12.105468-20.648438-23.5625-23.246094-20.925781-4.738281-39.480468 11.039063-39.480468 31.152344.007812 9.621093 4.335937 18.144531 11.050781 24.007812zm0 0" fill="#ffdbac"/><path d="m368.25 418.957031-16 24 16 32 16-32zm0 0" fill="#bdd5ea"/><path d="m168.484375 481.972656v-52.96875c0-14.273437-8.578125-26.574218-20.839844-32.03125 4.726563-8.59375 6.109375-18.695312 3.65625-28.808594-3.503906-14.441406-15.121093-25.878906-29.570312-29.152343-12.152344-2.757813-24.621094.039062-34.191407 7.6875-9.566406 7.648437-15.054687 19.039062-15.054687 31.273437 0 6.679688 1.71875 13.191406 4.886719 18.984375-12.296875 5.445313-20.886719 17.757813-20.886719 32.046875v52.96875h16v-52.96875c0-9.679687 7.285156-17.609375 16.65625-18.792968l12.527344 9.5625-11.839844 17.757812c-1.59375 2.382812-1.785156 5.449219-.496094 8.015625l16 32c1.351563 2.714844 4.121094 4.425781 7.152344 4.425781s5.800781-1.710937 7.160156-4.425781l16-32c1.277344-2.566406 1.09375-5.632813-.496093-8.015625l-11.839844-17.757812 12.527344-9.5625c9.359374 1.191406 16.648437 9.113281 16.648437 18.792968v52.96875zm-56-25.886718-6.769531-13.539063 6.769531-10.152344 6.765625 10.152344zm15.773437-60.21875-15.773437 12.039062-15.761719-12.03125c-5.304687-4.671875-8.238281-11.023438-8.238281-17.902344 0-7.335937 3.296875-14.175781 9.039063-18.769531 5.832031-4.664063 13.183593-6.289063 20.671874-4.582031 8.449219 1.910156 15.503907 8.878906 17.550782 17.328125 2.167968 8.941406-.628906 17.871093-7.488282 23.917969zm0 0"/><path d="m217.324219 445.546875 16 32c1.359375 2.714844 4.128906 4.425781 7.160156 4.425781s5.800781-1.710937 7.160156-4.425781l16-32c1.277344-2.566406 1.09375-5.632813-.496093-8.015625l-11.839844-17.757812 12.527344-9.5625c9.359374 1.191406 16.648437 9.113281 16.648437 18.792968v52.96875h16v-52.96875c0-14.273437-8.578125-26.574218-20.839844-32.03125 4.726563-8.59375 6.109375-18.695312 3.65625-28.808594-3.503906-14.441406-15.121093-25.878906-29.570312-29.152343-12.152344-2.757813-24.621094.039062-34.191407 7.6875-9.566406 7.648437-15.054687 19.039062-15.054687 31.273437 0 6.679688 1.71875 13.191406 4.886719 18.984375-12.296875 5.445313-20.886719 17.757813-20.886719 32.046875v52.96875h16v-52.96875c0-9.679687 7.285156-17.609375 16.65625-18.792968l12.527344 9.5625-11.839844 17.757812c-1.59375 2.394531-1.785156 5.449219-.503906 8.015625zm23.160156 10.539063-6.769531-13.539063 6.769531-10.152344 6.765625 10.152344zm-15.761719-60.210938c-5.304687-4.671875-8.238281-11.023438-8.238281-17.902344 0-7.335937 3.296875-14.175781 9.039063-18.769531 5.832031-4.664063 13.183593-6.289063 20.671874-4.582031 8.449219 1.910156 15.503907 8.878906 17.550782 17.328125 2.167968 8.941406-.628906 17.871093-7.488282 23.910156l-15.773437 12.046875zm0 0"/><path d="m328.484375 377.972656c0 6.679688 1.71875 13.191406 4.886719 18.984375-12.296875 5.445313-20.886719 17.757813-20.886719 32.046875v52.96875h16v-52.96875c0-9.679687 7.285156-17.609375 16.65625-18.792968l12.527344 9.5625-11.839844 17.757812c-1.59375 2.382812-1.785156 5.449219-.496094 8.015625l16 32c1.351563 2.714844 4.121094 4.425781 7.152344 4.425781s5.800781-1.710937 7.160156-4.425781l16-32c1.277344-2.566406 1.09375-5.632813-.496093-8.015625l-11.839844-17.757812 12.527344-9.5625c9.359374 1.191406 16.648437 9.113281 16.648437 18.792968v52.96875h16v-52.96875c0-14.273437-8.578125-26.574218-20.839844-32.03125 4.726563-8.59375 6.109375-18.695312 3.65625-28.808594-3.503906-14.441406-15.121093-25.878906-29.570312-29.152343-12.152344-2.757813-24.621094.039062-34.191407 7.6875-9.566406 7.648437-15.054687 19.039062-15.054687 31.273437zm40 78.113282-6.769531-13.539063 6.769531-10.152344 6.765625 10.152344zm-14.960937-96.882813c5.832031-4.664063 13.183593-6.289063 20.671874-4.582031 8.449219 1.910156 15.503907 8.878906 17.550782 17.328125 2.167968 8.941406-.628906 17.871093-7.488282 23.910156l-15.773437 12.046875-15.761719-12.03125c-5.304687-4.671875-8.238281-11.023438-8.238281-17.902344 0-7.335937 3.296875-14.175781 9.039063-18.769531zm0 0"/><path d="m8.484375 257.972656h16v224h16v-224h400v224h16v-224h16c3.398437 0 6.421875-2.144531 7.542969-5.351562 1.121094-3.210938.105468-6.777344-2.542969-8.898438l-80-64c-1.425781-1.132812-3.175781-1.75-5-1.75h-80v-32c4.421875 0 8-3.585937 8-8 0-39.695312-32.296875-72-72-72v-16.144531c7.925781 1.375 15.960937 2.105469 24 2.105469 11.421875 0 22.832031-1.386719 33.933594-4.160156 3.570312-.898438 6.066406-4.097657 6.066406-7.769532v-32c0-2.464844-1.136719-4.792968-3.082031-6.304687-1.941406-1.519531-4.480469-2.0625-6.855469-1.457031-19.671875 4.914062-40.457031 4.914062-60.128906 0-2.382813-.589844-4.910157-.054688-6.855469 1.457031-1.941406 1.511719-3.078125 3.839843-3.078125 6.304687v32c0 .6875.167969 1.328125.335937 1.96875h-.335937v24c-39.703125 0-72 32.304688-72 72 0 4.414063 3.574219 8 8 8v32h-80c-1.824219 0-3.578125.617188-5 1.75l-80 64c-2.648437 2.121094-3.671875 5.6875-2.546875 8.898438 1.128906 3.207031 4.144531 5.351562 7.546875 5.351562zm240-240.105468c15.855469 2.746093 32.144531 2.746093 48 0v15.730468c-15.816406 3.117188-32.183594 3.117188-48 0zm-16 64.105468h16c28.167969 0 51.535156 20.894532 55.429687 48h-126.863281c3.898438-27.105468 27.265625-48 55.433594-48zm64 64v32h-16v-32zm-32 0v32h-16v-32zm-32 0v32h-16v-32zm-32 0v32h-16v-32zm-109.191406 48h298.390625l60 48h-418.390625zm0 0"/><path d="m328.484375 273.972656h-32c-4.425781 0-8 3.582032-8 8v32c0 4.414063 3.574219 8 8 8h32c4.421875 0 8-3.585937 8-8v-32c0-4.417968-3.578125-8-8-8zm-8 32h-16v-16h16zm0 0"/><path d="m256.484375 321.972656c4.421875 0 8-3.585937 8-8v-32c0-4.417968-3.578125-8-8-8h-32c-4.425781 0-8 3.582032-8 8v32c0 4.414063 3.574219 8 8 8zm-24-32h16v16h-16zm0 0"/><path d="m192.484375 313.972656v-32c0-4.417968-3.578125-8-8-8h-32c-4.425781 0-8 3.582032-8 8v32c0 4.414063 3.574219 8 8 8h32c4.421875 0 8-3.585937 8-8zm-16-8h-16v-16h16zm0 0"/><path d="m112.484375 321.972656c4.421875 0 8-3.585937 8-8v-32c0-4.417968-3.578125-8-8-8h-32c-4.425781 0-8 3.582032-8 8v32c0 4.414063 3.574219 8 8 8zm-24-32h16v16h-16zm0 0"/><path d="m400.484375 321.972656c4.421875 0 8-3.585937 8-8v-32c0-4.417968-3.578125-8-8-8h-32c-4.425781 0-8 3.582032-8 8v32c0 4.414063 3.574219 8 8 8zm-24-32h16v16h-16zm0 0"/></svg>