<svg height="512pt" viewBox="0 0 512 512" width="512pt" xmlns="http://www.w3.org/2000/svg"><path d="m97.101562 432.484375h-52.964843c-11.210938-76.09375-11.210938-153.421875 0-229.515625h52.964843c11.214844 76.09375 11.214844 153.421875 0 229.515625zm0 0" fill="#cbb292"/><path d="m97.101562 432.484375h-33.984374c11.210937-76.09375 11.210937-153.421875 0-229.515625h33.984374c11.214844 76.09375 11.214844 153.421875 0 229.515625zm0 0" fill="#7f6e5d"/><path d="m220.335938 432.484375h-52.964844c-11.300782-76.085937-11.300782-153.425781 0-229.515625h52.964844c11.210937 76.09375 11.210937 153.421875 0 229.515625zm0 0" fill="#cbb292"/><path d="m220.300781 432.484375h-33.984375c11.210938-76.09375 11.210938-153.421875 0-229.515625h33.984375c11.210938 76.09375 11.210938 153.421875 0 229.515625zm0 0" fill="#7f6e5d"/><path d="m343.480469 432.484375h-52.964844c-11.210937-76.09375-11.210937-153.421875 0-229.515625h52.964844c11.300781 76.089844 11.300781 153.429688 0 229.515625zm0 0" fill="#cbb292"/><path d="m343.5 432.484375h-33.988281c11.210937-76.09375 11.210937-153.421875 0-229.515625h33.988281c11.210938 76.09375 11.210938 153.421875 0 229.515625zm0 0" fill="#7f6e5d"/><path d="m466.714844 432.484375h-52.964844c-11.300781-76.085937-11.300781-153.425781 0-229.515625h52.964844c11.210937 76.09375 11.210937 153.421875 0 229.515625zm0 0" fill="#cbb292"/><path d="m466.695312 432.484375h-33.984374c11.210937-76.09375 11.210937-153.421875 0-229.515625h33.984374c11.210938 76.09375 11.210938 153.421875 0 229.515625zm0 0" fill="#7f6e5d"/><g fill="#2c2f38"><path d="m26.484375 160.789062h88.273437v33.351563c0 9.75-7.902343 17.65625-17.65625 17.65625h-52.964843c-9.75 0-17.652344-7.90625-17.652344-17.65625zm0 0"/><path d="m150.070312 160.789062h88.273438v33.351563c0 9.75-7.902344 17.65625-17.652344 17.65625h-52.96875c-9.75 0-17.652344-7.90625-17.652344-17.65625zm0 0"/><path d="m273.65625 160.789062h88.273438v33.351563c0 9.75-7.902344 17.65625-17.652344 17.65625h-52.96875c-9.75 0-17.652344-7.90625-17.652344-17.65625zm0 0"/><path d="m397.242188 160.789062h88.273437v33.351563c0 9.75-7.902344 17.65625-17.652344 17.65625h-52.964843c-9.753907 0-17.65625-7.90625-17.65625-17.65625zm0 0"/></g><path d="m17.65625 114.691406h476.6875v35.3125c0 9.75-7.902344 17.65625-17.652344 17.65625h-441.382812c-9.75 0-17.652344-7.90625-17.652344-17.65625zm0 0" fill="#2c3e50"/><path d="m507.585938 92.625h-503.171876l245.832032-91.667969c3.71875-1.277343 7.753906-1.277343 11.472656 0zm0 0" fill="#84b5cb"/><path d="m8.828125 88.210938h494.34375c4.875 0 8.828125 3.953124 8.828125 8.828124v17.652344c0 4.878906-3.953125 8.828125-8.828125 8.828125h-494.34375c-4.875 0-8.828125-3.949219-8.828125-8.828125v-17.652344c0-4.875 3.953125-8.828124 8.828125-8.828124zm0 0" fill="#547580"/><path d="m35.308594 423.660156h441.382812c9.75 0 17.652344 7.902344 17.652344 17.652344v35.3125h-476.6875v-35.3125c0-9.75 7.902344-17.652344 17.652344-17.652344zm0 0" fill="#547580"/><path d="m17.65625 467.796875h476.6875c9.75 0 17.65625 7.902344 17.65625 17.65625v26.480469h-512v-26.480469c0-9.753906 7.90625-17.65625 17.65625-17.65625zm0 0" fill="#2c3e50"/></svg>