<svg height="512pt" viewBox="0 0 512 512.00006" width="512pt" xmlns="http://www.w3.org/2000/svg"><path d="m16.472656 512c-4.21875 0-8.433594-1.609375-11.648437-4.824219-6.433594-6.433593-6.433594-16.863281 0-23.292969l63.441406-63.445312c6.433594-6.433594 16.863281-6.433594 23.296875 0 6.429688 6.433594 6.429688 16.863281 0 23.292969l-63.445312 63.445312c-3.214844 3.214844-7.429688 4.824219-11.644532 4.824219zm0 0" fill="#495059"/><path d="m318.742188 333.855469-140.597657-140.597657c-7.523437-7.519531-7.523437-19.714843 0-27.238281l69.859375-69.859375c7.523438-7.519531 19.71875-7.519531 27.238282 0l140.597656 140.597656c7.519531 7.519532 7.519531 19.714844 0 27.238282l-69.859375 69.859375c-7.523438 7.519531-19.71875 7.519531-27.238281 0zm0 0" fill="#fce68d"/><path d="m318.742188 333.855469c7.519531 7.523437 19.714843 7.523437 27.238281 0l69.859375-69.859375c7.519531-7.523438 7.519531-19.71875 0-27.238282l-25.1875-25.1875c-48.1875 60.519532-76.832032 74.980469-114.410156 79.785157zm0 0" fill="#f0d87c"/><path d="m73.726562 470.683594-32.414062-32.410156c-2.527344-2.527344-2.527344-6.628907 0-9.15625l17.925781-17.925782 41.566407 41.570313-17.925782 17.921875c-2.527344 2.53125-6.625 2.53125-9.152344 0zm0 0" fill="#bebfc0"/><path d="m297.433594 312.546875-97.980469-97.980469-144.464844 162.539063c-7.882812 8.871093-7.488281 22.351562.90625 30.742187l48.257813 48.257813c8.390625 8.394531 21.871094 8.789062 30.742187.90625zm0 0" fill="#7397da"/><path d="m199.453125 214.566406-16.164063 18.1875 66.742188 66.738282c-64.601562 72.796874-122.054688 118.273437-166.472656 136.019531l20.59375 20.59375c8.390625 8.394531 21.871094 8.789062 30.742187.90625l162.539063-144.464844zm0 0" fill="#6988c4"/><path d="m493.359375 66.738281-48.097656-48.097656c-16.664063-16.664063-41.167969-22.753906-63.691407-15.832031-36.316406 11.164062-64.746093 39.59375-75.910156 75.910156l-11.25 36.605469 102.261719 102.265625 36.609375-11.253906c36.316406-11.160157 64.746094-39.589844 75.90625-75.90625 6.925781-22.523438.835938-47.027344-15.828125-63.691407zm0 0" fill="#495059"/><path d="m354.136719 175.054688 42.535156 42.535156 36.609375-11.25c36.316406-11.164063 64.746094-39.59375 75.90625-75.910156 6.148438-20.003907 2.023438-41.570313-10.648438-57.816407-24.351562 58.71875-92.027343 96.386719-144.402343 102.441407zm0 0" fill="#41464f"/><path d="m354.476562 86c0 4.210938-3.414062 7.625-7.621093 7.625-4.210938 0-7.625-3.414062-7.625-7.625s3.414062-7.621094 7.625-7.621094c4.207031 0 7.621093 3.410156 7.621093 7.621094zm0 0" fill="#41464f"/><path d="m423.421875 176.382812c0 4.210938-3.414063 7.625-7.625 7.625-4.207031 0-7.621094-3.414062-7.621094-7.625 0-4.210937 3.414063-7.621093 7.621094-7.621093 4.210937 0 7.625 3.410156 7.625 7.621093zm0 0" fill="#495059"/><path d="m480.109375 140.734375c0 4.207031-3.414063 7.621094-7.621094 7.621094-4.210937 0-7.625-3.414063-7.625-7.621094 0-4.210937 3.414063-7.625 7.625-7.625 4.207031 0 7.621094 3.414063 7.621094 7.625zm0 0" fill="#495059"/><g fill="#41464f"><path d="m361.761719 122.910156c0 4.210938-3.414063 7.625-7.621094 7.625-4.210937 0-7.625-3.414062-7.625-7.625 0-4.210937 3.414063-7.621094 7.625-7.621094 4.207031 0 7.621094 3.410157 7.621094 7.621094zm0 0"/><path d="m388.261719 93.625c0 4.207031-3.414063 7.621094-7.625 7.621094-4.210938 0-7.621094-3.414063-7.621094-7.621094 0-4.210938 3.410156-7.625 7.621094-7.625 4.210937 0 7.625 3.414062 7.625 7.625zm0 0"/><path d="m415.796875 29.628906c0 4.207032-3.410156 7.621094-7.621094 7.621094-4.210937 0-7.625-3.414062-7.625-7.621094 0-4.210937 3.414063-7.625 7.625-7.625 4.210938 0 7.621094 3.414063 7.621094 7.625zm0 0"/></g><path d="m365.210938 243.265625c0 22.070313-17.890626 39.964844-39.960938 39.964844s-39.964844-17.894531-39.964844-39.964844 17.894532-39.960937 39.964844-39.960937 39.960938 17.890624 39.960938 39.960937zm0 0" fill="#eb8d9a"/><path d="m353.507812 271.523438c8.3125-8.308594 12.195313-19.371094 11.652344-30.253907-19.398437 20.589844-35.757812 32.753907-51.910156 40.113281 13.746094 4.3125 29.363281 1.035157 40.257812-9.859374zm0 0" fill="#d67c88"/><path d="m262.761719 211.757812c-1.921875 0-3.839844-.730468-5.304688-2.195312l-33.292969-33.292969c-2.929687-2.929687-2.929687-7.679687 0-10.609375 2.929688-2.929687 7.675782-2.929687 10.605469 0l33.292969 33.292969c2.929688 2.929687 2.929688 7.679687 0 10.609375-1.460938 1.464844-3.382812 2.195312-5.300781 2.195312zm0 0" fill="#495059"/><path d="m286.242188 188.277344c-1.917969 0-3.839844-.730469-5.304688-2.199219l-16.644531-16.644531c-2.929688-2.929688-2.929688-7.679688 0-10.609375 2.929687-2.929688 7.679687-2.925781 10.605469 0l16.648437 16.648437c2.929687 2.929688 2.929687 7.679688-.003906 10.605469-1.460938 1.464844-3.382813 2.199219-5.300781 2.199219zm0 0" fill="#495059"/><path d="m194.734375 403.824219 27.058594-24.050781-89.566407-89.566407-24.050781 27.058594zm0 0" fill="#80bbe6"/><path d="m194.734375 403.824219 27.058594-24.050781-24.90625-24.910157c-9.160157 8.730469-18.113281 16.820313-26.839844 24.273438zm0 0" fill="#76acd4"/></svg>