<?xml version="1.0" encoding="iso-8859-1"?>
<!-- Generator: Adobe Illustrator 19.0.0, SVG Export Plug-In . SVG Version: 6.00 Build 0)  -->
<svg version="1.1" id="Capa_1" xmlns="http://www.w3.org/2000/svg" xmlns:xlink="http://www.w3.org/1999/xlink" x="0px" y="0px"
	 viewBox="0 0 512 512" style="enable-background:new 0 0 512 512;" xml:space="preserve">
<path style="fill:#A0E557;" d="M126,182.757H58c-26.51,0-48,21.49-48,48v69.89c0,23.196,18.804,42,42,42h80
	c23.196,0,42-18.804,42-42v-69.89C174,204.248,152.51,182.757,126,182.757z"/>
<rect x="52" y="320.7" style="fill:#6A80FF;" width="80" height="181.3"/>
<rect x="52" y="235" style="fill:#A0E557;" width="80" height="85.7"/>
<g>
	<path style="fill:#FCC69D;" d="M92,95.781L92,95.781c-20.487,0-37.095,16.608-37.095,37.095v12.786
		c0,20.487,16.608,37.095,37.095,37.095l0,0c20.487,0,37.095-16.608,37.095-37.095v-12.786
		C129.095,112.389,112.487,95.781,92,95.781z"/>
	<path style="fill:#FCC69D;" d="M174,10L174,10c-20.487,0-37.095,16.608-37.095,37.095v12.786c0,20.487,16.608,37.095,37.095,37.095
		l0,0c20.487,0,37.095-16.608,37.095-37.095V47.095C211.095,26.608,194.487,10,174,10z"/>
	<path style="fill:#FCC69D;" d="M338,10L338,10c-20.487,0-37.095,16.608-37.095,37.095v12.786c0,20.487,16.608,37.095,37.095,37.095
		l0,0c20.487,0,37.095-16.608,37.095-37.095V47.095C375.095,26.608,358.487,10,338,10z"/>
</g>
<path style="fill:#FFC66C;" d="M290,182.757h-68c-26.51,0-48,21.49-48,48v69.89c0,23.196,18.804,42,42,42h80
	c23.196,0,42-18.804,42-42v-69.89C338,204.248,316.51,182.757,290,182.757z"/>
<rect x="216" y="320.7" style="fill:#6A80FF;" width="80" height="181.3"/>
<rect x="216" y="235" style="fill:#FFC66C;" width="80" height="85.7"/>
<path style="fill:#FCC69D;" d="M256,95.781L256,95.781c-20.487,0-37.095,16.608-37.095,37.095v12.786
	c0,20.487,16.608,37.095,37.095,37.095l0,0c20.487,0,37.095-16.608,37.095-37.095v-12.786
	C293.095,112.389,276.487,95.781,256,95.781z"/>
<path style="fill:#72D8FF;" d="M454,182.757h-68c-26.51,0-48,21.49-48,48v69.89c0,23.196,18.804,42,42,42h80
	c23.196,0,42-18.804,42-42v-69.89C502,204.248,480.51,182.757,454,182.757z"/>
<rect x="380" y="320.7" style="fill:#6A80FF;" width="80" height="181.3"/>
<rect x="380" y="235" style="fill:#72D8FF;" width="80" height="85.7"/>
<path style="fill:#FCC69D;" d="M420,95.781L420,95.781c-20.487,0-37.095,16.608-37.095,37.095v12.786
	c0,20.487,16.608,37.095,37.095,37.095l0,0c20.487,0,37.095-16.608,37.095-37.095v-12.786
	C457.095,112.389,440.487,95.781,420,95.781z"/>
<path d="M52,225c-2.63,0-5.21,1.07-7.07,2.93C43.07,229.79,42,232.37,42,235s1.069,5.21,2.93,7.07S49.37,245,52,245
	s5.21-1.07,7.069-2.93C60.93,240.21,62,237.63,62,235s-1.07-5.21-2.931-7.07C57.21,226.07,54.63,225,52,225z"/>
<path d="M174,106.977c25.969,0,47.096-21.127,47.096-47.095V47.095C221.096,21.127,199.969,0,174,0s-47.096,21.127-47.096,47.095
	v12.787C126.904,85.85,148.031,106.977,174,106.977z M146.904,47.095C146.904,32.155,159.06,20,174,20s27.096,12.155,27.096,27.095
	v12.787c0,14.94-12.155,27.095-27.096,27.095s-27.096-12.155-27.096-27.095L146.904,47.095L146.904,47.095z"/>
<path d="M338,106.977c25.969,0,47.096-21.127,47.096-47.095V47.095C385.096,21.127,363.969,0,338,0s-47.096,21.127-47.096,47.095
	v12.787C290.904,85.85,312.031,106.977,338,106.977z M310.904,47.095C310.904,32.155,323.06,20,338,20s27.096,12.155,27.096,27.095
	v12.787c0,14.94-12.155,27.095-27.096,27.095s-27.096-12.155-27.096-27.095V47.095z"/>
<path d="M458.356,172.938c5.494-7.703,8.739-17.115,8.739-27.276v-12.786c0-25.968-21.127-47.095-47.096-47.095
	s-47.096,21.127-47.096,47.095v12.786c0,10.161,3.246,19.573,8.739,27.276c-18.131,1.354-33.969,11.065-43.644,25.3
	c-9.675-14.235-25.513-23.945-43.644-25.3c5.494-7.703,8.739-17.115,8.739-27.276v-12.786c0-25.968-21.127-47.095-47.096-47.095
	s-47.096,21.127-47.096,47.095v12.786c0,10.161,3.246,19.573,8.739,27.276c-18.131,1.354-33.969,11.065-43.644,25.3
	c-9.675-14.235-25.513-23.945-43.644-25.3c5.494-7.703,8.739-17.115,8.739-27.276v-12.786c0-25.968-21.127-47.095-47.096-47.095
	s-47.096,21.127-47.096,47.095v12.786c0,10.161,3.246,19.573,8.739,27.276C23.691,175.175,0,200.243,0,230.757v69.891
	c0,25.252,18.097,46.348,42,51.025V502c0,5.523,4.478,10,10,10h80c5.522,0,10-4.477,10-10V351.673
	c13.078-2.559,24.412-10.032,32-20.416c7.588,10.383,18.922,17.857,32,20.416V502c0,5.523,4.478,10,10,10h80c5.522,0,10-4.477,10-10
	V351.673c13.078-2.559,24.412-10.032,32-20.416c7.588,10.383,18.922,17.857,32,20.416V502c0,5.523,4.478,10,10,10h80
	c5.522,0,10-4.477,10-10v-51c0-5.523-4.478-10-10-10s-10,4.477-10,10v41h-20V371c0-5.523-4.478-10-10-10s-10,4.477-10,10v121h-20
	V330.701h60V371c0,5.523,4.478,10,10,10s10-4.477,10-10v-19.327c23.903-4.676,42-25.773,42-51.025v-69.891
	C512,200.243,488.309,175.175,458.356,172.938z M392.904,132.876c0-14.94,12.155-27.095,27.096-27.095s27.096,12.155,27.096,27.095
	v12.786c0,14.94-12.155,27.095-27.096,27.095s-27.096-12.155-27.096-27.095V132.876z M228.904,132.876
	c0-14.94,12.155-27.095,27.096-27.095c14.941,0,27.096,12.155,27.096,27.095v12.786c0,14.94-12.155,27.095-27.096,27.095
	s-27.096-12.155-27.096-27.095L228.904,132.876L228.904,132.876z M64.904,132.876c0-14.94,12.155-27.095,27.096-27.095
	s27.096,12.155,27.096,27.095v12.786c0,14.94-12.155,27.095-27.096,27.095s-27.096-12.155-27.096-27.095V132.876z M122,492h-20V371
	c0-5.523-4.478-10-10-10s-10,4.477-10,10v121H62V330.701h60V492z M142,331.039V235c0-5.523-4.478-10-10-10s-10,4.477-10,10v75.701
	H62V271c0-5.523-4.478-10-10-10s-10,4.477-10,10v60.039c-12.761-4.21-22-16.238-22-30.391v-69.891c0-20.953,17.047-38,38-38h68
	c20.953,0,38,17.047,38,38v69.891C164,314.801,154.761,326.829,142,331.039z M286,492h-20V371c0-5.523-4.478-10-10-10
	s-10,4.477-10,10v121h-20V330.701h60V492z M306,331.039V235c0-5.523-4.478-10-10-10s-10,4.477-10,10v75.701h-60V235
	c0-5.523-4.478-10-10-10s-10,4.477-10,10v96.039c-12.761-4.21-22-16.238-22-30.391v-69.891c0-20.953,17.047-38,38-38h68
	c20.953,0,38,17.047,38,38v69.891C328,314.801,318.761,326.829,306,331.039z M492,300.648c0,14.153-9.239,26.181-22,30.391v-10.338
	V235c0-5.523-4.478-10-10-10s-10,4.477-10,10v75.701h-60V235c0-5.523-4.478-10-10-10s-10,4.477-10,10v96.039
	c-12.761-4.21-22-16.238-22-30.391v-69.891c0-20.953,17.047-38,38-38h68c20.953,0,38,17.047,38,38V300.648z"/>
<path d="M460,401.35c-2.63,0-5.21,1.07-7.07,2.93s-2.93,4.44-2.93,7.07c0,2.64,1.069,5.21,2.93,7.07s4.44,2.93,7.07,2.93
	s5.21-1.07,7.069-2.93c1.86-1.86,2.931-4.44,2.931-7.07s-1.07-5.21-2.931-7.07C465.21,402.42,462.64,401.35,460,401.35z"/>
<g>
</g>
<g>
</g>
<g>
</g>
<g>
</g>
<g>
</g>
<g>
</g>
<g>
</g>
<g>
</g>
<g>
</g>
<g>
</g>
<g>
</g>
<g>
</g>
<g>
</g>
<g>
</g>
<g>
</g>
</svg>
