<?xml version="1.0" encoding="iso-8859-1"?>
<!-- Generator: Adobe Illustrator 21.0.0, SVG Export Plug-In . SVG Version: 6.00 Build 0)  -->
<svg xmlns="http://www.w3.org/2000/svg" xmlns:xlink="http://www.w3.org/1999/xlink" version="1.1" id="Capa_1" x="0px" y="0px" viewBox="0 0 512 512" style="enable-background:new 0 0 512 512;" xml:space="preserve" width="512" height="512">
<g>
	<path style="fill-rule:evenodd;clip-rule:evenodd;fill:#FCC568;" d="M228.809,29.314c-4.385,23.682,0.498,32.874,9.924,42.663   l-0.363,20.959c0,0-17.377,4.541-29.764,10.008c-12.387,5.467-30.581,29.351-35.295,54.004l21.652,9.063l22.245-24.739   c0,0,1.811,30.817,9.063,47.493c7.251,16.677-18.857,31.18-15.232,71.785c3.203,35.877,24.23,128.908,29.084,150.091h16.167h16.167   c4.854-21.183,25.881-114.214,29.084-150.091c3.625-40.605-22.482-55.108-15.231-71.785c7.251-16.676,9.063-47.493,9.063-47.493   l22.244,24.739l21.652-9.063c-4.714-24.653-22.908-48.537-35.295-54.004c-12.387-5.467-29.764-10.008-29.764-10.008l-0.362-20.959   c9.426-9.789,14.308-18.982,9.923-42.663C281.545,17.29,268.888,10.319,256.29,10C243.694,10.319,231.035,17.29,228.809,29.314z"/>
	<polygon style="fill-rule:evenodd;clip-rule:evenodd;fill:#F86CA9;" points="194.731,410.64 317.27,410.64 317.27,456.32    349.975,456.32 349.975,502 162.026,502 162.026,456.32 194.731,456.32  "/>
	<rect x="75.887" y="261.117" style="fill-rule:evenodd;clip-rule:evenodd;fill:#C4C4C4;" width="30.464" height="240.883"/>
	<rect x="405.649" y="261.117" style="fill-rule:evenodd;clip-rule:evenodd;fill:#C4C4C4;" width="30.465" height="240.883"/>
	<g>
		<path style="fill-rule:evenodd;clip-rule:evenodd;" d="M436.113,251.117h-30.465c-5.522,0-10,4.477-10,10v33.077    c-32.378,18.267-64.104,30.369-95.664,36.321c5.359-26.766,10.097-53.171,11.517-69.077c2.251-25.21-5.729-41.532-11.555-53.449    c-4.172-8.533-5.744-12.3-4.466-15.238c3.499-8.047,5.823-18.74,7.333-28.249l7.367,8.194c2.844,3.162,7.374,4.179,11.298,2.539    l21.652-9.063c4.362-1.826,6.849-6.458,5.961-11.103c-5.39-28.186-25.592-54.439-41.079-61.274    c-7.884-3.479-17.464-6.549-23.932-8.466l-0.165-9.54c9.773-11.258,14.249-23.664,9.688-48.297    c-2.909-15.708-18.149-27.011-37.061-27.489c-0.17-0.005-0.336-0.005-0.506,0c-18.912,0.478-34.152,11.782-37.062,27.49    c-4.561,24.632-0.084,37.038,9.689,48.296l-0.165,9.54c-6.468,1.916-16.048,4.986-23.933,8.466    c-15.487,6.835-35.689,33.088-41.079,61.274c-0.888,4.645,1.599,9.276,5.961,11.103l21.652,9.063    c3.928,1.642,8.455,0.623,11.297-2.539l7.369-8.194c1.509,9.509,3.834,20.202,7.333,28.249c1.277,2.938-0.295,6.706-4.467,15.24    c-1.324,2.71-2.826,5.781-4.27,9.121c-2.19,5.069,0.144,10.955,5.213,13.146c5.068,2.191,10.954-0.143,13.146-5.212    c1.257-2.91,2.59-5.635,3.878-8.27c4.88-9.981,9.925-20.302,4.84-31.999c-5.352-12.308-7.771-36.003-8.251-44.092    c-0.236-4.027-2.87-7.518-6.678-8.851c-3.807-1.335-8.045-0.248-10.74,2.752l-17.498,19.459l-7.161-2.997    c6.018-19.013,19.643-35.475,27.53-38.955c11.486-5.069,28.089-9.438,28.256-9.481c4.337-1.135,7.391-5.019,7.468-9.502    l0.363-20.959c0.046-2.646-0.959-5.203-2.795-7.109c-7.083-7.356-11.108-13.309-7.294-33.906    c1.277-6.896,9.994-10.856,17.648-11.13c7.654,0.274,16.371,4.233,17.648,11.13c3.814,20.599-0.211,26.551-7.293,33.906    c-1.836,1.906-2.841,4.463-2.795,7.109l0.362,20.959c0.077,4.483,3.131,8.367,7.468,9.502c0.167,0.043,16.77,4.412,28.256,9.481    c7.887,3.48,21.513,19.942,27.53,38.955l-7.161,2.997l-17.497-19.459c-2.696-3-6.932-4.085-10.737-2.752    c-3.808,1.332-6.441,4.821-6.681,8.848c-0.48,8.092-2.899,31.787-8.252,44.096c-5.085,11.696-0.039,22.017,4.84,31.997    c5.323,10.888,11.357,23.229,9.603,42.886c-1.466,16.422-6.851,45.538-12.634,73.918c-15.074,1.538-30.137,1.667-45.239,0.389    c-2.464-12.084-4.855-24.302-6.907-35.636c-0.984-5.435-6.189-9.043-11.621-8.059c-5.435,0.984-9.043,6.186-8.059,11.621    c1.701,9.395,3.631,19.382,5.642,29.397c-31.689-5.392-63.663-16.938-96.412-34.64v-35.533c0-5.523-4.478-10-10-10H75.887    c-5.522,0-10,4.477-10,10V502c0,5.523,4.478,10,10,10h30.464c5.522,0,10-4.477,10-10V319.233    c34.141,17.343,67.433,28.21,100.679,32.831c3.967,18.918,7.848,36.469,10.571,48.576h-32.87c-5.522,0-10,4.477-10,10v35.68    h-22.705c-5.523,0-10,4.477-10,10V502c0,5.523,4.477,10,10,10h187.949c5.522,0,10-4.477,10-10V456.32c0-5.523-4.478-10-10-10    H327.27v-35.68c0-5.523-4.478-10-10-10h-32.287c2.867-12.733,6.77-30.385,10.716-49.221c33.131-5.161,66.188-16.557,99.95-34.431    V502c0,5.523,4.478,10,10,10h30.465c5.522,0,10-4.477,10-10V261.117C446.113,255.594,441.636,251.117,436.113,251.117z     M85.887,492V271.117h10.464v31.304c0,0.017,0,0.034,0,0.051V492H85.887z M317.27,466.32h22.705V492H172.026V466.32h22.705    c5.522,0,10-4.477,10-10v-35.68h35.393h32.334h34.813v35.68C307.27,461.843,311.747,466.32,317.27,466.32z M264.478,400.64    h-16.375c-2.437-10.769-6.214-27.708-10.196-46.499c5.423,0.329,10.848,0.503,16.28,0.503c0.625,0,1.258-0.002,1.883-0.007    c6.233-0.043,12.451-0.307,18.661-0.782C270.687,372.948,266.864,390.086,264.478,400.64z M426.113,492h-10.465V271.117h10.465    V492z"/>
		<path style="fill-rule:evenodd;clip-rule:evenodd;" d="M221.039,260.549c0-5.508-4.492-10-10-10s-10,4.492-10,10    c0,5.508,4.492,10,10,10S221.039,266.057,221.039,260.549z"/>
	</g>
</g>















</svg>
