<svg height="464pt" viewBox="0 0 464 464" width="464pt" xmlns="http://www.w3.org/2000/svg"><path d="m464 232c0 128.128906-103.871094 232-232 232s-232-103.871094-232-232 103.871094-232 232-232 232 103.871094 232 232zm0 0" fill="#394d5c"/><path d="m232 440v-16c105.988281-.125 191.875-86.011719 192-192h16c-.132812 114.820312-93.179688 207.867188-208 208zm0 0" fill="#98a1a1"/><path d="m232 408v-16c88.324219-.101562 159.898438-71.675781 160-160h16c-.109375 97.15625-78.84375 175.890625-176 176zm0 0" fill="#98a1a1"/><path d="m336 232c0 57.4375-46.5625 104-104 104s-104-46.5625-104-104 46.5625-104 104-104 104 46.5625 104 104zm0 0" fill="#98a1a1"/><path d="m296 232c0 35.347656-28.652344 64-64 64s-64-28.652344-64-64 28.652344-64 64-64 64 28.652344 64 64zm0 0" fill="#394d5c"/><path d="m256 232c0 13.253906-10.746094 24-24 24s-24-10.746094-24-24 10.746094-24 24-24 24 10.746094 24 24zm0 0" fill="#fff"/><path d="m424 200h16v16h-16zm0 0" fill="#98a1a1"/><path d="m0 0h232v464h-232zm0 0" fill="#dd3e46"/><path d="m32 0h48v464h-48zm0 0" fill="#d3843d"/><g fill="#f98c96"><path d="m147.574219 119.160156-7.148438-14.320312 11.574219-5.785156v-41.613282l56-11.203125v54.707031l-20.425781 10.214844-7.148438-14.320312 11.574219-5.785156v-25.292969l-24 4.796875v38.386718zm0 0"/><path d="m107.574219 191.160156-7.148438-14.320312 11.574219-5.785156v-32l20.425781-10.214844 7.148438 14.320312-11.574219 5.785156v32zm0 0"/><path d="m104 352h16v16h-16zm0 0"/><path d="m136 352h56v16h-56zm0 0"/><path d="m104 384h64v16h-64zm0 0"/><path d="m184 384h24v16h-24zm0 0"/></g></svg>