<?xml version="1.0" encoding="iso-8859-1"?>
<!-- Generator: Adobe Illustrator 19.0.0, SVG Export Plug-In . SVG Version: 6.00 Build 0)  -->
<svg version="1.1" id="Capa_1" xmlns="http://www.w3.org/2000/svg" xmlns:xlink="http://www.w3.org/1999/xlink" x="0px" y="0px"
	 viewBox="0 0 512 512" style="enable-background:new 0 0 512 512;" xml:space="preserve">
<circle style="fill:#FFD4B0;" cx="256" cy="51.2" r="42.667"/>
<path style="fill:#4DB5FF;" d="M187.733,204.8v-68.267c0-9.429,7.637-17.067,17.067-17.067h34.133L256,136.533l17.067-17.067H307.2
	c9.429,0,17.067,7.637,17.067,17.067V204.8c0,9.429-7.637,17.067-17.067,17.067H204.8
	C195.371,221.867,187.733,214.229,187.733,204.8z"/>
<g>
	<path style="fill:#235087;" d="M93.867,264.533c-4.71,0-8.533-3.823-8.533-8.533c0-2.261,0.896-4.429,2.5-6.033l59.733-59.733
		c3.388-3.277,8.789-3.183,12.066,0.213c3.191,3.311,3.191,8.55,0,11.853L99.9,262.033
		C98.304,263.637,96.128,264.533,93.867,264.533z"/>
	<path style="fill:#235087;" d="M418.133,264.533c-2.261,0-4.437-0.896-6.033-2.5L352.367,202.3
		c-3.277-3.388-3.183-8.789,0.213-12.066c3.311-3.191,8.55-3.191,11.853,0l59.733,59.733c3.328,3.337,3.328,8.738,0,12.066
		C422.562,263.637,420.395,264.533,418.133,264.533z"/>
	<path style="fill:#235087;" d="M332.8,460.8H179.2c-4.71,0-8.533-3.823-8.533-8.533s3.823-8.533,8.533-8.533h153.6
		c4.71,0,8.533,3.823,8.533,8.533S337.51,460.8,332.8,460.8z"/>
</g>
<path style="fill:#3596D8;" d="M196.267,204.8c-2.884,0-5.7-0.256-8.533-0.427v0.427c0,9.429,7.637,17.067,17.067,17.067h102.4
	c9.429,0,17.067-7.637,17.067-17.067v-68.267c-0.009-4.079-1.485-8.013-4.156-11.093C297.847,173.781,249.498,204.766,196.267,204.8
	z"/>
<path style="fill:#EF2648;" d="M8.533,486.4v-68.267c0-9.429,7.637-17.067,17.067-17.067h34.133L76.8,418.133l17.067-17.067H128
	c9.429,0,17.067,7.637,17.067,17.067V486.4c0,9.429-7.637,17.067-17.067,17.067H25.6C16.171,503.467,8.533,495.829,8.533,486.4z"/>
<path style="fill:#B20D24;" d="M17.067,486.4c-2.884,0-5.7-0.256-8.533-0.427v0.427c0,9.429,7.637,17.067,17.067,17.067H128
	c9.429,0,17.067-7.637,17.067-17.067v-68.267c-0.009-4.079-1.485-8.013-4.156-11.093C118.647,455.381,70.298,486.366,17.067,486.4z"
	/>
<path style="fill:#FFA511;" d="M366.933,486.4v-68.267c0-9.429,7.637-17.067,17.067-17.067h34.133l17.067,17.067l17.067-17.067
	H486.4c9.429,0,17.067,7.637,17.067,17.067V486.4c0,9.429-7.637,17.067-17.067,17.067H384
	C374.571,503.467,366.933,495.829,366.933,486.4z"/>
<path style="fill:#F08015;" d="M375.467,486.4c-2.884,0-5.7-0.256-8.533-0.427v0.427c0,9.429,7.637,17.067,17.067,17.067h102.4
	c9.429,0,17.067-7.637,17.067-17.067v-68.267c-0.009-4.079-1.485-8.013-4.156-11.093C477.047,455.381,428.698,486.366,375.467,486.4
	z"/>
<path style="fill:#EDC4A2;" d="M281.498,17.169c14.182,18.697,10.522,45.346-8.166,59.529c-15.181,11.52-36.181,11.52-51.362,0
	c14.02,18.859,40.67,22.784,59.529,8.772c18.859-14.012,22.784-40.67,8.772-59.529C287.787,22.605,284.834,19.644,281.498,17.169z"
	/>
<circle style="fill:#FFD4B0;" cx="435.2" cy="332.8" r="42.667"/>
<path style="fill:#EDC4A2;" d="M460.698,298.769c14.182,18.697,10.522,45.346-8.166,59.529c-15.181,11.52-36.181,11.52-51.362,0
	c14.02,18.859,40.67,22.784,59.529,8.772c18.859-14.012,22.784-40.67,8.772-59.529C466.987,304.205,464.034,301.244,460.698,298.769
	z"/>
<circle style="fill:#FFD4B0;" cx="76.8" cy="332.8" r="42.667"/>
<path style="fill:#EDC4A2;" d="M102.298,298.769c14.182,18.697,10.522,45.346-8.166,59.529c-15.181,11.52-36.181,11.52-51.362,0
	c14.02,18.859,40.67,22.784,59.529,8.772c18.859-14.02,22.784-40.67,8.772-59.529C108.587,304.205,105.634,301.244,102.298,298.769z
	"/>
<path d="M307.2,51.2C307.2,22.921,284.279,0,256,0c-28.279,0-51.2,22.921-51.2,51.2s22.921,51.2,51.2,51.2
	C284.262,102.374,307.174,79.462,307.2,51.2z M221.867,51.2c0-18.85,15.283-34.133,34.133-34.133
	c18.85,0,34.133,15.283,34.133,34.133S274.85,85.333,256,85.333C237.15,85.333,221.867,70.05,221.867,51.2z"/>
<path d="M179.2,136.533V204.8c0,14.14,11.46,25.6,25.6,25.6h102.4c14.14,0,25.6-11.46,25.6-25.6v-68.267
	c0-14.14-11.46-25.6-25.6-25.6h-37.666L256,124.467l-13.534-13.534H204.8C190.66,110.933,179.2,122.394,179.2,136.533z M256,148.599
	L276.599,128H307.2c4.71,0,8.533,3.823,8.533,8.533V204.8c0,4.71-3.823,8.533-8.533,8.533H204.8c-4.71,0-8.533-3.823-8.533-8.533
	v-68.267c0-4.71,3.823-8.533,8.533-8.533h30.601L256,148.599z"/>
<path d="M435.2,384c28.279,0,51.2-22.921,51.2-51.2s-22.921-51.2-51.2-51.2c-28.279,0-51.2,22.921-51.2,51.2
	C384.026,361.062,406.938,383.974,435.2,384z M435.2,298.667c18.85,0,34.133,15.283,34.133,34.133s-15.283,34.133-34.133,34.133
	s-34.133-15.283-34.133-34.133S416.35,298.667,435.2,298.667z"/>
<path d="M486.4,392.533h-37.666L435.2,406.067l-13.534-13.534H384c-14.14,0-25.6,11.46-25.6,25.6V486.4
	c0,14.14,11.46,25.6,25.6,25.6h102.4c14.14,0,25.6-11.46,25.6-25.6v-68.267C512,403.994,500.54,392.533,486.4,392.533z
	 M494.933,486.4c0,4.71-3.823,8.533-8.533,8.533H384c-4.71,0-8.533-3.823-8.533-8.533v-68.267c0-4.71,3.823-8.533,8.533-8.533
	h30.601l20.599,20.599l20.599-20.599H486.4c4.71,0,8.533,3.823,8.533,8.533V486.4z"/>
<path d="M25.6,332.8c0,28.279,22.921,51.2,51.2,51.2s51.2-22.921,51.2-51.2s-22.921-51.2-51.2-51.2
	C48.538,281.626,25.626,304.538,25.6,332.8z M110.933,332.8c0,18.85-15.283,34.133-34.133,34.133S42.667,351.65,42.667,332.8
	S57.95,298.667,76.8,298.667S110.933,313.95,110.933,332.8z"/>
<path d="M25.6,512H128c14.14,0,25.6-11.46,25.6-25.6v-68.267c0-14.14-11.46-25.6-25.6-25.6H90.334L76.8,406.067l-13.534-13.534H25.6
	c-14.14,0-25.6,11.46-25.6,25.6V486.4C0,500.54,11.46,512,25.6,512z M17.067,418.133c0-4.71,3.823-8.533,8.533-8.533h30.601
	L76.8,430.199L97.399,409.6H128c4.71,0,8.533,3.823,8.533,8.533V486.4c0,4.71-3.823,8.533-8.533,8.533H25.6
	c-4.71,0-8.533-3.823-8.533-8.533V418.133z"/>
<g>
</g>
<g>
</g>
<g>
</g>
<g>
</g>
<g>
</g>
<g>
</g>
<g>
</g>
<g>
</g>
<g>
</g>
<g>
</g>
<g>
</g>
<g>
</g>
<g>
</g>
<g>
</g>
<g>
</g>
</svg>
