<?xml version="1.0" encoding="iso-8859-1"?>
<!-- Generator: Adobe Illustrator 19.0.0, SVG Export Plug-In . SVG Version: 6.00 Build 0)  -->
<svg version="1.1" id="Capa_1" xmlns="http://www.w3.org/2000/svg" xmlns:xlink="http://www.w3.org/1999/xlink" x="0px" y="0px"
	 viewBox="0 0 496.485 496.485" style="enable-background:new 0 0 496.485 496.485;" xml:space="preserve">
<circle style="fill:#F16051;" cx="252.121" cy="247.467" r="244.364"/>
<circle style="fill:#FFFFFF;" cx="244.364" cy="300.994" r="50.424"/>
<path style="fill:#193651;" d="M244.364,358.4c-31.806,0-57.406-25.6-57.406-57.406s25.6-57.406,57.406-57.406
	s57.406,25.6,57.406,57.406C302.545,332.8,276.17,358.4,244.364,358.4z M244.364,258.327c-23.273,0-42.667,19.394-42.667,42.667
	c0,23.273,19.394,42.667,42.667,42.667s42.667-19.394,42.667-42.667C287.03,277.721,267.636,258.327,244.364,258.327z"/>
<path style="fill:#FFFFFF;" d="M66.715,312.63L66.715,312.63c-32.582,0-58.958,26.376-58.958,58.958v113.261h117.915V370.812
	C124.897,339.006,98.521,312.63,66.715,312.63z"/>
<path style="fill:#193651;" d="M66.715,304.873C30.255,304.873,0,334.352,0,371.588v113.261c0,3.879,3.103,7.758,7.758,7.758
	h117.915c3.879,0,7.758-3.103,7.758-7.758V370.812C132.655,334.352,103.176,304.873,66.715,304.873z M117.915,476.315h-102.4
	V370.812c0-27.927,23.273-51.2,51.2-51.2s51.2,23.273,51.2,51.2V476.315z"/>
<path style="fill:#E1E6E9;" d="M38.012,453.818v-83.006c0-15.515,12.412-27.927,27.927-27.927s27.927,12.412,27.927,27.927v83.006
	H38.012z"/>
<circle style="fill:#FFFFFF;" cx="75.248" cy="280.824" r="50.424"/>
<path style="fill:#193651;" d="M75.248,338.23c-31.806,0-57.406-25.6-57.406-57.406c0-31.806,25.6-57.406,57.406-57.406
	s57.406,25.6,57.406,57.406C132.655,312.63,107.055,338.23,75.248,338.23z M75.248,238.158c-23.273,0-42.667,19.394-42.667,42.667
	s19.394,42.667,42.667,42.667s42.667-19.394,42.667-42.667S98.521,238.158,75.248,238.158z"/>
<path style="fill:#FFFFFF;" d="M422.788,312.63L422.788,312.63c32.582,0,58.958,26.376,58.958,58.958v113.261H363.83V370.812
	C363.83,339.006,390.206,312.63,422.788,312.63z"/>
<path style="fill:#193651;" d="M422.788,304.873c-36.461,0-66.715,29.479-66.715,66.715v113.261c0,3.879,3.103,7.758,7.758,7.758
	H480.97c3.879,0,7.758-3.103,7.758-7.758V370.812C488.727,334.352,459.249,304.873,422.788,304.873z M473.212,476.315H371.588
	V370.812c0-27.927,23.273-51.2,51.2-51.2c27.927,0,51.2,23.273,51.2,51.2v105.503H473.212z"/>
<path style="fill:#E1E6E9;" d="M394.085,453.818v-83.006c0-15.515,12.412-27.927,27.927-27.927
	c15.515,0,27.927,12.412,27.927,27.927v83.006H394.085z"/>
<circle style="fill:#FFFFFF;" cx="413.479" cy="280.824" r="50.424"/>
<path style="fill:#193651;" d="M413.479,338.23c-31.806,0-57.406-25.6-57.406-57.406c0-31.806,25.6-57.406,57.406-57.406
	s57.406,25.6,57.406,57.406C471.661,312.63,445.285,338.23,413.479,338.23z M413.479,238.158c-23.273,0-42.667,19.394-42.667,42.667
	s19.394,42.667,42.667,42.667s42.667-19.394,42.667-42.667S437.527,238.158,413.479,238.158z"/>
<path style="fill:#FFFFFF;" d="M304.873,354.521c-14.739,16.291-36.461,27.151-59.733,27.151c-24.048,0-44.994-10.861-59.733-27.151
	c-16.291,6.982-27.927,23.273-27.927,42.667V486.4h176.097v-89.212C332.8,377.794,321.164,361.503,304.873,354.521z"/>
<path style="fill:#193651;" d="M332.8,493.382H155.927c-3.879,0-7.758-3.103-7.758-7.758v-88.436
	c0-21.721,13.188-41.115,32.582-49.648c3.103-1.552,6.206-0.776,8.533,2.327c13.964,15.515,33.358,24.824,54.303,24.824
	s40.339-8.533,54.303-24.824c2.327-2.327,5.43-3.103,8.533-2.327c20.17,8.533,32.582,27.927,32.582,49.648V486.4
	C340.558,490.279,336.679,493.382,332.8,493.382z M163.685,477.867h161.358v-80.679c0-13.964-6.982-26.376-18.618-32.582
	c-16.291,16.291-38.788,25.6-62.061,25.6s-44.994-9.309-62.061-25.6c-11.636,6.982-18.618,19.394-18.618,32.582V477.867z"/>
<path style="fill:#4FBF9F;" d="M186.958,455.37v-58.182v-0.776c17.067,10.861,37.236,16.291,57.406,16.291
	s40.339-5.43,57.406-16.291v0.776v58.182H186.958z"/>
<g>
	<rect x="199.37" y="425.891" style="fill:#193651;" width="15.515" height="15.515"/>
	<rect x="236.606" y="425.891" style="fill:#193651;" width="15.515" height="15.515"/>
	<rect x="274.618" y="425.891" style="fill:#193651;" width="15.515" height="15.515"/>
	<rect x="415.03" y="355.297" style="fill:#193651;" width="15.515" height="15.515"/>
	<rect x="415.03" y="390.982" style="fill:#193651;" width="15.515" height="15.515"/>
	<rect x="415.03" y="425.891" style="fill:#193651;" width="15.515" height="15.515"/>
</g>
<g>
	<rect x="58.958" y="355.297" style="fill:#193651;" width="15.515" height="15.515"/>
	<rect x="58.958" y="390.982" style="fill:#193651;" width="15.515" height="15.515"/>
	<rect x="58.958" y="425.891" style="fill:#193651;" width="15.515" height="15.515"/>
</g>
<path style="fill:#2EA2DB;" d="M64.388,93.091c0-43.442,44.218-78.352,98.521-78.352s99.297,34.909,99.297,78.352
	c0,38.012-34.909,69.818-80.679,76.8c-12.412,14.739-37.236,32.582-82.23,36.461c0,0,24.824-19.394,22.497-41.891
	C87.661,151.273,64.388,124.121,64.388,93.091z"/>
<path style="fill:#193651;" d="M99.297,213.333c-3.103,0-6.206-1.552-6.982-4.655c-1.552-3.103,0-6.982,2.327-8.533l0,0
	c0,0,18.618-13.964,19.394-31.03C79.127,154.376,56.63,124.897,56.63,93.091c0-47.321,48.097-85.333,106.279-85.333
	c58.958,0,106.279,38.788,106.279,85.333c0,40.339-34.909,75.248-83.782,83.782C171.442,191.612,145.842,209.455,99.297,213.333
	L99.297,213.333z M162.909,22.497c-50.424,0-91.539,31.806-91.539,70.594c0,27.152,20.945,51.976,52.752,63.612
	c3.103,0.776,4.655,3.103,4.655,6.206c1.552,12.412-3.879,24.048-10.085,32.582c29.479-6.206,46.545-19.394,55.855-31.03
	c1.552-1.552,3.103-2.327,4.655-2.327c42.667-6.206,73.697-35.685,73.697-69.042C254.448,54.303,213.333,22.497,162.909,22.497z"/>
<path style="fill:#FFFFFF;" d="M162.909,143.515c38.012,0,69.818-23.273,69.818-50.424s-31.806-50.424-69.818-50.424
	S93.091,65.939,93.091,93.091S124.897,143.515,162.909,143.515z"/>
<path style="fill:#FDBF5E;" d="M424.339,93.091c0-43.442-44.218-78.352-98.521-78.352s-98.521,34.909-98.521,78.352
	c0,38.012,34.909,69.818,80.679,76.8c12.412,14.739,37.236,32.582,82.23,36.461c0,0-24.824-19.394-22.497-41.891
	C401.067,151.273,424.339,124.121,424.339,93.091z"/>
<path style="fill:#193651;" d="M389.43,213.333L389.43,213.333c-46.545-3.879-72.145-21.721-86.109-37.236
	c-48.873-8.533-83.782-43.442-83.782-83.782c0-47.321,48.097-85.333,106.279-85.333c58.958,0,106.279,38.788,106.279,85.333
	c0,31.806-22.497,61.285-57.406,76.024c1.552,16.291,19.394,30.255,19.394,31.03c2.327,2.327,3.879,5.43,2.327,8.533
	C395.636,211.782,392.533,213.333,389.43,213.333z M325.818,22.497c-50.424,0-91.539,31.806-91.539,70.594
	c0,33.358,31.03,62.836,73.697,69.042c1.552,0,3.879,1.552,4.655,2.327c9.309,10.861,26.376,24.048,55.855,31.03
	c-6.206-8.533-10.861-19.394-10.085-32.582c0-3.103,2.327-5.43,4.655-6.206c31.806-11.636,52.751-36.461,52.751-63.612
	C417.358,54.303,376.242,22.497,325.818,22.497z"/>
<path style="fill:#FFFFFF;" d="M325.818,143.515c-38.012,0-69.818-23.273-69.818-50.424s31.806-50.424,69.818-50.424
	s69.818,23.273,69.818,50.424S363.83,143.515,325.818,143.515z"/>
<g>
	<circle style="fill:#193651;" cx="294.012" cy="93.091" r="8.533"/>
	<circle style="fill:#193651;" cx="325.818" cy="93.091" r="8.533"/>
	<circle style="fill:#193651;" cx="357.624" cy="93.091" r="8.533"/>
</g>
<g>
	<circle style="fill:#E1E6E9;" cx="131.103" cy="93.091" r="8.533"/>
	<circle style="fill:#E1E6E9;" cx="162.909" cy="93.091" r="8.533"/>
	<circle style="fill:#E1E6E9;" cx="194.715" cy="93.091" r="8.533"/>
</g>
<g>
</g>
<g>
</g>
<g>
</g>
<g>
</g>
<g>
</g>
<g>
</g>
<g>
</g>
<g>
</g>
<g>
</g>
<g>
</g>
<g>
</g>
<g>
</g>
<g>
</g>
<g>
</g>
<g>
</g>
</svg>
