<?xml version="1.0" encoding="iso-8859-1"?>
<!-- Generator: Adobe Illustrator 19.0.0, SVG Export Plug-In . SVG Version: 6.00 Build 0)  -->
<svg version="1.1" id="Capa_1" xmlns="http://www.w3.org/2000/svg" xmlns:xlink="http://www.w3.org/1999/xlink" x="0px" y="0px"
	 viewBox="0 0 504.123 504.123" style="enable-background:new 0 0 504.123 504.123;" xml:space="preserve">
<path style="fill:#2CA0DA;" d="M477.342,434.806l-62.228-33.871l-62.228,33.871c-11.815,6.302-18.905,18.905-18.905,32.295v29.145
	h163.052v-29.145C496.246,453.711,489.157,441.108,477.342,434.806z"/>
<path style="fill:#183651;" d="M496.246,504.123H333.194c-4.726,0-7.877-3.151-7.877-7.877v-29.145
	c0-16.542,8.665-31.508,22.843-39.385l62.228-33.871c2.363-1.575,5.514-1.575,7.877,0l62.228,33.871
	c14.178,7.877,22.843,22.843,22.843,39.385v29.145C504.123,500.972,500.972,504.123,496.246,504.123z M341.071,488.369h147.298
	v-21.268c0-10.24-5.514-20.48-14.966-25.206L414.326,409.6l-59.077,32.295c-9.452,4.726-14.966,14.966-14.966,25.206v21.268H341.071
	z"/>
<path style="fill:#FFFFFF;" d="M456.074,363.914c0,27.569-18.117,59.077-40.96,59.077s-40.96-30.72-40.96-59.077
	c0-28.357,18.117-41.748,40.96-41.748S456.074,336.345,456.074,363.914z"/>
<path style="fill:#183651;" d="M415.114,430.868c-27.569,0-48.837-35.446-48.837-66.954c0-29.932,19.692-49.625,48.837-49.625
	s48.837,19.692,48.837,49.625C463.951,395.422,442.683,430.868,415.114,430.868z M415.114,330.831
	c-20.48,0-33.083,12.603-33.083,33.871c0,25.206,16.542,51.2,33.083,51.2s33.083-25.994,33.083-51.2
	C448.197,343.434,435.594,330.831,415.114,330.831z"/>
<path style="fill:#F06151;" d="M314.289,434.806l-62.228-33.871l-62.228,33.871c-11.815,6.302-18.905,18.905-18.905,32.295v29.145
	h163.052v-29.145C333.194,453.711,326.105,441.108,314.289,434.806z"/>
<path style="fill:#183651;" d="M333.194,504.123H170.929c-4.726,0-7.877-3.151-7.877-7.877v-29.145
	c0-16.542,8.665-31.508,22.843-39.385l62.228-33.871c2.363-1.575,5.514-1.575,7.877,0l62.228,33.871
	c14.178,7.877,22.843,22.843,22.843,39.385v29.145C341.071,500.972,337.92,504.123,333.194,504.123z M178.806,488.369h147.298
	v-21.268c0-10.24-5.514-20.48-14.966-25.206L252.062,409.6l-59.077,32.295c-9.452,4.726-14.966,14.966-14.966,25.206v21.268H178.806
	z"/>
<path style="fill:#FFFFFF;" d="M293.022,363.914c0,27.569-18.117,59.077-40.96,59.077s-40.96-30.72-40.96-59.077
	c0-28.357,18.117-41.748,40.96-41.748S293.022,336.345,293.022,363.914z"/>
<path style="fill:#183651;" d="M252.062,430.868c-27.569,0-48.837-35.446-48.837-66.954c0-29.932,19.692-49.625,48.837-49.625
	c29.145,0,48.837,19.692,48.837,49.625C300.898,395.422,279.631,430.868,252.062,430.868z M252.062,330.831
	c-20.48,0-33.083,12.603-33.083,33.871c0,25.206,16.542,51.2,33.083,51.2s33.083-25.994,33.083-51.2
	C285.145,343.434,272.542,330.831,252.062,330.831z"/>
<path style="fill:#4FBF9F;" d="M152.025,434.806l-62.228-33.871l-62.228,33.871c-11.815,6.302-18.905,18.905-18.905,32.295v29.145
	h163.052v-29.145C170.929,453.711,163.052,441.108,152.025,434.806z"/>
<path style="fill:#183651;" d="M170.929,504.123H7.877c-4.726,0-7.877-3.151-7.877-7.877v-29.145
	c0-16.542,8.665-31.508,22.843-39.385l62.228-33.871c2.363-1.575,5.514-1.575,7.877,0l62.228,33.871
	c14.178,7.877,22.843,22.843,22.843,39.385v29.145C178.806,500.972,174.868,504.123,170.929,504.123z M15.754,488.369h147.298
	v-21.268c0-10.24-5.514-20.48-14.966-25.206L89.009,409.6l-59.077,32.295c-9.452,4.726-14.966,14.966-14.966,25.206v21.268H15.754z"
	/>
<path style="fill:#FFFFFF;" d="M129.969,363.914c0,27.569-18.117,59.077-40.96,59.077s-40.96-30.72-40.96-59.077
	c0-28.357,18.117-41.748,40.96-41.748S129.969,336.345,129.969,363.914z"/>
<path style="fill:#183651;" d="M89.009,430.868c-27.569,0-48.837-35.446-48.837-66.954c0-29.932,19.692-49.625,48.837-49.625
	s48.837,20.48,48.837,49.625C137.846,395.422,117.366,430.868,89.009,430.868z M89.009,330.831
	c-20.48,0-33.083,12.603-33.083,33.871c0,25.206,16.542,51.2,33.083,51.2s33.083-25.994,33.083-51.2
	C122.092,343.434,110.277,330.831,89.009,330.831z"/>
<path style="fill:#FFFFFF;" d="M29.932,190.622C15.754,171.717,7.877,148.086,7.877,122.88c0-63.803,51.2-115.003,115.003-115.003
	s115.003,51.2,115.003,115.003s-51.2,115.003-115.003,115.003c-14.966,0-28.357-3.151-41.748-7.877l-66.954,38.597L29.932,190.622z"
	/>
<path style="fill:#183651;" d="M10.24,274.905c-2.363-1.575-3.938-4.726-3.151-7.877l14.966-74.831
	C7.877,171.717,0.788,147.298,0.788,122.88C0.788,55.138,55.926,0,123.668,0s122.88,55.138,122.88,122.88
	s-55.138,122.88-122.88,122.88c-14.178,0-27.569-2.363-40.96-7.089l-63.803,37.022C15.754,277.268,12.603,277.268,10.24,274.905z
	 M122.88,15.754c-59.077,0-107.126,48.049-107.126,107.126c0,22.843,7.089,44.898,20.48,63.015c1.575,1.575,1.575,3.938,1.575,6.302
	l-11.815,61.44l51.988-29.932c2.363-1.575,4.726-1.575,7.089-0.788c12.603,4.726,25.206,7.089,38.597,7.089
	c59.077,0,107.126-48.049,107.126-107.126S181.957,15.754,122.88,15.754z"/>
<path style="fill:#FBBD5E;" d="M63.803,183.532l-7.877-11.028c-10.24-14.178-15.754-31.508-15.754-48.837
	c0-45.686,37.809-83.495,83.495-83.495s83.495,37.809,83.495,83.495s-37.809,82.708-84.283,82.708
	c-10.24,0-20.48-1.575-29.932-5.514l-14.178-5.514l-19.692,11.815L63.803,183.532z"/>
<path style="fill:#FFFFFF;" d="M474.191,190.622c14.178-18.905,22.055-42.535,22.055-67.742c0-63.803-51.2-115.003-115.003-115.003
	S266.24,59.077,266.24,122.88s51.2,115.003,115.003,115.003c14.966,0,28.357-3.151,41.748-7.877l66.954,38.597L474.191,190.622z"/>
<path style="fill:#183651;" d="M486.006,275.692l-63.803-37.022c-13.391,4.726-26.782,7.089-40.96,7.089
	c-67.742,0-122.88-55.138-122.88-122.88S313.502,0,381.243,0s122.88,55.138,122.88,122.88c0,25.206-7.089,48.837-21.268,69.317
	l14.966,74.831c0.788,3.151-0.788,6.302-3.151,7.877C491.52,277.268,488.369,277.268,486.006,275.692z M422.991,222.129
	c1.575,0,2.363,0,3.938,0.788l51.988,29.932l-11.815-61.44c-0.788-2.363,0-4.726,1.575-6.302
	c13.391-18.117,20.48-40.172,20.48-63.015c0-59.077-48.049-107.126-107.126-107.126S274.905,63.015,274.905,122.092
	s48.049,107.126,107.126,107.126c13.391,0,25.994-2.363,38.597-7.089C420.628,222.129,421.415,222.129,422.991,222.129z"/>
<path style="fill:#FBBD5E;" d="M425.354,195.348l-14.178,5.514c-9.452,3.938-19.692,5.514-29.932,5.514
	c-45.686,0-83.495-37.809-83.495-83.495s37.022-83.495,83.495-83.495s83.495,37.809,83.495,83.495
	c0,17.329-5.514,34.658-15.754,48.837l-7.877,11.028l4.726,23.631L425.354,195.348z"/>
<path style="fill:#FFFFFF;" d="M281.994,227.643c22.055-6.302,42.535-18.905,57.502-37.809
	c38.597-48.049,29.932-118.942-18.117-156.751C273.329-5.514,202.437,3.151,164.628,51.2
	c-38.597,47.262-30.72,118.154,18.117,155.963c11.028,8.665,23.631,14.966,36.234,18.905l27.569,70.105L281.994,227.643z"/>
<path style="fill:#183651;" d="M246.548,304.049c-3.151,0-5.514-2.363-7.089-4.726l-25.994-66.166
	c-12.603-4.726-24.418-11.028-35.446-18.905c-25.206-19.692-40.96-48.049-44.898-80.345s5.514-63.015,25.206-88.222
	C181.169,16.542,215.04,0,252.062,0c27.569,0,52.775,8.665,74.043,25.994c25.206,19.692,40.96,48.049,44.898,80.345
	c3.938,32.295-5.514,63.015-25.206,88.222c-14.966,18.905-35.446,33.083-58.289,40.172l-33.871,66.166
	C252.062,302.474,248.911,304.049,246.548,304.049z M252.062,15.754c-32.295,0-61.44,14.178-81.92,39.385
	c-17.329,22.055-25.206,48.837-22.055,76.406c3.151,27.569,17.329,51.988,38.597,69.317c10.24,7.877,21.268,14.178,33.871,18.117
	c2.363,0.788,3.938,2.363,4.726,4.726l21.268,53.563l27.569-53.563c0.788-1.575,3.151-3.151,4.726-3.938
	c21.268-6.302,40.172-18.117,53.563-35.446c17.329-22.055,25.206-48.837,22.055-76.406s-17.329-51.988-38.597-69.317
	C297.748,23.631,275.692,15.754,252.062,15.754z"/>
<path style="fill:#E1E6E7;" d="M242.609,200.862l-14.178-4.726c-9.452-3.151-18.117-7.877-25.994-13.391
	c-34.658-27.569-40.96-77.982-13.391-112.64c14.966-19.692,38.597-30.72,63.015-30.72c18.117,0,35.446,6.302,49.625,17.329
	c16.542,13.391,27.569,32.295,29.932,53.563c2.363,21.268-3.151,42.535-16.542,59.077c-10.24,13.391-25.206,22.843-41.748,27.569
	l-13.391,3.938l-10.24,19.692L242.609,200.862z"/>
<polygon style="fill:#173651;" points="264.665,70.105 225.28,122.092 252.062,122.092 237.095,158.326 278.843,107.914 
	252.062,107.126 "/>
<g>
	<rect x="296.96" y="84.283" style="fill:#183651;" width="15.754" height="15.754"/>
	<rect x="296.96" y="127.606" style="fill:#183651;" width="15.754" height="15.754"/>
	<rect x="191.409" y="84.283" style="fill:#183651;" width="15.754" height="15.754"/>
	<rect x="191.409" y="127.606" style="fill:#183651;" width="15.754" height="15.754"/>
	<rect x="59.077" y="114.215" style="fill:#183651;" width="15.754" height="15.754"/>
	<rect x="97.674" y="114.215" style="fill:#183651;" width="15.754" height="15.754"/>
	<rect x="390.695" y="114.215" style="fill:#183651;" width="15.754" height="15.754"/>
	<rect x="429.292" y="114.215" style="fill:#183651;" width="15.754" height="15.754"/>
</g>
<g>
</g>
<g>
</g>
<g>
</g>
<g>
</g>
<g>
</g>
<g>
</g>
<g>
</g>
<g>
</g>
<g>
</g>
<g>
</g>
<g>
</g>
<g>
</g>
<g>
</g>
<g>
</g>
<g>
</g>
</svg>
