<svg height="512pt" viewBox="0 0 512 512.00005" width="512pt" xmlns="http://www.w3.org/2000/svg"><path d="m456.816406 1.023438-448.707031 163.316406 21.101563 57.976562 448.707031-163.316406c8.777343-3.195312 13.304687-12.902344 10.109375-21.683594l-9.53125-26.179687c-3.191406-8.78125-12.902344-13.308594-21.679688-10.113281zm0 0" fill="#f0f0ef"/><path d="m8.109375 164.339844 21.101563 57.976562 225.300781-82.003906c-22.367188-10.027344-29.886719-31.160156-27.492188-55.648438zm0 0" fill="#e3e2e1"/><path d="m371.921875 31.921875 79.078125 36.875-81.363281 29.613281-79.078125-36.875zm0 0" fill="#495059"/><path d="m203.753906 93.132812 79.078125 36.875-81.363281 29.613282-79.078125-36.875zm0 0" fill="#495059"/><path d="m201.46875 159.621094 53.042969-19.308594c-16.136719-7.234375-24.542969-20.25-27.078125-36.140625l-23.679688-11.039063-81.363281 29.613282zm0 0" fill="#41464f"/><path d="m473.789062 512h-435.273437c-9.339844 0-16.914063-7.574219-16.914063-16.917969v-215.332031h469.105469v215.332031c0 9.34375-7.574219 16.917969-16.917969 16.917969zm0 0" fill="#495059"/><path d="m21.597656 495.082031c0 9.34375 7.574219 16.917969 16.917969 16.917969h268.085937c-100.367187-26.515625-122.371093-136.625-127.054687-206.605469h311.160156v-25.644531h-469.109375zm0 0" fill="#41464f"/><path d="m495.082031 218.050781h-494.777343v44.78125c0 9.34375 7.574218 16.917969 16.917968 16.917969h477.859375c9.34375 0 16.917969-7.574219 16.917969-16.917969v-27.863281c0-9.34375-7.574219-16.917969-16.917969-16.917969zm0 0" fill="#f0f0ef"/><path d="m.304688 218.050781v44.78125c0 9.34375 7.574218 16.917969 16.917968 16.917969h237.992188c-17.179688-14.914062-26.605469-34.992188-17.03125-61.699219zm0 0" fill="#e3e2e1"/><path d="m43.101562 156.355469h-26.183593c-9.34375 0-16.917969 7.574219-16.917969 16.917969v89.558593c0 9.34375 7.574219 16.917969 16.917969 16.917969h90.492187c6.769532 0 12.257813-5.488281 12.257813-12.257812v-11.828126c0-4.402343-1.351563-8.699218-3.871094-12.3125l-53.835937-77.160156c-4.300782-6.164062-11.34375-9.835937-18.859376-9.835937zm0 0" fill="#bebfc0"/><path d="m404.742188 279.75 61.695312-61.699219h-86.582031l-61.699219 61.699219zm0 0" fill="#495059"/><path d="m225.78125 279.75 61.695312-61.699219h-86.582031l-61.699219 61.699219zm0 0" fill="#495059"/><path d="m44.09375 187.203125c0 4.753906-3.851562 8.605469-8.605469 8.605469-4.75 0-8.601562-3.851563-8.601562-8.605469s3.851562-8.605469 8.601562-8.605469c4.753907 0 8.605469 3.851563 8.605469 8.605469zm0 0" fill="#495059"/><path d="m35.488281 255.085938c0 4.753906-3.851562 8.605468-8.601562 8.605468-4.753907 0-8.605469-3.851562-8.605469-8.605468 0-4.75 3.851562-8.605469 8.605469-8.605469 4.75 0 8.601562 3.855469 8.601562 8.605469zm0 0" fill="#495059"/><path d="m92.054688 255.085938c0 4.753906-3.851563 8.605468-8.605469 8.605468-4.75 0-8.605469-3.851562-8.605469-8.605468 0-4.75 3.855469-8.605469 8.605469-8.605469 4.753906 0 8.605469 3.855469 8.605469 8.605469zm0 0" fill="#495059"/><path d="m198.742188 363.507812c0-14.765624-15.03125-26.734374-33.570313-26.734374s-33.570313 11.96875-33.570313 26.734374c0 14.761719 15.03125 26.730469 33.570313 26.730469s33.570313-11.96875 33.570313-26.730469zm0 0" fill="#eb8d9a"/><path d="m380.703125 363.507812c0-14.765624-15.027344-26.734374-33.570313-26.734374-18.539062 0-33.570312 11.96875-33.570312 26.734374 0 14.761719 15.03125 26.730469 33.570312 26.730469 18.542969 0 33.570313-11.96875 33.570313-26.730469zm0 0" fill="#eb8d9a"/><g fill="#fff"><path d="m184.738281 344.335938c-4.144531 0-7.5-3.355469-7.5-7.5v-11.851563c0-4.144531 3.355469-7.5 7.5-7.5 4.140625 0 7.5 3.355469 7.5 7.5v11.851563c0 4.144531-3.359375 7.5-7.5 7.5zm0 0"/><path d="m327.570312 344.335938c-4.144531 0-7.5-3.355469-7.5-7.5v-11.851563c0-4.144531 3.355469-7.5 7.5-7.5 4.140626 0 7.5 3.355469 7.5 7.5v11.851563c0 4.144531-3.359374 7.5-7.5 7.5zm0 0"/><path d="m256.152344 353.441406c-9.382813 0-18.308594-4.066406-24.480469-11.152344-2.722656-3.121093-2.398437-7.859374.726563-10.578124 3.121093-2.722657 7.859374-2.398438 10.582031.722656 3.324219 3.816406 8.125 6.007812 13.171875 6.007812s9.851562-2.191406 13.175781-6.007812c2.722656-3.121094 7.460937-3.449219 10.582031-.722656 3.121094 2.71875 3.449219 7.457031.726563 10.578124-6.175781 7.085938-15.101563 11.152344-24.484375 11.152344zm0 0"/><path d="m256.152344 480.011719c-4.140625 0-7.5-3.359375-7.5-7.5v-56.269531c0-4.140626 3.359375-7.5 7.5-7.5 4.144531 0 7.5 3.359374 7.5 7.5v56.269531c0 4.140625-3.355469 7.5-7.5 7.5zm0 0"/><path d="m422.472656 451.878906h-166.320312c-4.140625 0-7.5-3.359375-7.5-7.5 0-4.144531 3.359375-7.5 7.5-7.5h166.320312c4.144532 0 7.5 3.355469 7.5 7.5 0 4.140625-3.355468 7.5-7.5 7.5zm0 0"/><path d="m220.902344 480.011719h-128.324219c-4.144531 0-7.5-3.359375-7.5-7.5s3.355469-7.5 7.5-7.5h128.324219c4.140625 0 7.5 3.359375 7.5 7.5s-3.359375 7.5-7.5 7.5zm0 0"/><path d="m220.902344 423.742188h-128.324219c-4.144531 0-7.5-3.355469-7.5-7.5 0-4.140626 3.355469-7.5 7.5-7.5h128.324219c4.140625 0 7.5 3.359374 7.5 7.5 0 4.144531-3.359375 7.5-7.5 7.5zm0 0"/></g><path d="m238.183594 218.050781h-37.289063l-61.699219 61.699219h86.585938l15.78125-15.785156c-7.605469-12.519532-9.917969-27.671875-3.378906-45.914063zm0 0" fill="#41464f"/></svg>