<svg height="504pt" viewBox="-8 0 504 504" width="504pt" xmlns="http://www.w3.org/2000/svg"><path d="m440 424c-18.3125-6.878906-53.191406-20.320312-77.441406-33.359375-4.160156-2.242187-8-4.488281-11.359375-6.640625-1.933594-1.222656-3.6875-2.441406-5.3125-3.640625v-67.023437h-203.765625v67.023437c-1.625 1.199219-3.386719 2.417969-5.3125 3.640625-3.359375 2.160156-7.191406 4.398438-11.359375 6.640625-24.25 13.039063-59.121094 26.480469-77.449219 33.359375-32 11.921875-48 24-48 56v24h488c0-2 0-8 0-24 0-32-16-44.078125-48-56zm0 0" fill="#e5b6a8"/><path d="m244.046875 431.105469c-83.605469 0-106.375-47.113281-107.292969-49.121094-1.859375-4.007813-.113281-8.769531 3.894532-10.617187 3.992187-1.855469 8.726562-.136719 10.589843 3.847656.824219 1.695312 20.128907 39.882812 92.808594 39.882812 72.746094 0 91.953125-38.257812 92.738281-39.882812 1.910156-3.949219 6.671875-5.664063 10.628906-3.808594 3.976563 1.875 5.714844 6.570312 3.875 10.5625-.929687 2.015625-23.625 49.136719-107.242187 49.136719zm0 0" fill="#edab37"/><path d="m416.015625 56s-22.800781-17.679688-60.488281-33.199219c-21.03125-8.640625-46.550782-16.5625-75.4375-20.402343-11.515625-1.519532-23.585938-2.398438-36.074219-2.398438-100 0-172 56-172 56s32 48 32 96h132v-35.679688h.230469c-.390625-5.28125-12.230469-35.441406-12.230469-40.320312 0-6.640625 8.960937-12 20-12s20 5.359375 20 12c0 4.878906-12 36-12 40.320312v35.679688h132c0-48 32-96 32-96zm0 0" fill="#ffce54"/><path d="m275.3125 75.335938 3.992188-73.015626c-11.289063-1.457031-23.089844-2.320312-35.289063-2.320312-12.183594 0-23.953125.855469-35.222656 2.320312l8.117187 149.679688h54.273438zm0 0" fill="#5d9cec"/><path d="m384.015625 176h-280v-24h132c0 4.398438 3.601563 8 8 8s8-3.601562 8-8h132zm0 0" fill="#656d78"/><path d="m384 216v-40.007812h-279.953125v40.007812c0 91.601562 86.722656 175.992188 140 175.992188 53.28125 0 140-84.390626 140-175.992188zm0 0" fill="#f0c7b7"/><g fill="#545c66"><path d="m120.257812 167.992188c-2.210937 0-4.042968-1.792969-4.042968-4 0-2.207032 1.753906-4 3.953125-4h.089843c2.199219 0 4 1.792968 4 4 0 2.207031-1.792968 4-4 4zm0 0"/><path d="m144.257812 167.992188c-2.210937 0-4.042968-1.792969-4.042968-4 0-2.207032 1.753906-4 3.953125-4h.089843c2.199219 0 4 1.792968 4 4 0 2.207031-1.792968 4-4 4zm0 0"/><path d="m168.257812 167.992188c-2.210937 0-4.042968-1.792969-4.042968-4 0-2.207032 1.753906-4 3.953125-4h.089843c2.199219 0 4 1.792968 4 4 0 2.207031-1.792968 4-4 4zm0 0"/><path d="m192.257812 167.992188c-2.210937 0-4.042968-1.792969-4.042968-4 0-2.207032 1.753906-4 3.953125-4h.089843c2.199219 0 4 1.792968 4 4 0 2.207031-1.792968 4-4 4zm0 0"/><path d="m216.257812 167.992188c-2.210937 0-4.042968-1.792969-4.042968-4 0-2.207032 1.753906-4 3.953125-4h.089843c2.199219 0 4 1.792968 4 4 0 2.207031-1.792968 4-4 4zm0 0"/><path d="m272.257812 167.992188c-2.210937 0-4.042968-1.792969-4.042968-4 0-2.207032 1.753906-4 3.953125-4h.089843c2.199219 0 4 1.792968 4 4 0 2.207031-1.792968 4-4 4zm0 0"/><path d="m296.257812 167.992188c-2.210937 0-4.042968-1.792969-4.042968-4 0-2.207032 1.753906-4 3.953125-4h.089843c2.199219 0 4 1.792968 4 4 0 2.207031-1.792968 4-4 4zm0 0"/><path d="m320.257812 167.992188c-2.210937 0-4.042968-1.792969-4.042968-4 0-2.207032 1.753906-4 3.953125-4h.089843c2.199219 0 4 1.792968 4 4 0 2.207031-1.792968 4-4 4zm0 0"/><path d="m344.257812 167.992188c-2.210937 0-4.042968-1.792969-4.042968-4 0-2.207032 1.753906-4 3.953125-4h.089843c2.199219 0 4 1.792968 4 4 0 2.207031-1.792968 4-4 4zm0 0"/><path d="m368.257812 167.992188c-2.210937 0-4.042968-1.792969-4.042968-4 0-2.207032 1.753906-4 3.953125-4h.089843c2.199219 0 4 1.792968 4 4 0 2.207031-1.792968 4-4 4zm0 0"/></g><path d="m470.574219 242.488281c-14.40625-61.289062-44.476563-155.367187-54.558594-186.488281 0 0-32 48-32 96v64c0 9.359375-.871094 18.640625-2.558594 27.769531-6.480469 35.117188-24.480469 67.910157-46.640625 93.679688l1.199219 1.03125v93.519531c0 30.960938 41.039063 56 72 56 0 0 0-16 0-72 0-72 64-64 72-104 2.320313-11.601562-2.078125-37.921875-9.441406-69.511719zm0 0" fill="#edab37"/><path d="m106.574219 243.769531c-1.6875-9.128906-2.558594-18.410156-2.558594-27.769531v-64c0-48-32-96-32-96-10.960937 33.679688-41.839844 131.039062-55.679687 191.28125-6.640626 29.4375-10.480469 53.757812-8.320313 64.71875 4.960937 24.960938 31.839844 31.28125 51.359375 50 11.679688 11.28125 20.640625 26.960938 20.640625 54v72c30.960937 0 72-25.039062 72-56v-96c-21.601563-25.519531-39.039063-57.761719-45.441406-92.230469zm0 0" fill="#edab37"/><path d="m137.871094 20.710938c-40.839844 15.960937-65.855469 35.289062-65.855469 35.289062s32 48 32 96h59.082031zm0 0" fill="#5d9cec"/><path d="m328.015625 152h56c0-48 32-96 32-96s-22.800781-17.679688-60.488281-33.199219c-1.71875-.703125-3.640625-1.359375-5.421875-2.058593l-25.074219 131.257812zm0 0" fill="#5d9cec"/><path d="m30.65625 192h73.359375v-40c0-5.566406-.351563-10.886719-.917969-16h-56.128906c-5.488281 18.207031-11.121094 37.382812-16.3125 56zm0 0" fill="#4a89dc"/><path d="m107.527344 248h-91.351563c-5.253906 23.390625-8.664062 43.367188-8.703125 56h121.976563c-10.023438-17.289062-17.707031-36.246094-21.921875-56zm0 0" fill="#4a89dc"/><path d="m59.375 362c11.679688 11.28125 20.640625 26.960938 20.640625 54h72v-56h-94.855469c.734375.664062 1.496094 1.304688 2.214844 2zm0 0" fill="#4a89dc"/><path d="m457.433594 192c-5.195313-18.632812-10.847656-37.839844-16.335938-56h-56.160156c-.570312 5.113281-.921875 10.433594-.921875 16v40zm0 0" fill="#4a89dc"/><path d="m358.558594 304h122c-.015625-12.632812-3.453125-32.609375-8.742188-56h-91.3125c-4.191406 19.761719-11.902344 38.703125-21.945312 56zm0 0" fill="#4a89dc"/><path d="m430.863281 360h-94.847656v56h72c0-28.648438 10.144531-44.617188 22.847656-56zm0 0" fill="#4a89dc"/><path d="m244.015625 464c4.320313 0 8.320313.550781 11.511719 1.449219 5.128906 1.4375 8.488281 3.832031 8.488281 6.550781 0 4.398438-8.960937 8-20 8s-20-3.601562-20-8c0-2.71875 3.359375-5.121094 8.488281-6.550781 3.191406-.898438 7.191406-1.449219 11.511719-1.449219zm0 0" fill="#ffce54"/><path d="m255.527344 465.449219c-3.191406-.898438-7.191406-1.449219-11.511719-1.449219s-8.320313.550781-11.511719 1.449219l-.488281-1.449219-2.488281-24.878906-1.671875-16.402344-3.839844-38.71875h40l-3.839844 38.71875-1.671875 16.402344-2.488281 24.878906zm0 0" fill="#f6bb42"/><path d="m226.464844 408.664062 1.390625 14.054688 1.671875 16.402344.097656.878906h28.78125l.097656-.878906 1.664063-16.402344 1.398437-14.054688zm0 0" fill="#4a89dc"/><path d="m236.246094 124.328125c-.390625-5.28125-12.230469-35.441406-12.230469-40.320313 0-6.640624 8.960937-12 20-12s20 5.359376 20 12c0 4.878907-12 36-12 40.320313v35.671875c0 4.398438-3.601563 8-8 8s-8-3.601562-8-8v-35.679688h.230469zm0 0" fill="#ffce54"/><path d="m252.28125 87.160156c-2.210938 0-4.042969-1.792968-4.042969-4 0-2.207031 1.753907-4 3.953125-4h.089844c2.199219 0 4 1.792969 4 4 0 2.207032-1.792969 4-4 4zm0 0" fill="#f6bb42"/><path d="m236.289062 87.160156c-2.210937 0-4.042968-1.792968-4.042968-4 0-2.207031 1.753906-4 3.953125-4h.089843c2.199219 0 4 1.792969 4 4 0 2.207032-1.792968 4-4 4zm0 0" fill="#f6bb42"/></svg>