<svg height="512pt" viewBox="-60 0 512 512" width="512pt" xmlns="http://www.w3.org/2000/svg"><path d="m390.234375 494.933594h-339.03125c-18.851563 0-34.132813-15.28125-34.132813-34.132813 0-18.851562 15.28125-34.132812 34.132813-34.132812l341.332031-25.601563v93.867188zm0 0" fill="#f9eab0"/><path d="m17.070312 460.03125v.769531c-.003906 9.050781 3.59375 17.734375 9.996094 24.136719 6.398438 6.402344 15.082032 10 24.136719 9.996094h339.796875c-3.609375 10.203125-13.242188 17.035156-24.0625 17.066406h-315.734375c-27.921875-.019531-50.671875-22.425781-51.1132812-50.347656-.0703126-.277344-.1015626-.566406-.08593755-.851563v-409.601562c.02343755-28.265625 22.93359375-51.1757815 51.19921875-51.199219h315.734375c14.121094.0429688 25.558594 11.480469 25.597656 25.601562v384c-.027344 9.414063-7.652344 17.039063-17.066406 17.066407h-324.265625c-4.550781-.027344-9.058594.902343-13.226563 2.730469-1.980468.789062-3.867187 1.792968-5.632812 2.984374l-.167969.171876c-.769531.511718-1.539062 1.109374-2.304687 1.707031-.777344.578125-1.519532 1.207031-2.21875 1.875-4.21875 3.972656-7.335938 8.972656-9.046875 14.507812-.375 1.085938-.660157 2.199219-.851563 3.328125-.402344 1.996094-.628906 4.023438-.683594 6.058594zm0 0" fill="#e64c3c"/><path d="m51.203125 51.199219c-4.710937 0-8.53125-3.820313-8.53125-8.53125v-8.535157c0-4.710937 3.820313-8.53125 8.53125-8.53125 4.714844 0 8.535156 3.820313 8.535156 8.53125v8.535157c0 4.710937-3.820312 8.53125-8.535156 8.53125zm0 0" fill="#fb7b76"/><path d="m51.203125 384c-4.710937 0-8.53125-3.820312-8.53125-8.535156v-298.664063c0-4.714843 3.820313-8.535156 8.53125-8.535156 4.714844 0 8.535156 3.820313 8.535156 8.535156v298.664063c0 4.714844-3.820312 8.535156-8.535156 8.535156zm0 0" fill="#fb7b76"/><path d="m110.9375 68.265625h221.867188c9.425781 0 17.066406 7.640625 17.066406 17.066406v273.066407c0 9.425781-7.640625 17.066406-17.066406 17.066406h-221.867188c-9.425781 0-17.066406-7.640625-17.066406-17.066406v-273.066407c0-9.425781 7.640625-17.066406 17.066406-17.066406zm0 0" fill="#4482c3"/><g fill="#b0d3f0"><path d="m196.269531 341.332031c-2.753906 0-5.339843-1.332031-6.941406-3.574219l-40.117187-56.15625h-21.207032c-4.714844 0-8.535156-3.820312-8.535156-8.535156 0-4.710937 3.820312-8.53125 8.535156-8.53125h25.597656c2.757813-.003906 5.34375 1.328125 6.945313 3.574219l33.597656 47.03125 62.464844-156.179687c1.296875-3.238282 4.4375-5.363282 7.925781-5.359376h51.203125c4.710938 0 8.53125 3.820313 8.53125 8.53125 0 4.714844-3.820312 8.535157-8.53125 8.535157h-45.425781l-66.117188 165.304687c-1.160156 2.894532-3.8125 4.929688-6.914062 5.296875-.335938.042969-.671875.0625-1.011719.0625zm0 0"/><path d="m145.070312 204.800781c-4.714843 0-8.535156-3.820312-8.535156-8.535156v-51.199219h-8.53125c-4.714844 0-8.535156-3.820312-8.535156-8.53125 0-4.714844 3.820312-8.535156 8.535156-8.535156h8.53125c9.421875.011719 17.058594 7.644531 17.066406 17.066406v51.199219c0 4.714844-3.820312 8.535156-8.53125 8.535156zm0 0"/><path d="m196.269531 204.800781h-8.53125c-4.714843 0-8.535156-3.820312-8.535156-8.535156v-42.664063h-25.601563v17.066407c0 4.710937-3.820312 8.53125-8.53125 8.53125-4.714843 0-8.535156-3.820313-8.535156-8.53125v-17.066407c.011719-9.421874 7.648438-17.058593 17.066406-17.066406h25.601563c9.421875.007813 17.054687 7.644532 17.066406 17.066406v34.132813c4.714844 0 8.535157 3.820313 8.535157 8.53125 0 4.714844-3.820313 8.535156-8.535157 8.535156zm0 0"/><path d="m315.738281 341.332031h-5.816406c-10.242187.007813-19.5-6.097656-23.527344-15.515625l-16.734375-39.042968c-1.339844-3.140626-4.425781-5.175782-7.839844-5.171876h-5.816406c-4.714844 0-8.535156-3.820312-8.535156-8.535156 0-4.710937 3.820312-8.53125 8.535156-8.53125h5.816406c10.242188-.007812 19.496094 6.097656 23.523438 15.515625l16.734375 39.042969c1.34375 3.136719 4.429687 5.175781 7.84375 5.171875h5.816406c4.710938 0 8.53125 3.820313 8.53125 8.535156 0 4.710938-3.820312 8.53125-8.53125 8.53125zm0 0"/><path d="m261.820312 341.332031h-5.816406c-4.714844 0-8.535156-3.820312-8.535156-8.53125 0-4.714843 3.820312-8.535156 8.535156-8.535156h5.816406c3.414063.003906 6.5-2.035156 7.839844-5.171875l16.734375-39.042969c4.027344-9.417969 13.285157-15.523437 23.527344-15.515625h5.816406c4.710938 0 8.53125 3.820313 8.53125 8.53125 0 4.714844-3.820312 8.535156-8.53125 8.535156h-5.816406c-3.414063-.003906-6.5 2.03125-7.84375 5.171876l-16.734375 39.042968c-4.027344 9.417969-13.28125 15.523438-23.523438 15.515625zm0 0"/></g><path d="m59.738281 469.332031h-17.066406c-4.714844 0-8.535156-3.820312-8.535156-8.53125 0-4.714843 3.820312-8.535156 8.535156-8.535156h17.066406c4.710938 0 8.53125 3.820313 8.53125 8.535156 0 4.710938-3.820312 8.53125-8.53125 8.53125zm0 0" fill="#e4c05c"/><path d="m349.871094 469.332031h-256c-4.714844 0-8.535156-3.820312-8.535156-8.53125 0-4.714843 3.820312-8.535156 8.535156-8.535156h256c4.710937 0 8.53125 3.820313 8.53125 8.535156 0 4.710938-3.820313 8.53125-8.53125 8.53125zm0 0" fill="#e4c05c"/></svg>