<svg height="511pt" viewBox="0 1 511 511.999" width="511pt" xmlns="http://www.w3.org/2000/svg"><g fill-rule="evenodd"><path d="m285.355469 227.128906c-3.3125-.109375-6.628907-.230468-9.949219-.351562-10.058594-.367188-20.167969-.734375-30.347656-.910156-71.21875-1.246094-145.730469 6.792968-228.664063 89.726562-7.878906 7.878906-7.878906 20.65625 0 28.535156 7.878907 7.878906 20.65625 7.878906 28.539063 0 71.945312-71.945312 138.035156-79.0625 201.398437-77.972656 9.273438.15625 18.488281.492188 27.65625.824219 4.21875.152343 8.429688.308593 12.632813.445312 70.269531 2.320313 138.332031.605469 209.953125-71.019531 7.882812-7.878906 7.882812-20.65625 0-28.535156-7.878907-7.878906-20.65625-7.878906-28.535157 0-13.960937 13.960937-27.910156 24.746094-41.871093 33.050781-17.871094 10.636719-35.765625 17.207031-53.746094 21.171875-28.714844 6.335938-57.652344 6.03125-87.066406 5.035156zm0 0" fill="#ed659f"/><path d="m275.40625 226.777344 9.949219.351562c-2.101563-62.21875-1.125-122.296875 59.257812-182.683594 7.882813-7.878906 7.882813-20.65625 0-28.535156-7.878906-7.878906-20.65625-7.878906-28.535156 0-71.621094 71.621094-73.335937 139.683594-71.019531 209.957032 10.179687.175781 20.289062.542968 30.347656.910156zm0 0" fill="#b0e7f7"/><path d="m286.617188 267.425781c-4.199219-.140625-8.410157-.292969-12.632813-.445312-9.164063-.332031-18.382813-.667969-27.65625-.824219 1.089844 63.359375-6.027344 129.453125-77.972656 201.398438-7.878907 7.878906-7.878907 20.65625 0 28.535156 7.878906 7.878906 20.65625 7.878906 28.535156 0 82.933594-82.933594 90.972656-157.445313 89.726563-228.664063zm0 0" fill="#b0e7f7"/></g><path d="m503.644531 160.800781c-9.285156-9.289062-23.171875-11.238281-34.398437-5.863281l-111.6875-111.6875c1.9375-4.027344 2.964844-8.46875 2.964844-13.070312 0-8.0625-3.136719-15.640626-8.839844-21.339844-5.699219-5.699219-13.277344-8.839844-21.339844-8.839844-8.058594 0-15.636719 3.140625-21.335938 8.839844-4.222656 4.222656-8.351562 8.585937-12.273437 12.976562-3.679687 4.117188-3.324219 10.4375.792969 14.117188 4.117187 3.679687 10.4375 3.328125 14.121094-.792969 3.671874-4.109375 7.542968-8.199219 11.5-12.160156 1.921874-1.921875 4.480468-2.980469 7.195312-2.980469 2.71875 0 5.277344 1.058594 7.199219 2.980469s2.980469 4.480469 2.980469 7.199219-1.058594 5.273437-2.980469 7.195312c-13.769531 13.769531-25.121094 28.117188-34.183594 43.234375-.277344.398437-.523437.8125-.734375 1.238281-9.433594 16.003906-16.320312 32.871094-20.777344 50.84375-.453125 1.816406-.867187 3.628906-1.265625 5.441406-.003906.007813-.003906.015626-.007812.027344-5.773438 26.296875-6.207031 52.273438-5.53125 78.597656-6.71875-.246093-13.472657-.488281-20.269531-.671874-1.015626-39.351563.238281-77.953126 15.746093-116.367188 2.070313-5.121094-.40625-10.949219-5.527343-13.019531-5.121094-2.066407-10.949219.410156-13.015626 5.53125-16.796874 41.605469-18.25 82.265625-17.214843 123.527343-27.824219-.078124-56.378907 1.695313-85.910157 9.082032-50.121093 12.542968-95.761718 39.914062-139.527343 83.679687-11.765625 11.765625-11.765625 30.914063 0 42.679688 5.882812 5.882812 13.613281 8.824219 21.339843 8.824219 4.472657 0 8.941407-.992188 13.058594-2.960938l27.5625 27.5625c1.953125 1.949219 4.515625 2.929688 7.074219 2.929688s5.117187-.980469 7.070313-2.929688c3.902343-3.90625 3.902343-10.238281 0-14.144531l-26.25-26.25c9.761718-9.210938 19.421874-17.207031 28.980468-24.144531l104.289063 104.289062c-6.941407 9.511719-14.957031 19.152344-24.195313 28.933594l-26.257812-26.257813c-3.902344-3.902343-10.234375-3.902343-14.140625 0-3.90625 3.902344-3.90625 10.234375 0 14.140625l27.554687 27.558594c-1.9375 4.027344-2.964844 8.46875-2.964844 13.070312 0 8.0625 3.140626 15.640626 8.839844 21.339844 5.699219 5.699219 13.277344 8.839844 21.339844 8.839844s15.640625-3.140625 21.339844-8.839844c83.304687-83.308594 93.015625-159.640625 92.765625-225.4375 29.773437.738282 60.144531.175782 90.375-6.800781 42.949219-9.914063 81.070312-31.972656 116.542969-67.445313 11.765624-11.765624 11.765624-30.910156-.003907-42.675781zm-76.066406 27.386719-103.339844-103.339844c5.714844-8.710937 12.496094-17.402344 20.519531-26.113281l108.984376 108.984375c-8.714844 8.007812-17.429688 14.773438-26.164063 20.46875zm-52.105469 22.816406-74.035156-74.035156c2.875-11.542969 6.910156-22.890625 12.488281-34.148438l95.660157 95.660157c-11.328126 5.601562-22.691407 9.644531-34.113282 12.523437zm-80.402344 6.417969c-.496093-19.707031-.300781-38.441406 1.96875-56.566406l54.601563 54.601562c-18.628906 2.382813-37.453125 2.464844-56.570313 1.964844zm-189.921874 91.367187c12.023437-7.289062 23.898437-13.011718 35.640624-17.484374l80.582032 80.582031c-4.472656 11.648437-10.222656 23.492187-17.582032 35.546875zm131.285156-32.714843c.074218 23.996093-1.347656 48.746093-8.15625 74.4375l-66.082032-66.085938c25.25-6.675781 49.933594-8.359375 74.238282-8.351562zm-46.613282 212.945312c-1.921874 1.921875-4.476562 2.980469-7.195312 2.980469s-5.277344-1.058594-7.199219-2.980469c-3.964843-3.964843-3.96875-10.421875-.003906-14.390625.003906 0 .003906-.003906.003906-.003906.003907-.003906.007813-.007812.011719-.011719 15.351562-15.351562 27.832031-30.484375 37.980469-45.359375.195312-.261718.378906-.527344.546875-.804687 37.15625-54.886719 42.550781-106.257813 42.464844-152.054688 5.75.164063 11.480468.371094 17.195312.578125 1.035156.039063 2.070312.074219 3.105469.113282.351562 64.28125-8.546875 133.570312-86.910157 211.933593zm299.683594-299.683593c-72.824218 72.824218-141.960937 70.3125-215.152344 67.652343-36.347656-1.324219-73.933593-2.6875-113.265624 6.945313-6.992188 1.714844-13.878907 3.746094-20.667969 6.101562-.339844.097656-.675781.222656-1.007813.359375-19.105468 6.726563-37.4375 16.027344-55.195312 28.019531-.402344.234376-.796875.496094-1.167969.792969-15.449219 10.546875-30.464844 23.132813-45.179687 37.84375-.003907.003907-.003907.003907-.007813.007813-3.96875 3.96875-10.425781 3.964844-14.394531 0-3.96875-3.972656-3.96875-10.429688 0-14.398438 75.691406-75.6875 144.269531-86.894531 210.105468-86.894531 13.929688 0 27.746094.503906 41.472657 1 32.328125 1.175781 65.199219 2.367187 98.207031-4.710937.878906-.074219 1.75-.269532 2.589844-.574219 18.175781-4.136719 36.390625-10.847657 54.574218-21.515625.570313-.269532 1.121094-.59375 1.640626-.972656 14.382812-8.625 28.746093-19.742188 43.054687-34.054688 3.96875-3.96875 10.425781-3.96875 14.394531 0s3.96875 10.429688 0 14.398438zm0 0"/><path d="m274.222656 68.65625c1.707032 1.140625 3.632813 1.683594 5.539063 1.683594 3.230469 0 6.402343-1.5625 8.332031-4.453125l.003906-.007813c3.0625-4.59375 1.820313-10.800781-2.777344-13.863281-4.59375-3.0625-10.804687-1.820313-13.867187 2.777344-3.066406 4.59375-1.824219 10.800781 2.769531 13.863281zm0 0"/><path d="m114.011719 399.078125c-3.734375-4.070313-10.054688-4.34375-14.128907-.609375-4.070312 3.730469-4.34375 10.058594-.609374 14.128906 1.972656 2.152344 4.667968 3.246094 7.375 3.246094 2.414062 0 4.832031-.871094 6.753906-2.632812 4.070312-3.730469 4.34375-10.054688.613281-14.125zm0 0"/></svg>