<svg height="512pt" viewBox="0 -6 512 512" width="512pt" xmlns="http://www.w3.org/2000/svg"><g fill-rule="evenodd"><path d="m50 50h412v280h-40c22.089844 0 40 17.90625 40 40h20c11 0 20-9 20-20v-320c0-11-9-20-20-20h-452c-11 0-20 9-20 20v320c0 11 9 20 20 20h20c0-22.09375 17.910156-40 40-40h-40zm0 0" fill="#c8866a"/><path d="m462 50h-412v280h86c0-22.089844 17.910156-40 40-40s40 17.910156 40 40c0 22.050781-17.839844 39.933594-39.875 40 15.257812.023438 29.511719 4.320312 41.628906 11.753906-1.140625-3.714844-1.753906-7.664062-1.753906-11.753906 0-22.089844 17.910156-40 40-40s40 17.910156 40 40c0 4.089844-.613281 8.039062-1.757812 11.753906 12.125-7.433594 26.375-11.730468 41.632812-11.753906-.007812 0-.011719 0-.019531 0-22.023438-.078125-39.855469-17.957031-39.855469-40 0-22.089844 17.910156-40 40-40s40 17.910156 40 40h86zm0 0" fill="#fff"/><path d="m256 410c22.03125 0 40-17.96875 40-40s-17.96875-40-40-40-40 17.96875-40 40 17.96875 40 40 40zm0 0" fill="#ffddcf"/><path d="m256 490h-80c0-44.183594 35.816406-80 80-80s80 35.816406 80 80zm0 0" fill="#ed659f"/><path d="m176 370c22.03125 0 40-17.96875 40-40s-17.96875-40-40-40-40 17.96875-40 40 17.96875 40 40 40zm0 0" fill="#ffddcf"/><path d="m176 450h-80c0-44.183594 35.816406-80 80-80 15.304688 0 29.601562 4.296875 41.757812 11.75 3.878907 12.640625 13.851563 22.613281 26.488282 26.492188.488281.796874.964844 1.601562 1.425781 2.417968-25.226563 3.253906-46.769531 18.253906-58.96875 39.339844zm0 0" fill="#b0e7f7"/><path d="m336 370c22.03125 0 40-17.96875 40-40s-17.96875-40-40-40-40 17.96875-40 40 17.96875 40 40 40zm0 0" fill="#ffddcf"/><path d="m336 450h-10.703125c-12.199219-21.085938-33.742187-36.085938-58.96875-39.339844.460937-.816406.9375-1.621094 1.425781-2.417968 12.636719-3.878907 22.609375-13.851563 26.488282-26.492188 12.15625-7.453125 26.453124-11.75 41.757812-11.75 44.183594 0 80 35.816406 80 80zm0 0" fill="#b0aeec"/><path d="m90 410c22.03125 0 40-17.96875 40-40s-17.96875-40-40-40-40 17.96875-40 40 17.96875 40 40 40zm0 0" fill="#ffddcf"/><path d="m90 490h-80c0-44.183594 35.816406-80 80-80s80 35.816406 80 80zm0 0" fill="#cbe557"/><path d="m422 410c22.03125 0 40-17.96875 40-40s-17.96875-40-40-40-40 17.96875-40 40 17.96875 40 40 40zm0 0" fill="#ffddcf"/><path d="m422 490h-80c0-44.183594 35.816406-80 80-80s80 35.816406 80 80zm0 0" fill="#ffc059"/></g><path d="m161.699219 252.132812c5.152343 1.996094 10.941406-.566406 12.933593-5.714843l6.652344-17.171875h49.839844l6.648438 17.171875c1.535156 3.964843 5.320312 6.390625 9.328124 6.390625 1.199219 0 2.421876-.21875 3.609376-.675782 5.148437-1.996093 7.707031-7.789062 5.714843-12.9375l-40.898437-105.613281c-1.488282-3.851562-5.195313-6.386719-9.324219-6.386719s-7.832031 2.535157-9.324219 6.386719l-40.898437 105.613281c-1.992188 5.148438.566406 10.941407 5.71875 12.9375zm44.507812-87.246093 17.175781 44.359375h-34.355468zm0 0"/><path d="m315.117188 180.605469c-22.921876 0-41.566407 16.195312-41.566407 36.101562 0 19.902344 18.644531 36.097657 41.566407 36.097657 8.296874 0 16.023437-2.128907 22.515624-5.777344 1.59375 3.410156 5.042969 5.777344 9.058594 5.777344 5.519532 0 10-4.476563 10-10v-62.074219c0-20.890625-14.019531-34.925781-34.878906-34.925781h-29.421875c-5.523437 0-10 4.480468-10 10 0 5.523437 4.476563 10 10 10h29.421875c9.871094 0 14.878906 5.023437 14.878906 14.925781v5.125c-6.292968-3.328125-13.679687-5.25-21.574218-5.25zm0 52.199219c-11.691407 0-21.566407-7.371094-21.566407-16.097657 0-8.730469 9.875-16.101562 21.566407-16.101562 11.695312 0 21.574218 7.371093 21.574218 16.101562 0 8.726563-9.878906 16.097657-21.574218 16.097657zm0 0"/><path d="m455.957031 406.65625c7.523438-6.976562 12.910157-16.230469 15.035157-26.65625h11.007812c16.542969 0 29.996094-13.460938 29.996094-30v-320c0-16.542969-13.453125-30-29.996094-30h-352c-5.523438 0-10 4.476562-10 10s4.476562 10 10 10h352c5.515625 0 10 4.484375 10 10v320c0 5.511719-4.484375 10-10 10h-11.003906c-1.507813-7.386719-4.644532-14.183594-9.023438-20h.027344c5.519531 0 10-4.476562 10-10v-280c0-5.523438-4.480469-10-10-10h-412c-5.523438 0-10 4.476562-10 10v280c0 5.523438 4.476562 10 10 10h.027344c-4.378906 5.816406-7.515625 12.613281-9.023438 20h-11.003906c-5.515625 0-10-4.488281-10-10v-320c0-5.515625 4.484375-10 10-10h20c5.523438 0 10-4.476562 10-10s-4.476562-10-10-10h-20c-16.542969 0-30 13.457031-30 30v320c0 16.539062 13.457031 30 30 30h11.007812c2.125 10.425781 7.511719 19.679688 15.035157 26.65625-32.84375 13.429688-56.042969 45.722656-56.042969 83.34375 0 5.519531 4.476562 9.996094 10 9.996094h160c1.046875 0 2.050781-.160156 3-.457032.945312.296876 1.953125.457032 3 .457032h160c1.042969 0 2.050781-.160156 3-.457032.949219.296876 1.953125.457032 3 .457032h39.996094c5.523437 0 10-4.476563 10-9.996094 0-5.523438-4.476563-10-10-10h-29.285156c4.867187-33.875 34.082031-59.996094 69.28125-60h.007812.011719c35.199219.003906 64.410156 26.125 69.277343 60h-29.292968c-5.523438 0-10 4.476562-10 10 0 5.519531 4.476562 9.996094 10 9.996094h40.003906c5.523438 0 10-4.476563 10-9.996094 0-37.621094-23.203125-69.914062-56.042969-83.34375zm-3.957031-36.65625c0 16.535156-13.449219 29.992188-29.988281 30-.003907 0-.007813 0-.011719 0s-.007812 0-.011719 0c-16.535156-.007812-29.988281-13.464844-29.988281-30 0-16.539062 13.449219-29.992188 29.980469-30h.039062c16.53125.007812 29.980469 13.460938 29.980469 30zm-82.058594-3.328125c.824219-.765625 1.621094-1.5625 2.394532-2.378906-.125 1.082031-.21875 2.171875-.273438 3.277343-.703125-.308593-1.410156-.609374-2.121094-.898437zm-113.941406 33.328125c-.003906 0-.011719 0-.015625 0-16.535156-.007812-29.984375-13.464844-29.984375-30 0-16.542969 13.457031-30 30-30 16.539062 0 30 13.457031 30 30 0 16.535156-13.453125 29.992188-29.988281 30-.003907 0-.007813 0-.011719 0zm-80-40c-16.542969 0-30-13.457031-30-30s13.457031-30 30-30 30 13.457031 30 30-13.457031 30-30 30zm-33.941406 6.671875c-.710938.289063-1.417969.589844-2.121094.898437-.050781-1.101562-.148438-2.195312-.273438-3.277343.773438.820312 1.570313 1.613281 2.394532 2.378906zm-8.347656 27.5625c12.242187-9.3125 26.8125-14.234375 42.289062-14.234375 11.796875 0 23.339844 2.96875 33.597656 8.589844 2.785156 6.917968 7.0625 13.078125 12.445313 18.066406-22.078125 9.027344-39.796875 26.582031-49.042969 48.550781-9.242188-21.96875-26.964844-39.523437-49.042969-48.550781 3.871094-3.585938 7.171875-7.777344 9.753907-12.421875zm172.289062-64.234375c0-16.542969 13.457031-30 30-30 16.535156 0 29.992188 13.449219 30 29.988281v.011719.011719c-.007812 16.535156-13.460938 29.988281-30 29.988281-16.542969 0-30-13.457031-30-30zm-246-270h392v260h-29.980469c-.007812 0-.011719 0-.019531 0-.003906 0-.011719 0-.019531 0h-36.988281c-4.644532-22.796875-24.847657-40-48.992188-40-27.570312 0-50 22.429688-50 50v.023438c-8.363281-6.289063-18.753906-10.027344-30-10.027344s-21.636719 3.738281-30 10.027344c0-.007813 0-.015626 0-.023438 0-27.570312-22.429688-50-50-50-24.144531 0-44.347656 17.203125-48.992188 39.996094h-36.988281c-.007812 0-.015625 0-.019531 0-.007812 0-.011719 0-.019531 0h-29.980469zm0 310c0-16.539062 13.449219-29.992188 29.980469-30h.039062c16.53125.007812 29.980469 13.460938 29.980469 30 0 16.535156-13.453125 29.992188-29.988281 30-.003907 0-.007813 0-.011719 0s-.007812 0-.011719 0c-16.539062-.007812-29.988281-13.464844-29.988281-30zm-39.289062 110c4.867187-33.875 34.078124-59.996094 69.277343-60h.011719.007812c35.199219.003906 64.414063 26.125 69.277344 60zm166 0c4.867187-33.875 34.082031-59.996094 69.277343-60h.011719.011719c35.195312.003906 64.410156 26.125 69.277343 60zm152.289062-24.792969c-9.242188-21.96875-26.964844-39.523437-49.042969-48.550781 5.382813-4.992188 9.664063-11.148438 12.445313-18.066406 10.257812-5.625 21.800781-8.589844 33.59375-8.589844 15.480468 0 30.054687 4.921875 42.289062 14.234375 2.585938 4.644531 5.886719 8.832031 9.757813 12.421875-22.078125 9.027344-39.800781 26.582031-49.042969 48.550781zm0 0"/><path d="m90.003906 20c5.523438 0 10-4.476562 10-10s-4.476562-10-10-10h-.007812c-5.523438 0-9.996094 4.476562-9.996094 10s4.480469 10 10.003906 10zm0 0"/><path d="m422 480h-.007812c-5.523438 0-9.996094 4.476562-9.996094 10 0 5.519531 4.480468 9.996094 10.003906 9.996094s10-4.476563 10-9.996094c0-5.523438-4.476562-10-10-10zm0 0"/></svg>