<svg height="512pt" viewBox="0 0 512 512.00081" width="512pt" xmlns="http://www.w3.org/2000/svg"><path d="m278.789062 324.265625-99.667968 25.601563-11.605469-3.585938-70.996094-22.015625 24.746094-33.621094c4.328125-5.855469 6.660156-12.941406 6.65625-20.222656v-236.289063h119.464844v236.289063c.035156 7.273437 2.367187 14.351563 6.65625 20.222656zm0 0" fill="#0377bc"/><path d="m253.191406 324.265625-85.675781 22.015625-70.996094-22.015625 24.746094-33.621094c4.328125-5.855469 6.660156-12.941406 6.65625-20.222656v-236.289063h93.867187v236.289063c.035157 7.273437 2.363282 14.351563 6.65625 20.222656zm0 0" fill="#02a9f4"/><path d="m343.730469 497.921875c-6.660157 3.675781-14.152344 5.585937-21.761719 5.542969h-268.628906c-16.871094-.003906-32.3125-9.480469-39.949219-24.523438-7.640625-15.046875-6.183594-33.101562 3.769531-46.726562l79.359375-107.949219h182.269531l36.867188 50.175781 13.480469 59.136719 11.945312 52.566406zm0 0" fill="#bb193b"/><path d="m358.320312 477.867188c-2.132812 1.109374-8.875 4.4375-17.238281 8.277343-14.292969 7.242188-29.269531 13.042969-44.710937 17.320313h-243.03125c-16.871094-.003906-32.3125-9.480469-39.949219-24.523438-7.640625-15.046875-6.183594-33.101562 3.769531-46.726562l79.359375-107.949219h156.671875l36.863282 50.175781 39.082031 59.136719zm0 0" fill="#ef314c"/><path d="m144.988281 375.464844c0 9.425781-7.640625 17.070312-17.066406 17.070312s-17.066406-7.644531-17.066406-17.070312c0-9.425782 7.640625-17.066406 17.066406-17.066406s17.066406 7.640624 17.066406 17.066406zm0 0" fill="#ff9801"/><path d="m179.121094 435.199219c0 9.425781-7.640625 17.066406-17.066406 17.066406-9.425782 0-17.066407-7.640625-17.066407-17.066406s7.640625-17.066407 17.066407-17.066407c9.425781 0 17.066406 7.640626 17.066406 17.066407zm0 0" fill="#ff9801"/><path d="m383.921875 93.867188c.007813 6.792968-2.6875 13.308593-7.488281 18.113281-4.804688 4.800781-11.320313 7.496093-18.113282 7.484375-2.914062.019531-5.808593-.5-8.53125-1.535156-10.222656-3.582032-17.066406-13.230469-17.066406-24.0625 0-10.832032 6.84375-20.484376 17.066406-24.066407 2.722657-1.03125 5.617188-1.550781 8.53125-1.535156 6.792969-.007813 13.308594 2.6875 18.113282 7.488281 4.800781 4.804688 7.496094 11.320313 7.488281 18.113282zm0 0" fill="#00838f"/><path d="m366.855469 93.867188c0-13.289063-7.640625-24.066407-17.066407-24.066407-9.425781 0-17.066406 10.777344-17.066406 24.066407 0 13.289062 7.640625 24.0625 17.066406 24.0625 9.425782 0 17.066407-10.773438 17.066407-24.0625zm0 0" fill="#00bcd4"/><path d="m452.1875 153.601562c0 9.425782-7.640625 17.066407-17.066406 17.066407-9.425782 0-17.066406-7.640625-17.066406-17.066407 0-9.425781 7.640624-17.066406 17.066406-17.066406 9.425781 0 17.066406 7.640625 17.066406 17.066406zm0 0" fill="#02a9f4"/><path d="m452.1875 25.601562c0 9.425782-7.640625 17.066407-17.066406 17.066407-9.425782 0-17.066406-7.640625-17.066406-17.066407 0-9.425781 7.640624-17.066406 17.066406-17.066406 9.425781 0 17.066406 7.640625 17.066406 17.066406zm0 0" fill="#02a9f4"/><path d="m503.386719 213.332031v128l-25.597657-11.347656-22.871093-10.15625c-17.636719-7.742187-37.992188-6.042969-54.101563 4.523437l-.085937.085938c-12.960938 8.585938-28.898438 11.429688-44.03125 7.851562-3.222657-.671874-6.367188-1.671874-9.386719-2.988281l-31.65625-13.566406v-53.589844c0-3.988281-1.390625-7.847656-3.925781-10.921875l-27.050781-32.429687c-2.132813-2.539063-2.597657-6.089844-1.1875-9.09375 1.410156-3.003907 4.4375-4.917969 7.757812-4.898438h203.605469c4.707031.011719 8.519531 3.824219 8.53125 8.53125zm0 0" fill="#0377bc"/><path d="m477.789062 213.332031v128l-48.46875-21.503906c-3.269531-1.4375-6.671874-2.554687-10.15625-3.328125-15.101562-3.613281-31.027343-.765625-43.945312 7.851562l-.085938.085938c-5.621093 3.707031-11.863281 6.367188-18.433593 7.851562-3.222657-.671874-6.367188-1.671874-9.386719-2.988281l-31.65625-13.566406v-53.589844c0-3.988281-1.390625-7.847656-3.925781-10.921875l-27.050781-32.429687c-2.132813-2.539063-2.597657-6.089844-1.1875-9.09375 1.410156-3.003907 4.4375-4.917969 7.757812-4.898438h178.003906c4.707032.011719 8.519532 3.824219 8.535156 8.53125zm0 0" fill="#02a9f4"/><path d="m503.386719 315.734375v136.53125c-.019531 28.269531-22.929688 51.179687-51.199219 51.199219h-85.332031c-28.269531-.019532-51.179688-22.929688-51.199219-51.199219v-162.132813l31.65625 13.570313c17.488281 7.484375 37.570312 5.65625 53.417969-4.867187l.085937-.082032c16.070313-10.671875 36.484375-12.378906 54.101563-4.523437l22.871093 10.152343zm0 0" fill="#283593"/><path d="m477.789062 304.382812v147.882813c-.023437 28.269531-22.933593 51.179687-51.203124 51.199219h-59.730469c-28.269531-.019532-51.179688-22.929688-51.199219-51.199219v-162.132813l31.65625 13.570313c17.488281 7.484375 37.570312 5.65625 53.417969-4.867187l.085937-.082032c16.070313-10.671875 36.484375-12.378906 54.101563-4.523437zm0 0" fill="#3f51b5"/><path d="m392.453125 358.398438c0 9.425781-7.640625 17.066406-17.066406 17.066406s-17.066407-7.640625-17.066407-17.066406c0-9.425782 7.640626-17.066407 17.066407-17.066407s17.066406 7.640625 17.066406 17.066407zm0 0" fill="#00bcd4"/><path d="m426.585938 418.132812c0 9.425782-7.640626 17.066407-17.066407 17.066407s-17.066406-7.640625-17.066406-17.066407c0-9.425781 7.640625-17.066406 17.066406-17.066406s17.066407 7.640625 17.066407 17.066406zm0 0" fill="#00bcd4"/><path d="m264.453125 17.066406v17.066406c-.027344 9.414063-7.652344 17.039063-17.066406 17.066407h-119.464844c-9.414063-.027344-17.039063-7.652344-17.066406-17.066407v-17.066406c.011719-4.707031 3.824219-8.519531 8.53125-8.53125h136.535156c4.707031.011719 8.519531 3.824219 8.53125 8.53125zm0 0" fill="#0377bc"/><path d="m238.855469 17.066406v17.066406c-.027344 9.414063-7.652344 17.039063-17.066407 17.066407h-93.867187c-9.414063-.027344-17.039063-7.652344-17.066406-17.066407v-17.066406c.011719-4.707031 3.824219-8.519531 8.53125-8.53125h110.933593c4.707032.011719 8.519532 3.824219 8.535157 8.53125zm0 0" fill="#02a9f4"/><path d="m247.386719 59.734375h-119.464844c-14.132813-.015625-25.585937-11.46875-25.601563-25.601563v-17.066406c.011719-9.421875 7.644532-17.0585935 17.066407-17.066406h136.535156c9.421875.0078125 17.054687 7.644531 17.066406 17.066406v17.066406c-.015625 14.132813-11.46875 25.585938-25.601562 25.601563zm-128-42.667969v17.066406c.007812 4.710938 3.824219 8.527344 8.535156 8.535157h119.464844c4.710937-.007813 8.527343-3.824219 8.535156-8.535157v-17.066406zm0 0"/><path d="m321.96875 512h-268.628906c-20.082032-.003906-38.460938-11.285156-47.554688-29.191406s-7.363281-39.402344 4.480469-55.621094l104.125-141.59375c3.257813-4.386719 5.011719-9.710938 4.996094-15.171875v-219.222656c0-4.710938 3.820312-8.53125 8.535156-8.53125h119.464844c4.714843 0 8.535156 3.820312 8.535156 8.53125v219.222656c.042969 5.472656 1.804687 10.792969 5.027344 15.214844l61.582031 83.75c2.757812 3.800781 1.933594 9.113281-1.847656 11.894531-3.785156 2.78125-9.101563 1.984375-11.90625-1.785156l-61.609375-83.796875c-5.347657-7.347657-8.253907-16.191407-8.3125-25.277344v-210.6875h-102.402344v210.6875c.023437 9.109375-2.894531 17.980469-8.324219 25.296875l-104.09375 141.546875c-8.046875 11.035156-9.21875 25.648437-3.03125 37.820313 6.1875 12.171874 18.683594 19.84375 32.335938 19.847656h268.628906c6.164062.039062 12.230469-1.5 17.625-4.480469 4.125-2.28125 9.316406-.789063 11.601562 3.335937 2.28125 4.121094.789063 9.316407-3.335937 11.597657-7.921875 4.386719-16.835937 6.664062-25.890625 6.613281zm0 0"/><path d="m170.585938 128h-42.664063c-4.714844 0-8.535156-3.820312-8.535156-8.535156 0-4.710938 3.820312-8.53125 8.535156-8.53125h42.664063c4.714843 0 8.535156 3.820312 8.535156 8.53125 0 4.714844-3.820313 8.535156-8.535156 8.535156zm0 0"/><path d="m153.519531 170.667969h-25.597656c-4.714844 0-8.535156-3.820313-8.535156-8.535157 0-4.710937 3.820312-8.53125 8.535156-8.53125h25.597656c4.714844 0 8.535157 3.820313 8.535157 8.53125 0 4.714844-3.820313 8.535157-8.535157 8.535157zm0 0"/><path d="m170.585938 213.332031h-42.664063c-4.714844 0-8.535156-3.820312-8.535156-8.53125 0-4.714843 3.820312-8.535156 8.535156-8.535156h42.664063c4.714843 0 8.535156 3.820313 8.535156 8.535156 0 4.710938-3.820313 8.53125-8.535156 8.53125zm0 0"/><path d="m153.519531 256h-25.597656c-4.714844 0-8.535156-3.820312-8.535156-8.535156 0-4.710938 3.820312-8.53125 8.535156-8.53125h25.597656c4.714844 0 8.535157 3.820312 8.535157 8.53125 0 4.714844-3.820313 8.535156-8.535157 8.535156zm0 0"/><path d="m278.789062 332.800781h-182.269531c-4.714843 0-8.535156-3.820312-8.535156-8.535156 0-4.710937 3.820313-8.53125 8.535156-8.53125h182.269531c4.714844 0 8.535157 3.820313 8.535157 8.53125 0 4.714844-3.820313 8.535156-8.535157 8.535156zm0 0"/><path d="m127.921875 401.066406c-14.140625 0-25.601563-11.460937-25.601563-25.601562 0-14.136719 11.460938-25.597656 25.601563-25.597656 14.136719 0 25.597656 11.460937 25.597656 25.597656-.015625 14.132812-11.464843 25.585937-25.597656 25.601562zm0-34.132812c-4.714844 0-8.535156 3.820312-8.535156 8.53125 0 4.714844 3.820312 8.535156 8.535156 8.535156 4.710937 0 8.53125-3.820312 8.53125-8.535156-.003906-4.707032-3.820313-8.527344-8.53125-8.53125zm0 0"/><path d="m162.054688 460.800781c-14.136719 0-25.601563-11.460937-25.601563-25.601562 0-14.136719 11.464844-25.597657 25.601563-25.597657 14.136718 0 25.601562 11.460938 25.601562 25.597657-.015625 14.132812-11.46875 25.585937-25.601562 25.601562zm0-34.132812c-4.714844 0-8.535157 3.820312-8.535157 8.53125 0 4.714843 3.820313 8.535156 8.535157 8.535156 4.710937 0 8.53125-3.820313 8.53125-8.535156-.003907-4.710938-3.820313-8.527344-8.53125-8.53125zm0 0"/><path d="m119.386719 477.867188c-.570313-.019532-1.140625-.078126-1.707031-.171876-.53125-.09375-1.050782-.265624-1.535157-.511718-.542969-.1875-1.058593-.445313-1.535156-.769532-.425781-.339843-.851563-.679687-1.28125-1.023437-.75-.828125-1.359375-1.78125-1.789063-2.816406-.90625-2.066407-.90625-4.417969 0-6.484375.429688-1.03125 1.035157-1.984375 1.789063-2.816406 2.472656-2.382813 6.121094-3.085938 9.300781-1.789063 1.035156.429687 1.988282 1.039063 2.816406 1.789063 2.460938 2.441406 3.203126 6.128906 1.875 9.332031-1.332031 3.203125-4.464843 5.28125-7.933593 5.261719zm0 0"/><path d="m179.121094 375.464844c-.570313-.019532-1.140625-.074219-1.707032-.167969-.535156-.097656-1.050781-.269531-1.535156-.511719-.542968-.1875-1.058594-.445312-1.535156-.769531-.429688-.339844-.855469-.683594-1.28125-1.023437-.753906-.832032-1.359375-1.78125-1.792969-2.816407-.902343-2.066406-.902343-4.417969 0-6.484375.433594-1.035156 1.039063-1.988281 1.792969-2.816406 2.472656-2.382812 6.121094-3.085938 9.300781-1.792969 1.035157.433594 1.988281 1.039063 2.816407 1.792969 2.460937 2.441406 3.203124 6.128906 1.871093 9.332031-1.328125 3.199219-4.460937 5.28125-7.929687 5.257813zm0 0"/><path d="m375.386719 384c-14.136719 0-25.597657-11.460938-25.597657-25.601562 0-14.136719 11.460938-25.597657 25.597657-25.597657 14.140625 0 25.601562 11.460938 25.601562 25.597657-.015625 14.132812-11.46875 25.585937-25.601562 25.601562zm0-34.132812c-4.710938 0-8.53125 3.820312-8.53125 8.53125 0 4.714843 3.820312 8.535156 8.53125 8.535156 4.714843 0 8.535156-3.820313 8.535156-8.535156-.007813-4.707032-3.824219-8.527344-8.535156-8.53125zm0 0"/><path d="m358.320312 128c-18.851562 0-34.132812-15.28125-34.132812-34.132812 0-18.851563 15.28125-34.132813 34.132812-34.132813 18.851563 0 34.132813 15.28125 34.132813 34.132813-.019531 18.84375-15.289063 34.113281-34.132813 34.132812zm0-51.199219c-9.425781 0-17.066406 7.640625-17.066406 17.066407 0 9.425781 7.640625 17.066406 17.066406 17.066406 9.425782 0 17.066407-7.640625 17.066407-17.066406-.007813-9.421876-7.644531-17.058594-17.066407-17.066407zm0 0"/><path d="m435.121094 179.199219c-14.136719 0-25.601563-11.460938-25.601563-25.597657 0-14.140624 11.464844-25.601562 25.601563-25.601562 14.136718 0 25.601562 11.460938 25.601562 25.601562-.015625 14.128907-11.46875 25.582032-25.601562 25.597657zm0-34.132813c-4.710938 0-8.535156 3.820313-8.535156 8.535156 0 4.710938 3.824218 8.53125 8.535156 8.53125 4.714844 0 8.535156-3.820312 8.535156-8.53125-.007812-4.710937-3.824219-8.527343-8.535156-8.535156zm0 0"/><path d="m435.121094 51.199219c-14.136719 0-25.601563-11.460938-25.601563-25.597657 0-14.140624 11.464844-25.601562 25.601563-25.601562 14.136718 0 25.601562 11.460938 25.601562 25.601562-.015625 14.128907-11.46875 25.582032-25.601562 25.597657zm0-34.132813c-4.710938 0-8.535156 3.820313-8.535156 8.535156 0 4.710938 3.824218 8.53125 8.535156 8.53125 4.714844 0 8.535156-3.820312 8.535156-8.53125-.007812-4.710937-3.824219-8.527343-8.535156-8.535156zm0 0"/><path d="m409.519531 443.734375c-14.136719 0-25.597656-11.460937-25.597656-25.601563 0-14.136718 11.460937-25.597656 25.597656-25.597656 14.140625 0 25.601563 11.460938 25.601563 25.597656-.015625 14.132813-11.46875 25.585938-25.601563 25.601563zm0-34.132813c-4.710937 0-8.53125 3.820313-8.53125 8.53125 0 4.714844 3.820313 8.535157 8.53125 8.535157 4.714844 0 8.535157-3.820313 8.535157-8.535157-.007813-4.710937-3.824219-8.527343-8.535157-8.53125zm0 0"/><path d="m366.855469 460.800781c-.574219-.019531-1.144531-.078125-1.707031-.171875-.535157-.09375-1.050782-.265625-1.535157-.511718-.542969-.1875-1.0625-.445313-1.539062-.769532-.425781-.339844-.851563-.679687-1.277344-1.023437-.753906-.828125-1.359375-1.78125-1.792969-2.816407-.90625-2.066406-.90625-4.417968 0-6.484374.433594-1.035157 1.039063-1.984376 1.792969-2.816407 2.472656-2.382812 6.117187-3.085937 9.300781-1.792969 1.03125.433594 1.984375 1.042969 2.816406 1.792969 2.460938 2.441407 3.199219 6.128907 1.871094 9.332031-1.328125 3.203126-4.464844 5.28125-7.929687 5.261719zm0 0"/><path d="m426.585938 358.398438c-.570313-.019532-1.140626-.074219-1.703126-.167969-.535156-.097657-1.054687-.269531-1.539062-.511719-.542969-.1875-1.058594-.445312-1.535156-.769531-.425782-.339844-.851563-.683594-1.28125-1.023438-.75-.832031-1.355469-1.78125-1.789063-2.816406-.90625-2.066406-.90625-4.417969 0-6.484375.433594-1.035156 1.039063-1.988281 1.789063-2.816406 2.476562-2.386719 6.121094-3.085938 9.304687-1.792969 1.03125.433594 1.984375 1.039063 2.816407 1.792969 2.460937 2.441406 3.199218 6.128906 1.871093 9.332031-1.332031 3.199219-4.464843 5.28125-7.933593 5.257813zm0 0"/><path d="m452.1875 512h-85.332031c-32.976563-.035156-59.699219-26.757812-59.734375-59.734375v-190.085937c-.003906-1.996094-.703125-3.929688-1.980469-5.460938l-27.042969-32.460938c-4.238281-5.089843-5.152344-12.167968-2.34375-18.164062s8.832032-9.828125 15.457032-9.828125h203.644531c9.421875.011719 17.054687 7.644531 17.066406 17.066406v238.933594c-.039063 32.976563-26.757813 59.699219-59.734375 59.734375zm-160.976562-298.667969 27.042968 32.460938c3.832032 4.601562 5.929688 10.398437 5.933594 16.386719v190.085937c.027344 23.554687 19.113281 42.640625 42.667969 42.667969h85.332031c23.554688-.027344 42.640625-19.113282 42.667969-42.667969v-238.933594zm0 0"/><path d="m503.386719 324.269531c-1.191407 0-2.371094-.25-3.460938-.738281l-48.476562-21.546875c-14.957031-6.695313-32.304688-5.21875-45.914063 3.90625-18.226562 12.210937-41.398437 14.34375-61.546875 5.667969l-31.695312-13.582032c-4.234375-1.917968-6.160157-6.867187-4.328125-11.140624 1.832031-4.269532 6.746094-6.289063 11.050781-4.542969l31.691406 13.582031c14.839844 6.394531 31.90625 4.824219 45.332031-4.167969 18.472657-12.398437 42.03125-14.410156 62.339844-5.320312l48.476563 21.550781c3.683593 1.636719 5.722656 5.628906 4.886719 9.570312-.839844 3.945313-4.320313 6.765626-8.355469 6.761719zm0 0"/><path d="m375.386719 247.464844h-17.066407c-4.710937 0-8.53125-3.820313-8.53125-8.53125 0-4.714844 3.820313-8.535156 8.53125-8.535156h17.066407c4.714843 0 8.535156 3.820312 8.535156 8.535156 0 4.710937-3.820313 8.53125-8.535156 8.53125zm0 0"/><path d="m469.253906 247.464844h-59.734375c-4.710937 0-8.53125-3.820313-8.53125-8.53125 0-4.714844 3.820313-8.535156 8.53125-8.535156h59.734375c4.714844 0 8.535156 3.820312 8.535156 8.535156 0 4.710937-3.820312 8.53125-8.535156 8.53125zm0 0"/></svg>