<svg height="480pt" viewBox="0 0 480.03874 480" width="480pt" xmlns="http://www.w3.org/2000/svg"><path d="m336 472.019531h-192c-8.835938 0-16-7.164062-16-16 0-8.835937 7.164062-16 16-16h32l32-48h64l40 48h24c8.835938 0 16 7.164063 16 16 0 8.835938-7.164062 16-16 16zm0 0" fill="#d9d9d9"/><path d="m40 8.019531h400c17.671875 0 32 14.328125 32 32v320c0 17.671875-14.328125 32-32 32h-400c-17.671875 0-32-14.328125-32-32v-320c0-17.671875 14.328125-32 32-32zm0 0" fill="#d9d9d9"/><path d="m472 328.019531h-464v-288c0-17.671875 14.328125-32 32-32h400c17.671875 0 32 14.328125 32 32zm0 0" fill="#5abcf3"/><path d="m455.144531 440.019531c-1.890625.003907-3.703125-.746093-5.039062-2.082031-1.335938-1.335938-2.082031-3.148438-2.082031-5.039062v-80.878907c0-35.347656-28.652344-64-64-64h-32.023438c-35.347656 0-64 28.652344-64 64v80.878907c.003906 1.890624-.746094 3.703124-2.082031 5.039062-1.335938 1.335938-3.148438 2.085938-5.039063 2.082031-8.039062-.179687-15.046875 5.429688-16.640625 13.3125-.789062 4.644531.503907 9.402344 3.542969 13.003907 3.039062 3.601562 7.507812 5.679687 12.21875 5.683593h176c5.136719-.015625 9.953125-2.488281 12.960938-6.652343 3.007812-4.164063 3.839843-9.515626 2.238281-14.394532-2.414063-6.746094-8.894531-11.167968-16.054688-10.953125zm0 0" fill="#99d8aa"/><path d="m380.425781 373.285156-17.699219-8.839844c-1.675781-.839843-2.734374-2.550781-2.734374-4.425781s1.058593-3.585937 2.734374-4.425781c3.316407-1.652344 7.214844-1.652344 10.53125 0l7.15625 3.585938c3.957032 1.976562 8.761719.371093 10.738282-3.585938 1.976562-3.953125.371094-8.757812-3.585938-10.734375l-7.152344-3.574219c-1.425781-.660156-2.90625-1.195312-4.421874-1.601562v-11.664063h-15.992188v11.671875c-1.515625.40625-2.992188.941406-4.414062 1.601563-7.101563 3.542969-11.585938 10.800781-11.585938 18.734375s4.484375 15.191406 11.585938 18.734375l17.695312 8.839843c1.675781.839844 2.734375 2.550782 2.734375 4.425782s-1.058594 3.585937-2.734375 4.425781c-3.316406 1.652344-7.214844 1.652344-10.527344 0l-7.160156-3.585937c-3.957031-1.976563-8.761719-.371094-10.738281 3.585937-1.972657 3.953125-.371094 8.757813 3.585937 10.734375l7.152344 3.574219c1.425781.660156 2.90625 1.195312 4.421875 1.601562v11.65625h16v-11.671875c1.515625-.40625 2.992187-.941406 4.417969-1.601562 7.097656-3.546875 11.582031-10.800782 11.582031-18.734375 0-7.9375-4.484375-15.191407-11.582031-18.738281zm0 0" fill="#85bc94"/><path d="m375.824219 54.554688c0-.070313 0-.144532 0-.214844-.226563-1.054688-.660157-2.054688-1.28125-2.9375-.039063-.054688-.109375-.085938-.152344-.144532-.039063-.054687-.039063-.109374-.078125-.160156-.183594-.238281-.472656-.34375-.679688-.550781-.535156-.585937-1.152343-1.085937-1.832031-1.488281-.359375-.167969-.734375-.308594-1.113281-.421875-.671875-.257813-1.378906-.417969-2.09375-.480469-.210938-.015625-.386719-.136719-.59375-.136719h-32c-4.417969 0-8 3.582031-8 8s3.582031 8 8 8h6.792969l-111.496094 78.703125-75.722656-37.863281c-2.925781-1.464844-6.449219-1-8.894531 1.175781l-72 64c-3.3125 2.9375-3.617188 8.007813-.679688 11.320313s8.007812 3.617187 11.320312.679687l67.945313-60.414062 75.199219 37.597656c2.636718 1.316406 5.785156 1.078125 8.191406-.625l118.398438-83.574219-2.773438 11.097657c-1.074219 4.285156 1.527344 8.628906 5.816406 9.703124.621094.144532 1.261719.210938 1.902344.199219 3.667969-.003906 6.859375-2.5 7.753906-6.054687l8-32c0-.097656 0-.183594 0-.28125.226563-1.027344.25-2.089844.070313-3.128906zm0 0" fill="#6b9777"/><path d="m320 256.019531c-4.417969 0-8-3.582031-8-8v-120c0-4.417969 3.582031-8 8-8s8 3.582031 8 8v120c0 4.417969-3.582031 8-8 8zm0 0" fill="#277baa"/><path d="m80 256.019531c-4.417969 0-8-3.582031-8-8v-40c0-4.417969 3.582031-8 8-8s8 3.582031 8 8v40c0 4.417969-3.582031 8-8 8zm0 0" fill="#4799cf"/><path d="m128 256.019531c-4.417969 0-8-3.582031-8-8v-72c0-4.417969 3.582031-8 8-8s8 3.582031 8 8v72c0 4.417969-3.582031 8-8 8zm0 0" fill="#277baa"/><path d="m224 256.019531c-4.417969 0-8-3.582031-8-8v-72c0-4.417969 3.582031-8 8-8s8 3.582031 8 8v72c0 4.417969-3.582031 8-8 8zm0 0" fill="#277baa"/><path d="m272 256.019531c-4.417969 0-8-3.582031-8-8v-88c0-4.417969 3.582031-8 8-8s8 3.582031 8 8v88c0 4.417969-3.582031 8-8 8zm0 0" fill="#4799cf"/><path d="m176 256.019531c-4.417969 0-8-3.582031-8-8v-88c0-4.417969 3.582031-8 8-8s8 3.582031 8 8v88c0 4.417969-3.582031 8-8 8zm0 0" fill="#4799cf"/><path d="m56 72.019531h-16v-24c0-4.417969 3.582031-8 8-8h24v16h-16zm0 0" fill="#75caf9"/><path d="m40 88.019531h16v16h-16zm0 0" fill="#75caf9"/><path d="m88 40.019531h16v16h-16zm0 0" fill="#75caf9"/><path d="m120 40.019531h16v16h-16zm0 0" fill="#75caf9"/><path d="m48 352.019531h56v16h-56zm0 0" fill="#ebebeb"/><path d="m120 352.019531h16v16h-16zm0 0" fill="#ebebeb"/><path d="m360 208.019531h16v16h-16zm0 0" fill="#f7ba61"/><path d="m360 176.019531h16v16h-16zm0 0" fill="#f7ba61"/><path d="m360 144.019531h16v16h-16zm0 0" fill="#f7ba61"/><path d="m360 112.019531h16v16h-16zm0 0" fill="#f7ba61"/><path d="m344 256.019531h-288c-4.417969 0-8-3.582031-8-8s3.582031-8 8-8h288c4.417969 0 8 3.582031 8 8s-3.582031 8-8 8zm0 0" fill="#277baa"/><path d="m389.3125 268.019531-13.3125 20h-16l-13.3125-20c-1.746094-2.621093-2.683594-5.699219-2.6875-8.847656v-19.152344l24 8 24-8v19.152344c-.003906 3.148437-.941406 6.226563-2.6875 8.847656zm0 0" fill="#99d8aa"/><path d="m360 296.019531c-4.417969 0-8-3.582031-8-8s3.582031-8 8-8c9.738281.003907 19.410156-1.5625 28.648438-4.648437l11.351562-3.785156c12.933594-4.328126 24.6875-11.59375 34.34375-21.222657 3.140625-3.03125 8.128906-2.988281 11.214844.097657 3.085937 3.085937 3.128906 8.074218.097656 11.214843-11.410156 11.386719-25.304688 19.972657-40.59375 25.085938l-11.351562 3.785156c-10.867188 3.628906-22.253907 5.476563-33.710938 5.472656zm0 0" fill="#85bc94"/><path d="m176 280.019531h128v192h-128zm0 0" fill="#ffc5c3"/><path d="m200 312.019531h80v32h-80zm0 0" fill="#c0f5f9"/><g fill="#eea5a9"><path d="m200 368.019531h16v16h-16zm0 0"/><path d="m232 368.019531h16v16h-16zm0 0"/><path d="m264 368.019531h16v16h-16zm0 0"/><path d="m200 400.019531h16v16h-16zm0 0"/><path d="m232 400.019531h16v16h-16zm0 0"/><path d="m264 400.019531h16v16h-16zm0 0"/><path d="m200 432.019531h16v16h-16zm0 0"/><path d="m232 432.019531h16v16h-16zm0 0"/><path d="m264 432.019531h16v16h-16zm0 0"/></g><path d="m208 352.019531h72c4.417969 0 8-3.582031 8-8v-32c0-4.417969-3.582031-8-8-8h-72c-4.417969 0-8 3.582031-8 8v32c0 4.417969 3.582031 8 8 8zm8-32h56v16h-56zm0 0"/><path d="m200 368.019531h16v16h-16zm0 0"/><path d="m232 368.019531h16v16h-16zm0 0"/><path d="m264 368.019531h16v16h-16zm0 0"/><path d="m200 400.019531h16v16h-16zm0 0"/><path d="m232 400.019531h16v16h-16zm0 0"/><path d="m264 400.019531h16v16h-16zm0 0"/><path d="m200 432.019531h16v16h-16zm0 0"/><path d="m232 432.019531h16v16h-16zm0 0"/><path d="m264 432.019531h16v16h-16zm0 0"/><path d="m40 400.019531h128v32h-24c-13.253906 0-24 10.746094-24 24 0 13.253907 10.746094 24 24 24h312c7.683594.011719 14.910156-3.65625 19.4375-9.867187 4.523438-6.210938 5.800781-14.214844 3.433594-21.523438-3.339844-9.820312-12.5-16.472656-22.871094-16.609375v-35.335937c14.59375-6.347656 24.023438-20.75 24-36.664063v-320c-.027344-22.082031-17.917969-39.972656-40-39.9999998h-400c-22.082031.0273438-39.9726562 17.9179688-40 39.9999998v320c.0273438 22.082031 17.917969 39.972657 40 40zm128 64h-24c-4.417969 0-8-3.582031-8-8s3.582031-8 8-8h24zm128-154.015625v.359375 153.65625h-112v-176h112zm167.574219 143.320313c.859375 2.515625.433593 5.292969-1.132813 7.4375-1.5 2.058593-3.894531 3.269531-6.441406 3.257812h-144v-151.082031c10.515625-10.789062 24.933594-16.890625 40-16.917969h32c30.914062.035157 55.964844 25.085938 56 56v37.425781c-.261719 1.140626-.261719 2.328126 0 3.46875v40c.023438 8.347657 6.796875 15.105469 15.144531 15.105469 3.652344-.199219 7.03125 1.925781 8.429688 5.304688zm-111.574219-194.105469v-8.101562l13.472656 4.496093c1.640625.542969 3.414063.542969 5.054688 0l13.472656-4.496093v8.101562c0 1.578125-.464844 3.121094-1.34375 4.433594l-10.9375 16.367187h-7.4375l-10.9375-16.40625c-.871094-1.300781-1.335938-2.828125-1.34375-4.394531zm112 100.800781c.003906 6.828125-2.90625 13.332031-8 17.878907v-25.878907c-.015625-5.386719-.640625-10.753906-1.855469-16h9.855469zm-448-320c0-13.253906 10.746094-24 24-24h400c13.253906 0 24 10.746094 24 24v280h-15.601562c-8.042969-16.113281-21.808594-28.644531-38.605469-35.144531 13.425781-5.175781 25.636719-13.074219 35.863281-23.199219 3.03125-3.140625 2.988281-8.128906-.097656-11.214843-3.085938-3.085938-8.074219-3.128907-11.214844-.097657-9.65625 9.628907-21.410156 16.894531-34.34375 21.222657l-4.40625 1.472656.375-.566406c2.625-3.929688 4.027344-8.546876 4.03125-13.273438v-19.199219c0-2.570312-1.234375-4.988281-3.320312-6.492187-2.085938-1.503906-4.769532-1.914063-7.207032-1.101563l-21.472656 7.203125-21.472656-7.203125c-2.4375-.8125-5.121094-.402343-7.207032 1.101563-2.085937 1.503906-3.320312 3.921875-3.320312 6.492187h-8v-112c0-4.417969-3.582031-8-8-8s-8 3.582031-8 8v112h-32v-80c0-4.417969-3.582031-8-8-8s-8 3.582031-8 8v80h-32v-64c0-4.417969-3.582031-8-8-8s-8 3.582031-8 8v64h-32v-80c0-4.417969-3.582031-8-8-8s-8 3.582031-8 8v80h-32v-64c0-4.417969-3.582031-8-8-8s-8 3.582031-8 8v64h-32v-32c0-4.417969-3.582031-8-8-8s-8 3.582031-8 8v32h-16c-4.417969 0-8 3.582031-8 8s3.582031 8 8 8h280v3.199219c-.015625 4.734375 1.378906 9.371094 4 13.3125l5.257812 7.886719c-11.898437 1.128906-23.328124 5.203125-33.257812 11.855469v-12.253907c0-4.417969-3.582031-8-8-8h-128c-4.417969 0-8 3.582031-8 8v40h-152zm0 296h152v48h-128c-13.253906 0-24-10.746093-24-24zm0 0"/><path d="m80 184.019531c1.960938.003907 3.855469-.714843 5.320312-2.015625l67.945313-60.382812 75.199219 37.597656c2.636718 1.316406 5.785156 1.078125 8.191406-.625l118.398438-83.574219-2.773438 11.097657c-1.074219 4.285156 1.527344 8.628906 5.816406 9.703124.621094.144532 1.261719.210938 1.902344.199219 3.667969-.003906 6.859375-2.5 7.753906-6.054687l8-32c0-.097656 0-.183594 0-.28125.222656-1.027344.238282-2.09375.054688-3.128906 0-.070313 0-.144532 0-.214844-.226563-1.054688-.660156-2.054688-1.28125-2.9375-.039063-.054688-.113282-.085938-.152344-.144532-.039062-.054687-.039062-.109374-.078125-.160156-.183594-.238281-.472656-.34375-.679687-.550781-.535157-.585937-1.152344-1.085937-1.832032-1.488281-.363281-.167969-.734375-.308594-1.113281-.421875-.671875-.257813-1.378906-.417969-2.097656-.480469-.191407-.015625-.367188-.136719-.574219-.136719h-32c-4.417969 0-8 3.582031-8 8s3.582031 8 8 8h6.792969l-111.496094 78.703125-75.722656-37.863281c-2.925781-1.464844-6.449219-1-8.894531 1.175781l-72 64c-2.488282 2.207032-3.347657 5.722656-2.167969 8.828125 1.183593 3.109375 4.164062 5.160157 7.488281 5.15625zm0 0"/><path d="m56 56.019531h16v-16h-24c-4.417969 0-8 3.582031-8 8v24h16zm0 0"/><path d="m40 88.019531h16v16h-16zm0 0"/><path d="m88 40.019531h16v16h-16zm0 0"/><path d="m120 40.019531h16v16h-16zm0 0"/><path d="m48 352.019531h56v16h-56zm0 0"/><path d="m120 352.019531h16v16h-16zm0 0"/><path d="m360 208.019531h16v16h-16zm0 0"/><path d="m360 176.019531h16v16h-16zm0 0"/><path d="m360 144.019531h16v16h-16zm0 0"/><path d="m360 112.019531h16v16h-16zm0 0"/><path d="m380.425781 373.285156-17.699219-8.839844c-1.675781-.839843-2.734374-2.550781-2.734374-4.425781s1.058593-3.585937 2.734374-4.425781c3.316407-1.652344 7.214844-1.652344 10.53125 0l7.15625 3.585938c3.957032 1.976562 8.761719.371093 10.738282-3.585938 1.976562-3.953125.371094-8.757812-3.585938-10.734375l-7.152344-3.574219c-1.425781-.660156-2.90625-1.195312-4.421874-1.601562v-11.664063h-15.992188v11.671875c-1.515625.40625-2.992188.941406-4.414062 1.601563-7.101563 3.542969-11.585938 10.800781-11.585938 18.734375s4.484375 15.191406 11.585938 18.734375l17.695312 8.839843c1.675781.839844 2.734375 2.550782 2.734375 4.425782s-1.058594 3.585937-2.734375 4.425781c-3.316406 1.652344-7.214844 1.652344-10.527344 0l-7.160156-3.585937c-3.957031-1.976563-8.761719-.371094-10.738281 3.585937-1.972657 3.953125-.371094 8.757813 3.585937 10.734375l7.152344 3.574219c1.425781.660156 2.90625 1.195312 4.421875 1.601562v11.65625h16v-11.671875c1.515625-.40625 2.992187-.941406 4.417969-1.601562 7.097656-3.546875 11.582031-10.800782 11.582031-18.734375 0-7.9375-4.484375-15.191407-11.582031-18.738281zm0 0"/></svg>