<svg height="480pt" viewBox="0 0 480.08076 480" width="480pt" xmlns="http://www.w3.org/2000/svg"><path d="m272.015625 168.039062c-6.847656-47.796874-7.941406-80-7.941406-80h-48c-.539063 26.839844-3.214844 53.589844-8 80zm0 0" fill="#ffd782"/><path d="m160.074219 336.039062c-18.050781 47.9375-40 88-64 136h64s0-104 80-104 80 104 80 104h64c-24-48-46.847657-88.0625-64-136zm0 0" fill="#ffd782"/><path d="m328.074219 96.039062v-8c-.574219-6.523437 1.769531-12.96875 6.398437-17.597656 4.632813-4.632812 11.074219-6.976562 17.601563-6.402344h8c4.742187-15.199218 16-24 40-24 17.816406 0 36.144531 7.457032 40 24h8c6.417969-.179687 12.628906 2.292969 17.167969 6.832032 4.539062 4.539062 7.011718 10.75 6.832031 17.167968v8zm0 0" fill="#87cee9"/><path d="m8.074219 144.039062v-8c-.574219-6.523437 1.769531-12.96875 6.398437-17.597656 4.632813-4.632812 11.074219-6.976562 17.601563-6.402344h8c4.742187-15.199218 16-24 40-24 17.816406 0 36.144531 7.457032 40 24h8c6.417969-.179687 12.628906 2.292969 17.167969 6.832032 4.539062 4.539062 7.011718 10.75 6.832031 17.167968v8zm0 0" fill="#87cee9"/><path d="m224.074219 24.039062h32v32h-32zm0 0" fill="#d9833b"/><path d="m200.074219 56.039062h80v32h-80zm0 0" fill="#f9bb4b"/><path d="m232.074219.0390625h16v23.9999995h-16zm0 0" fill="#f9bb4b"/><path d="m280.730469 200.039062h-80.65625c-5.984375 35.101563-14 69.828126-24 104h32l16-72h32l16 72h32c-9.839844-34.171874-17.636719-68.898437-23.34375-104zm0 0" fill="#ffd782"/><path d="m232.074219 144.039062h16v24h-16zm0 0" fill="#fef59c"/><path d="m316.074219 440.039062c2.386719 10.507813 3.726562 21.230469 4 32h64c-5.519531-11.03125-10.960938-21.597656-16.296875-32zm0 0" fill="#f9bb4b"/><path d="m112.257812 440.039062c-5.273437 10.402344-10.664062 20.96875-16.183593 32h64c.273437-10.769531 1.613281-21.492187 4-32zm0 0" fill="#f9bb4b"/><path d="m40.074219 464.039062h400v16h-400zm0 0" fill="#617e91"/><path d="m296.074219 200.039062h-112l-8-32h128zm0 0" fill="#f9bb4b"/><path d="m336.074219 336.039062h-192l-8-32h208zm0 0" fill="#f9bb4b"/><path d="m448.074219 56.039062h-2.304688c-6.671875-14.773437-23.855469-24-45.695312-24-23.289063 0-38.242188 7.867188-45.511719 24h-2.488281c-8.660157-.601562-17.15625 2.574219-23.292969 8.710938s-9.3125 14.632812-8.707031 23.289062v8c0 4.417969 3.582031 8 8 8h144c4.417969 0 8-3.582031 8-8v-8c.191406-8.542968-3.117188-16.792968-9.164063-22.835937-6.042968-6.046875-14.292968-9.355469-22.835937-9.164063zm-112 32c-.546875-4.386718.964843-8.78125 4.089843-11.90625 3.128907-3.125 7.519532-4.636718 11.910157-4.09375h8c3.496093.003907 6.589843-2.261718 7.636719-5.597656 2.96875-9.601562 8.945312-18.402344 32.363281-18.402344 12.933593 0 29.144531 4.664063 32.207031 17.816407.84375 3.621093 4.074219 6.183593 7.792969 6.183593h8c4.300781-.199218 8.488281 1.421876 11.53125 4.46875 3.046875 3.042969 4.667969 7.230469 4.46875 11.53125zm0 0"/><path d="m8.074219 152.039062h144c4.417969 0 8-3.582031 8-8v-8c.191406-8.542968-3.117188-16.792968-9.164063-22.835937-6.042968-6.046875-14.292968-9.355469-22.835937-9.164063h-2.304688c-6.671875-14.773437-23.855469-24-45.695312-24-23.289063 0-38.242188 7.867188-45.511719 24h-2.488281c-8.660157-.601562-17.15625 2.574219-23.292969 8.710938s-9.3125 14.632812-8.7070312 23.289062v8c0 4.417969 3.5820312 8 8.0000002 8zm24-32h8c3.496093.003907 6.589843-2.261718 7.636719-5.597656 2.96875-9.601562 8.945312-18.402344 32.363281-18.402344 12.933593 0 29.144531 4.664063 32.207031 17.816407.84375 3.621093 4.074219 6.183593 7.792969 6.183593h8c4.300781-.199218 8.488281 1.421876 11.53125 4.46875 3.046875 3.042969 4.667969 7.230469 4.46875 11.53125h-128c-.546875-4.386718.964843-8.78125 4.089843-11.90625 3.128907-3.125 7.519532-4.636718 11.910157-4.09375zm0 0"/><path d="m170.066406 296.039062h-33.992187c-2.464844 0-4.792969 1.136719-6.308594 3.078126-1.515625 1.945312-2.050781 4.476562-1.453125 6.867187l8 32c.890625 3.558594 4.089844 6.054687 7.761719 6.054687h4.144531c-13.371094 33.511719-28.800781 64.203126-45.105469 96.335938-3.914062 7.707031-7.914062 15.597656-12 23.664062h-51.039062v16h400v-16h-51.082031c-4.800782-9.53125-9.535157-18.820312-14.207032-27.871093-16-29.902344-30.355468-60.660157-43-92.128907h4.289063c3.667969 0 6.867187-2.496093 7.757812-6.054687l8-32c.597657-2.390625.0625-4.921875-1.453125-6.867187-1.515625-1.941407-3.84375-3.078126-6.304687-3.078126h-33.960938c-8.132812-28.96875-14.761719-58.34375-19.863281-88h5.824219c3.667969 0 6.867187-2.496093 7.757812-6.054687l8-32c.597657-2.390625.0625-4.921875-1.453125-6.867187-1.515625-1.941407-3.84375-3.078126-6.304687-3.078126h-25.097657c-4-29.597656-5.769531-52.460937-6.480468-64h15.578125v-48h-24v-32h-16v-15.9999995h-16v15.9999995h-16v32h-24v48h15.816406c-.9375 21.445313-3.144531 42.816407-6.609375 64h-25.207031c-2.464844 0-4.792969 1.136719-6.308594 3.078126-1.515625 1.945312-2.050781 4.476562-1.453125 6.867187l8 32c.890625 3.558594 4.089844 6.054687 7.761719 6.054687h6.285156l-1.007813 5.175782c-4.984374 27.925781-11.421874 55.570312-19.285156 82.824218zm-17.753906 168h-43.261719c2.738281-5.417968 5.445313-10.75 8.117188-16h36.9375c-.867188 5.300782-1.464844 10.640626-1.792969 16zm16.136719 0c1.769531-23.199218 12.046875-88 71.625-88 59.574219 0 69.855469 64.800782 71.621093 88zm202.632812 0h-43.25c-.328125-5.359374-.925781-10.699218-1.792969-16h36.800782c2.761718 5.28125 5.480468 10.5625 8.242187 16zm-16.378906-32h-32.160156c-9.597657-35.199218-33.148438-72-82.46875-72-49.320313 0-72.90625 36.800782-82.472657 72h-32.34375c14.902344-28.640624 28.359376-58.007812 40.320313-88h148.894531c11.636719 30.113282 25.070313 59.5 40.230469 88zm-20.878906-120-4 16h-179.503907l-4-16zm-115.773438-16 12.421875-56h19.199219l12.441406 56zm14.023438-264h16v16h-16zm-24 32h64v16h-64zm24 80v16h-14.578125c3.398437-21.1875 5.535156-42.558593 6.402344-64h32.550781c.65625 11.203126 2.335937 33.960938 6.398437 64h-14.773437v-16zm-41.753907 48-4-16h107.503907l-4 16zm14.746094 24.21875 1.597656-8.21875h67.335938c4.359375 24.800782 10.402344 55.632813 19.441406 88h-14.96875l-14.601562-65.734374c-.8125-3.65625-4.050782-6.261719-7.796875-6.265626h-32c-3.753907 0-7.003907 2.601563-7.816407 6.265626l-14.585937 65.734374h-14.800781c8.160156-27.933593 13.457031-55.320312 18.195312-79.78125zm0 0"/></svg>