<svg height="480pt" viewBox="-24 0 480 480" width="480pt" xmlns="http://www.w3.org/2000/svg"><path d="m24 8h16c8.835938 0 16 7.164062 16 16v320h-48v-320c0-8.835938 7.164062-16 16-16zm0 0" fill="#db527d"/><path d="m8 344h384v128h-352c-17.671875 0-32-14.328125-32-32zm0 0" fill="#f1c056"/><path d="m56 376h336v64h-336c-8.835938 0-16-7.164062-16-16v-32c0-8.835938 7.164062-16 16-16zm0 0" fill="#d3843d"/><path d="m56 24h336v320h-336zm0 0" fill="#f9bb4b"/><path d="m112 408h48v64h-48zm0 0" fill="#32b1cc"/><path d="m64 400h176v16h-176zm0 0" fill="#195c85"/><path d="m256 400h16v16h-16zm0 0" fill="#195c85"/><path d="m312 400h80v16h-80zm0 0" fill="#195c85"/><path d="m392 56h32v48h-32zm0 0" fill="#7d8d9c"/><path d="m392 136h32v48h-32zm0 0" fill="#5a6470"/><path d="m392 216h32v48h-32zm0 0" fill="#7d8d9c"/><path d="m88 104h272v160h-272zm0 0" fill="#32b1cc"/><g fill="#e33e5c"><path d="m200.238281 233.9375-22.484375-89.9375h-19.507812l-22.484375 89.9375-15.523438-3.875 25.515625-102.0625h44.492188l25.515625 102.0625zm0 0"/><path d="m136 176h64v16h-64zm0 0"/><path d="m320 232h-32v-64h-48v-16h64v64h16zm0 0"/><path d="m304 232h-64v-48h64zm-48-16h32v-16h-32zm0 0"/></g><path d="m96 80h-16v-32h48v16h-32zm0 0" fill="#f1c056"/><path d="m352 48h16v16h-16zm0 0" fill="#f1c056"/><path d="m62.527344 16c-3.378906-9.554688-12.394532-15.9570312-22.527344-16h-16c-13.253906 0-24 10.746094-24 24v416c.0273438 22.082031 17.917969 39.972656 40 40h360v-208h32v-64h-32v-16h32v-64h-32v-16h32v-64h-32v-32zm-46.527344 8c0-4.417969 3.582031-8 8-8h16c4.417969 0 8 3.582031 8 8v312h-32zm104 440v-48h32v48zm264-64h-72v16h72v16h-216v-16h72v-16h-176v16h40v16h-48c-4.417969 0-8-3.582031-8-8v-32c0-4.417969 3.582031-8 8-8h328zm0 64h-216v-16h216zm0-96h-328c-13.253906 0-24 10.746094-24 24v32c0 13.253906 10.746094 24 24 24h48v16h-64c-13.253906 0-24-10.746094-24-24v-88h368zm32-144v32h-16v-32zm0-80v32h-16v-32zm-32 192h-320v-304h320zm32-272v32h-16v-32zm0 0"/><path d="m256 400h16v16h-16zm0 0"/><path d="m80 272h288v-176h-288zm16-160h256v144h-256zm0 0"/><path d="m145.753906 128-25.515625 102.0625 15.523438 3.875 10.484375-41.9375h43.507812l10.484375 41.9375 15.523438-3.875-25.515625-102.0625zm4.492188 48 8-32h19.507812l8 32zm0 0"/><path d="m304 152h-64v16h48v16h-48v48h80v-16h-16zm-16 64h-32v-16h32zm0 0"/><path d="m96 64h32v-16h-48v32h16zm0 0"/><path d="m352 48h16v16h-16zm0 0"/></svg>