<?xml version="1.0" encoding="iso-8859-1"?>
<!-- Generator: Adobe Illustrator 19.0.0, SVG Export Plug-In . SVG Version: 6.00 Build 0)  -->
<svg xmlns="http://www.w3.org/2000/svg" xmlns:xlink="http://www.w3.org/1999/xlink" version="1.1" id="Layer_1" x="0px" y="0px" viewBox="0 0 512 512" style="enable-background:new 0 0 512 512;" xml:space="preserve" width="512" height="512">
<g>
	<rect x="10.007" y="439.31" style="fill:#A84E2A;" width="272" height="40"/>
	<path style="fill:#AAAAA0;" d="M262.007,439.31h-232v-20c0-22.091,17.909-40,40-40h152c22.091,0,40,17.909,40,40V439.31z"/>
	<path style="fill:#A84E2A;" d="M467.865,473.452L128.454,134.041c-7.81-7.81-7.81-20.474,0-28.284l0,0   c7.81-7.81,20.474-7.81,28.284,0l339.411,339.411c7.81,7.81,7.81,20.474,0,28.284l0,0   C488.339,481.263,475.675,481.263,467.865,473.452z"/>
	
		<rect x="117.65" y="114.953" transform="matrix(0.7071 -0.7071 0.7071 0.7071 -69.9623 201.0019)" style="fill:#A84E2A;" width="180" height="140"/>
	<path style="fill:#FFD077;" d="M189.972,329.91L189.972,329.91c-9.763,9.763-25.592,9.763-35.355,0l-91.924-91.924   c-9.763-9.763-9.763-25.592,0-35.355l0,0c9.763-9.763,25.592-9.763,35.355,0l91.924,91.924   C199.735,304.318,199.735,320.147,189.972,329.91z"/>
	<path style="fill:#FFD077;" d="M352.606,167.275L352.606,167.275c-9.763,9.763-25.592,9.763-35.355,0l-91.924-91.924   c-9.763-9.763-9.763-25.592,0-35.355l0,0c9.763-9.763,25.592-9.763,35.355,0l91.924,91.924   C362.37,141.683,362.37,157.512,352.606,167.275z"/>
	
		<rect x="306.444" y="283.747" transform="matrix(0.7071 0.7071 -0.7071 0.7071 310.3945 -141.8651)" style="fill:#FFD077;" width="40" height="40"/>
	<g>
		<path d="M282.008,429.451h-10v-10.008c0-27.593-22.43-50.041-50.001-50.041H70.002c-27.571,0-50.001,22.448-50.001,50.041v10.008    H10c-5.523,0-10,4.481-10,10.008v40.033c0,5.527,4.477,10.008,10,10.008h272.007c5.523,0,10-4.481,10-10.008v-40.033    C292.008,433.932,287.531,429.451,282.008,429.451z M40.001,419.443c0-16.555,13.458-30.024,30.001-30.024h152.004    c16.542,0,30.001,13.469,30.001,30.024v10.008H40.001V419.443z M272.007,469.484H20.001v-20.016h252.007V469.484z"/>
		<path d="M503.227,438.245L285.433,220.279l37.749-37.779c3.792,1.346,7.77,2.023,11.749,2.023c8.963,0,17.926-3.414,24.75-10.243    c13.647-13.658,13.647-35.88,0-49.538l-91.926-91.999c-13.647-13.658-35.853-13.658-49.499,0    c-9.853,9.861-12.588,24.185-8.214,36.528l-37.749,37.779l-8.485-8.492c-11.698-11.706-30.73-11.706-42.428,0    c-11.697,11.707-11.697,30.754,0,42.461l8.485,8.492L92.115,187.29c-12.333-4.378-26.646-1.64-36.499,8.221    c-13.647,13.658-13.647,35.88,0,49.538l91.926,91.999c6.823,6.829,15.787,10.243,24.75,10.243c8.963,0,17.926-3.414,24.75-10.243    c9.853-9.861,12.588-24.185,8.214-36.528l37.749-37.779l217.795,217.966c5.849,5.853,13.532,8.78,21.214,8.78    s15.365-2.927,21.214-8.78C514.924,468.999,514.924,449.952,503.227,438.245z M312.303,303.785l14.142-14.153l14.142,14.154    l-14.142,14.153L312.303,303.785z M250.076,227.356l-21.214-21.231c-3.905-3.908-10.238-3.908-14.143,0    c-3.905,3.908-3.905,10.246,0,14.154l21.214,21.231l-14.143,14.154l-35.355-35.383c-1.89-1.892-4.4-2.933-7.07-2.933    s-5.18,1.041-7.07,2.933c-3.9,3.903-3.9,10.248,0,14.151l35.351,35.387l-14.14,14.151l-84.855-84.922L221.791,85.82l84.855,84.922    L250.076,227.356z M232.398,46.897c2.924-2.927,6.765-4.39,10.607-4.39s7.683,1.464,10.607,4.39l91.926,91.999    c5.849,5.853,5.849,15.377,0,21.23c-5.848,5.853-15.366,5.853-21.213,0l-91.926-91.999    C226.549,62.275,226.549,52.75,232.398,46.897z M135.522,126.865c-3.9-3.902-3.9-10.251,0-14.153    c1.949-1.951,4.51-2.927,7.071-2.927c2.561,0,5.122,0.975,7.071,2.927l8.485,8.492l-14.142,14.153L135.522,126.865z     M182.899,322.893c-5.848,5.853-15.366,5.853-21.213,0l-91.926-91.999c-5.849-5.853-5.849-15.377,0-21.23    c2.924-2.927,6.765-4.39,10.607-4.39s7.683,1.464,10.607,4.39l91.926,91.999C188.747,307.516,188.747,317.04,182.899,322.893z     M271.29,234.433l41.013,41.045l-14.142,14.153l-41.013-41.045L271.29,234.433z M489.084,466.552    c-3.899,3.903-10.243,3.903-14.142,0L340.588,332.093l14.142-14.153l134.354,134.459    C492.984,456.301,492.984,462.65,489.084,466.552z"/>
		<path d="M151.074,189.036c-2.67,0-5.18,1.041-7.07,2.933c-3.9,3.903-3.9,10.258,0,14.161c1.89,1.881,4.4,2.922,7.07,2.922    c2.68,0,5.19-1.041,7.08-2.922c3.89-3.903,3.89-10.258,0-14.161C156.264,190.077,153.754,189.036,151.074,189.036z"/>
	</g>
</g>















</svg>
