<svg height="512pt" viewBox="0 0 512 512.00218" width="512pt" xmlns="http://www.w3.org/2000/svg"><path d="m389.5625 186.644531c17.433594-8.304687 29.484375-26.085937 29.484375-46.683593 0-21.195313-12.769531-39.402344-31.027344-47.371094 1.652344-19.894532-8.355469-39.804688-27.0625-49.84375-12.933593-6.941406-27.496093-7.800782-40.429687-3.589844-4.609375-7.332031-11.113282-13.609375-19.289063-18-21.214843-11.386719-46.832031-6.441406-62.425781 10.488281-9.441406-10.230469-22.957031-16.640625-37.972656-16.640625-14.679688 0-27.917969 6.132813-37.324219 15.960938-8.1875-4.660156-17.761719-7.15625-27.960937-6.683594-26.808594 1.246094-48.433594 23.289062-49.195313 50.121094-.363281 12.886718 3.996094 24.738281 11.46875 33.972656-5.683594 13.371094-8.800781 28.640625-8.800781 45.808594l-22.492188 92.527344c-1.53125 6.296874 3.238282 12.363281 9.71875 12.363281h25.59375l5.339844 60.210937c2.589844 24.347656 26.253906 40.679688 49.9375 34.457032l50.296875-13.214844v50.75l-93.726563 30.046875c-34.339843 11.011719-64.582031 32.082031-86.804687 60.484375l-26.890625 30.191406h511.996094l-36.523438-52.820312c-12.089844-21.242188-28.382812-39.796876-47.882812-54.535157l-89.632813-67.757812v-96.933594l-.089843-.074219c10.847656-13.867187 19.117187-29.84375 24.105468-47.210937zm0 0" fill="#ffdaab"/><path d="m360.957031 42.746094c-12.933593-6.941406-27.496093-7.800782-40.433593-3.585938-4.605469-7.335937-11.109376-13.613281-19.285157-18-14.558593-7.816406-31.195312-7.9375-45.238281-1.773437v492.617187h255.996094l-36.523438-52.820312c-12.089844-21.242188-28.382812-39.796875-47.882812-54.539063l-89.632813-67.757812v-96.933594l-.089843-.070313c10.847656-13.867187 19.117187-29.84375 24.105468-47.214843l27.589844-6.019531c17.433594-8.304688 29.480469-26.085938 29.480469-46.683594 0-21.199219-12.765625-39.402344-31.027344-47.375 1.65625-19.890625-8.351563-39.800782-27.058594-49.84375zm0 0" fill="#ffbe85"/><path d="m101.722656 117.753906c-18.386718-6.445312-30.804687-23.910156-30.367187-43.386718.003906-.132813.007812-.261719.011719-.390626.980468-34.65625 28.867187-63.066406 63.492187-64.679687 8.917969-.414063 17.765625.949219 26.046875 3.980469 11.453125-8.621094 25.296875-13.27343775 39.933594-13.27343775 13.628906 0 26.882812 4.22656275 37.953125 11.87890575 20.238281-14.058593 47.097656-15.988281 69.539062-3.941406 6.894531 3.703125 13.078125 8.59375 18.25 14.398438 14.167969-2.183594 28.566407.265625 41.46875 7.191406 20.382813 10.9375 33.40625 31.480469 34.984375 54.097656 19.109375 12.097656 31.007813 33.257813 31.007813 56.335938 0 25.582031-14.929688 49.222656-38.03125 60.222656-6.953125 3.308594-227.761719-59.113281-294.289063-82.433594zm0 0" fill="#cc8135"/><path d="m403.035156 83.625c-1.578125-22.613281-14.605468-43.15625-34.984375-54.09375-12.902343-6.925781-27.300781-9.375-41.46875-7.191406-5.171875-5.808594-11.351562-10.699219-18.25-14.398438-16.519531-8.867187-35.429687-10.152344-52.332031-4.613281v161.332031c70.367188 19.996094 136.261719 37.3125 140.011719 35.527344 23.101562-11.003906 38.03125-34.644531 38.03125-60.226562 0-23.074219-11.898438-44.238282-31.007813-56.335938zm0 0" fill="#a15615"/><path d="m310.078125 269.90625c-8.285156 0-15-6.714844-15-15 0-8.28125 6.714844-14.996094 15-14.996094 10.191406 0 18.476563-8.53125 18.476563-19.019531 0-10.484375-8.289063-19.015625-18.476563-19.015625-8.285156 0-15-6.714844-15-15s6.714844-15 15-15c26.730469 0 48.476563 21.988281 48.476563 49.015625 0 27.03125-21.746094 49.015625-48.476563 49.015625zm0 0" fill="#f59258"/><path d="m151.703125 205.75h-10.367187c-8.285157 0-15-6.714844-15-15s6.714843-15 15-15h10.367187c8.285156 0 15 6.714844 15 15s-6.714844 15-15 15zm0 0" fill="#f59258"/><path d="m343.113281 192.707031c-.816406.496094-1.683593.914063-2.597656 1.25-1.675781.617188-41.542969 15.054688-79.324219 11.078125-17.808594-1.875-36.425781-12.054687-55.324218-30.261718-13.277344-12.789063-21.945313-25.082032-22.308594-25.597657-2.695313-3.847656-3.433594-8.730469-1.996094-13.203125 1.4375-4.46875 4.886719-8.011718 9.316406-9.5625 1.699219-.597656 42.054688-14.550781 79.703125-10.585937 17.808594 1.875 36.328125 11.992187 55.039063 30.066406 13.148437 12.703125 21.683594 24.914063 22.039062 25.425781 2.652344 3.8125 3.386719 8.644532 1.988282 13.074219-1.105469 3.503906-3.445313 6.445313-6.535157 8.316406zm0 0" fill="#738c28"/><path d="m325.625 145.894531c-18.714844-18.078125-37.230469-28.191406-55.042969-30.070312-4.847656-.507813-9.738281-.71875-14.589843-.699219v89.109375c1.738281.335937 3.476562.621094 5.199218.800781 37.785156 3.980469 77.648438-10.460937 79.328125-11.078125.910157-.335937 1.777344-.753906 2.597657-1.25 3.085937-1.867187 5.425781-4.8125 6.53125-8.316406 1.398437-4.429687.664062-9.257813-1.984376-13.074219-.359374-.511718-8.894531-12.722656-22.039062-25.421875zm0 0" fill="#4b5f1e"/><path d="m391.566406 216.496094c-.953125 0-1.914062-.089844-2.867187-.277344-1.757813-.339844-43.335938-8.636719-73.59375-31.609375-14.265625-10.828125-24.914063-29.179687-31.652344-54.542969-4.734375-17.816406-5.777344-32.820312-5.820313-33.449218-.316406-4.683594 1.582032-9.246094 5.128907-12.328126 3.542969-3.078124 8.328125-4.320312 12.921875-3.351562 1.761718.367188 43.511718 9.335938 73.660156 32.226562 14.265625 10.828126 24.867188 29.074219 31.507812 54.226563 4.667969 17.675781 5.644532 32.539063 5.6875 33.164063.289063 4.636718-1.582031 9.148437-5.074218 12.214843-2.761719 2.421875-6.289063 3.726563-9.898438 3.726563zm0 0" fill="#8ca52d"/><path d="m389.824219 512 1.488281-134.78125-243.40625 134.78125zm0 0" fill="#faf9f5"/><path d="m256 512h133.824219l1.488281-134.78125-135.3125 74.925781zm0 0" fill="#e5e2d6"/></svg>