<svg height="511pt" viewBox="-66 0 511 511.99994" width="511pt" xmlns="http://www.w3.org/2000/svg"><path d="m127.359375 289.238281v199.511719l-25.242187 8.414062c-3.988282 1.332032-6.140626 5.640626-4.8125 9.628907 1.328124 3.988281 5.640624 6.144531 9.628906 4.8125l30.441406-10.148438c3.109375-1.035156 5.207031-3.941406 5.207031-7.21875v-205zm0 0" fill="#4f4f4f"/><path d="m203.472656 289.238281v199.511719l25.242188 8.414062c3.988281 1.332032 6.140625 5.640626 4.8125 9.628907s-5.640625 6.144531-9.628906 4.8125l-30.441407-10.148438c-3.109375-1.035156-5.207031-3.941406-5.207031-7.21875v-205zm0 0" fill="#353535"/><path d="m30.945312 96.414062h15.222657v60.890626h-15.222657zm0 0" fill="#ffcb63"/><path d="m23.335938 180.140625c-4.199219 0-7.613282-3.414063-7.613282-7.613281 0-4.199219 3.414063-7.613282 7.613282-7.613282h15.222656c4.203125 0 7.609375-3.40625 7.609375-7.609374 0-4.203126-3.40625-7.613282-7.609375-7.613282h-15.222656c-12.59375 0-22.835938 10.246094-22.835938 22.835938s10.242188 22.835937 22.835938 22.835937h142.078124v-15.222656zm0 0" fill="#60312c"/><path d="m38.558594 0c-12.132813 7.019531-20.296875 20.125-20.296875 35.148438v71.414062c0 11.207031 9.085937 20.296875 20.296875 20.296875 11.210937 0 20.296875-9.089844 20.296875-20.296875v-71.414062c0-15.023438-8.167969-28.128907-20.296875-35.148438zm0 0" fill="#ffe2a8"/><path d="m287.199219 182.675781h60.890625v136.5h-60.890625zm0 0" fill="#ffcb63"/><path d="m287.199219 197.898438v-15.222657c0-8.40625-6.816407-15.222656-15.222657-15.222656s-15.222656 6.816406-15.222656 15.222656v137.007813c0 8.40625 6.816406 15.222656 15.222656 15.222656s15.222657-6.816406 15.222657-15.222656v-15.222656h30.445312v-106.5625zm0 0" fill="#ffe2a8"/><path d="m363.316406 167.453125h-91.339844c8.40625 0 15.222657 6.816406 15.222657 15.222656v15.222657h91.339843v-15.222657c0-8.40625-6.816406-15.222656-15.222656-15.222656zm0 0" fill="#fff0d3"/><path d="m363.316406 334.90625h-91.339844c8.40625 0 15.222657-6.816406 15.222657-15.222656v-15.222656h91.339843v15.222656c0 8.40625-6.816406 15.222656-15.222656 15.222656zm0 0" fill="#fff0d3"/><path d="m165.414062 411.019531h22.835938l22.835938-15.222656v-91.335937h-76.117188zm0 0" fill="#85453d"/><path d="m165.414062 411.019531h-22.832031l-22.835937-15.222656v-91.335937h45.667968zm0 0" fill="#a45e43"/><path d="m150.191406 243.566406 15.222656 91.339844c25.222657 0 45.671876-20.445312 45.671876-45.667969zm0 0" fill="#353535"/><path d="m119.746094 289.238281c0 25.222657 20.445312 45.667969 45.667968 45.667969v-91.339844zm0 0" fill="#4f4f4f"/><path d="m188.25 167.453125h-22.835938l-30.445312 45.664063 30.445312 76.121093h45.671876zm0 0" fill="#4f4f4f"/><path d="m142.582031 167.453125-22.835937 121.785156h45.667968v-121.785156zm0 0" fill="#696969"/><path d="m165.414062 137.007812-11.414062 32.347657 11.414062 32.347656c0 6.308594 5.113282 11.417969 11.417969 11.417969 6.304688 0 11.417969-5.109375 11.417969-11.417969h15.222656l-15.222656-34.25v-7.613281c0-12.609375-10.222656-22.832032-22.835938-22.832032zm0 0" fill="#ccc"/><path d="m142.582031 159.839844v7.613281l-15.222656 34.25h15.222656c0 6.308594 5.109375 11.417969 11.417969 11.417969 6.304688 0 11.414062-5.109375 11.414062-11.417969v-64.695313c-12.609374 0-22.832031 10.222657-22.832031 22.832032zm0 0" fill="#ebebeb"/><path d="m104.53125 187.75-.007812 223.269531h38.058593v-243.566406h-17.753906c-11.210937 0-20.296875 9.085937-20.296875 20.296875zm0 0" fill="#60312c"/><path d="m206.011719 167.453125h-17.761719v243.566406h38.058594v-223.269531c0-11.210938-9.089844-20.296875-20.296875-20.296875zm0 0" fill="#40211d"/><path d="m233.125 108.675781c-.003906-3.554687-1.234375-6.8125-3.277344-9.398437l-28.5625-36.214844-35.871094 73.9375h60.894532c8.40625 0 15.222656-6.320312 15.222656-14.726562 0-5.953126-3.425781-11.097657-8.40625-13.597657zm0 0" fill="#ccc"/><path d="m97.707031 108.675781c.003907-3.554687 1.234375-6.8125 3.273438-9.398437l28.566406-36.214844 35.871094 73.9375s-52.492188 0-60.894531 0c-8.40625 0-15.222657-6.320312-15.222657-14.726562 0-5.953126 3.425781-11.097657 8.40625-13.597657zm0 0" fill="#ebebeb"/><path d="m194.121094 55.820312h-28.707032v81.179688c25.222657 0 45.671876-20.445312 45.671876-45.667969 0-14.347656-6.621094-27.140625-16.964844-35.511719zm0 0" fill="#ff8d7e"/><path d="m179.320312 72.742188-42.609374-16.925782c-10.34375 8.375-16.964844 21.167969-16.964844 35.511719 0 25.222656 20.445312 45.671875 45.667968 45.671875 8.410157 0 15.226563-20.449219 15.226563-45.671875 0-6.621094-.476563-12.90625-1.320313-18.585937zm0 0" fill="#ffb4a9"/><path d="m165.414062 45.660156v27.082032h13.90625c6.855469-3.523438 12.199219-9.574219 14.800782-16.925782-7.847656-6.347656-17.828125-10.15625-28.707032-10.15625zm0 0" fill="#ccc"/><path d="m165.414062 45.660156c-10.875 0-20.859374 3.808594-28.703124 10.15625 4.183593 11.820313 15.453124 20.289063 28.703124 20.289063 5.011719 0 9.738282-1.214844 13.90625-3.363281-2.375-15.953126-7.703124-27.082032-13.90625-27.082032zm0 0" fill="#ebebeb"/></svg>