<svg height="512pt" viewBox="0 0 512 512.00834" width="512pt" xmlns="http://www.w3.org/2000/svg"><path d="m503.472656 136.542969v332.796875c-.03125 9.414062-7.65625 17.039062-17.070312 17.070312h-180.648438c-4.546875 0-8.90625 1.8125-12.117187 5.03125l-6.996094 7c-3.210937 3.21875-7.570313 5.03125-12.117187 5.035156h-37.035157c-4.550781-.003906-8.910156-1.816406-12.117187-5.035156l-7-7c-3.210938-3.21875-7.570313-5.03125-12.117188-5.03125h-180.648437c-9.414063-.03125-17.039063-7.65625-17.066407-17.070312v-332.796875c.027344-9.414063 7.652344-17.039063 17.066407-17.066407h460.796875c9.414062.027344 17.039062 7.652344 17.070312 17.066407zm0 0" fill="#0377bc"/><path d="m477.871094 136.542969v332.796875c-.027344 9.414062-7.652344 17.039062-17.066406 17.070312h-156.5c-4.550782 0-8.910157 1.8125-12.121094 5.03125l-6.996094 7c-3.210938 3.21875-7.570312 5.03125-12.117188 5.035156h-35.582031c-4.550781-.003906-8.910156-1.816406-12.117187-5.035156l-7-7c-3.210938-3.21875-7.570313-5.03125-12.117188-5.03125h-180.648437c-9.414063-.03125-17.039063-7.65625-17.066407-17.070312v-332.796875c.027344-9.414063 7.652344-17.039063 17.066407-17.066407h435.199219c9.414062.027344 17.039062 7.652344 17.066406 17.066407zm0 0" fill="#02a9f4"/><path d="m469.335938 92.167969v349.441406c.035156 2.574219-1.109376 5.019531-3.101563 6.648437-1.996094 1.628907-4.621094 2.257813-7.136719 1.714844-37.460937-7.9375-166.230468-31.917968-196.609375 7.847656-1.558593 1.996094-3.953125 3.160157-6.484375 3.160157s-4.921875-1.164063-6.484375-3.160157c-30.378906-39.765624-159.148437-15.785156-196.609375-7.847656-2.515625.542969-5.140625-.085937-7.136718-1.714844-1.992188-1.628906-3.136719-4.074218-3.101563-6.648437v-349.441406c-.03125-4.007813 2.742187-7.492188 6.65625-8.363281 28.375-6.1875 57.097656-10.664063 86.015625-13.394532h241.320312c28.917969 2.730469 57.640626 7.207032 86.015626 13.394532 3.914062.871093 6.6875 4.355468 6.65625 8.363281zm0 0" fill="#ffe0b2"/><path d="m469.335938 92.167969v349.441406c.035156 2.574219-1.109376 5.019531-3.101563 6.648437-1.996094 1.628907-4.621094 2.257813-7.136719 1.714844-4.4375-.941406-10.238281-2.136718-16.980468-3.328125-37.738282-7.667969-76.183594-11.300781-114.6875-10.839843-28.757813 1.28125-53.675782 7.253906-64.941407 22.015624-1.523437 2.039063-3.9375 3.214844-6.484375 3.160157v-390.570313h120.660156c28.917969 2.730469 57.640626 7.207032 86.015626 13.394532 3.914062.871093 6.6875 4.355468 6.65625 8.363281zm0 0" fill="#dfc49c"/><path d="m443.738281 92.167969v349.441406c.011719 2.566406-1.136719 5-3.125 6.625-1.988281 1.621094-4.601562 2.261719-7.117187 1.738281-34.921875-7.535156-70.390625-12.273437-106.066406-14.167968-24.136719-1.992188-48.421876.878906-71.425782 8.449218v-373.84375h95.0625c28.914063 2.730469 57.636719 7.207032 86.015625 13.394532 3.910157.871093 6.683594 4.355468 6.65625 8.363281zm0 0" fill="#ffe0b2"/><path d="m418.136719 202.84375c.296875 13.09375-4.613281 25.769531-13.652344 35.246094l-.085937.082031-7.9375 25.601563c-2.867188 9.117187-8.847657 16.941406-16.894532 22.101562l-27.136718 17.835938c-3.628907 2.46875-6.902344 5.425781-9.726563 8.789062l-10.070313 12.457031c-3.496093 4.300781-7.785156 7.890625-12.628906 10.582031-7.015625 3.820313-14.878906 5.816407-22.867187 5.800782-9.132813.023437-18.066407-2.648438-25.6875-7.679688l-15.445313-10.152344-15.445312 10.152344c-7.621094 5.03125-16.554688 7.703125-25.683594 7.679688-8.015625.003906-15.90625-1.992188-22.957031-5.800782-4.804688-2.714843-9.058594-6.304687-12.542969-10.582031l-10.15625-12.457031c-2.78125-3.402344-6.058594-6.367188-9.726562-8.789062l-27.050782-17.835938c-8.046875-5.160156-14.027344-12.984375-16.894531-22.101562l-7.9375-25.601563-.085937-.082031c-9.039063-9.476563-13.949219-22.152344-13.652344-35.246094-.203125-11.691406 3.660156-23.089844 10.921875-32.253906-2.957031-6.8125-4.46875-14.164063-4.4375-21.589844-1.167969-18.550781 9.410156-35.847656 26.453125-43.265625-.371094-2.484375-.570313-4.992187-.597656-7.507813-.820313-17.730468 9.804687-33.992187 26.371093-40.363281-.277343-1.492187-.421875-3.003906-.429687-4.523437.78125-18.882813 16.695312-33.578125 35.585937-32.851563 2.992188-.027343 5.976563.347657 8.875 1.109375 6.378907-8.328125 16.304688-13.164062 26.792969-13.054687 14.886719-.410157 28.066406 9.546875 31.746094 23.976562.417968 1.933594.617187 3.910157.597656 5.890625h.511719c-.023438-1.980468.175781-3.957031.597656-5.890625 3.675781-14.429687 16.855469-24.386719 31.742187-23.976562 10.488282-.109375 20.417969 4.726562 26.792969 13.054687 2.898438-.761718 5.882813-1.136718 8.875-1.109375 18.890625-.726562 34.804688 13.96875 35.585938 32.851563-.007813 1.519531-.152344 3.03125-.425781 4.523437 16.5625 6.371094 27.1875 22.632813 26.367187 40.363281-.027344 2.515626-.226563 5.023438-.597656 7.507813 17.042969 7.417969 27.621093 24.714844 26.453125 43.265625.03125 7.425781-1.480469 14.777344-4.4375 21.589844 7.261718 9.164062 11.125 20.5625 10.921875 32.253906zm0 0" fill="#ef314c"/><path d="m418.136719 202.84375c.296875 13.09375-4.613281 25.769531-13.652344 35.246094l-.085937.082031-7.9375 25.601563c-2.867188 9.117187-8.847657 16.941406-16.894532 22.101562l-27.136718 17.835938c-3.628907 2.46875-6.902344 5.425781-9.726563 8.789062l-10.070313 12.457031c-3.496093 4.300781-7.785156 7.890625-12.628906 10.582031-7.015625 3.820313-14.878906 5.816407-22.867187 5.800782-4.332031 0-8.636719-.605469-12.800781-1.789063-4.574219-1.289062-8.917969-3.277343-12.886719-5.890625l-15.445313-10.152344v-285.097656h.257813c-.023438-1.980468.175781-3.957031.597656-5.890625 2.347656-9.867187 9.449219-17.925781 18.941406-21.503906 14.082031-5.675781 30.222657-1.363281 39.59375 10.582031 2.898438-.761718 5.882813-1.136718 8.875-1.109375 18.890625-.726562 34.804688 13.96875 35.585938 32.851563-.007813 1.519531-.152344 3.03125-.425781 4.523437 16.5625 6.371094 27.1875 22.632813 26.367187 40.363281-.027344 2.515626-.226563 5.023438-.597656 7.507813 17.042969 7.417969 27.621093 24.714844 26.453125 43.265625.03125 7.425781-1.480469 14.777344-4.4375 21.589844 7.261718 9.164062 11.125 20.5625 10.921875 32.253906zm0 0" fill="#bb193b"/><path d="m392.539062 202.84375c.296876 13.09375-4.613281 25.769531-13.65625 35.246094l-.082031.082031-7.9375 25.601563c-2.871093 9.117187-8.851562 16.941406-16.894531 22.101562l-27.136719 17.835938c-3.632812 2.46875-6.90625 5.425781-9.730469 8.789062l-10.066406 12.457031c-3.5 4.300781-7.785156 7.890625-12.632812 10.582031-3.171875 1.757813-6.554688 3.105469-10.066406 4.011719-4.574219-1.289062-8.917969-3.277343-12.886719-5.890625l-15.445313-10.152344-17.066406-161.367187 17.066406-123.730469h.257813c-.023438-1.980468.175781-3.957031.597656-5.890625 2.347656-9.867187 9.449219-17.925781 18.941406-21.503906 5.554688 2.164063 10.398438 5.828125 13.996094 10.582031 2.894531-.761718 5.878906-1.136718 8.875-1.109375 18.886719-.726562 34.800781 13.96875 35.582031 32.851563-.007812 1.519531-.148437 3.03125-.425781 4.523437 16.566406 6.371094 27.1875 22.632813 26.367187 40.363281-.023437 2.515626-.226562 5.023438-.597656 7.507813 17.046875 7.417969 27.621094 24.714844 26.453125 43.265625.035157 7.425781-1.476562 14.777344-4.4375 21.589844 7.265625 9.164062 11.125 20.5625 10.925781 32.253906zm0 0" fill="#ef314c"/><path d="m256.003906 512.007812h-18.527344c-6.796874.019532-13.316406-2.679687-18.105468-7.5l-7.066406-7.066406c-1.597657-1.605468-3.773438-2.507812-6.039063-2.5h-180.660156c-14.132813-.015625-25.5859378-11.46875-25.60156275-25.601562v-332.796875c.01562495-14.132813 11.46874975-25.585938 25.60156275-25.601563h17.066406c4.710937 0 8.53125 3.820313 8.53125 8.535156 0 4.710938-3.820313 8.53125-8.53125 8.53125h-17.066406c-4.710938.007813-8.527344 3.824219-8.535157 8.535157v332.796875c.007813 4.710937 3.824219 8.527344 8.535157 8.535156h180.660156c6.796875-.019531 13.316406 2.679688 18.105469 7.5l7.066406 7.066406c1.597656 1.605469 3.773438 2.507813 6.039062 2.5h18.527344c4.714844 0 8.535156 3.820313 8.535156 8.535156 0 4.710938-3.820312 8.53125-8.535156 8.53125zm0 0"/><path d="m274.535156 512.007812h-18.53125c-4.710937 0-8.53125-3.820312-8.53125-8.53125 0-4.714843 3.820313-8.535156 8.53125-8.535156h18.53125c2.265625.007813 4.4375-.894531 6.035156-2.5l7.066407-7.066406c4.789062-4.820312 11.308593-7.519531 18.105469-7.5h180.660156c4.714844-.003906 8.53125-3.824219 8.535156-8.535156v-332.796875c-.003906-4.710938-3.820312-8.53125-8.535156-8.535157h-17.066406c-4.710938 0-8.53125-3.820312-8.53125-8.53125 0-4.714843 3.820312-8.535156 8.53125-8.535156h17.066406c14.132812.015625 25.585937 11.46875 25.601562 25.601563v332.796875c-.015625 14.132812-11.46875 25.585937-25.601562 25.601562h-180.660156c-2.265626-.007812-4.441407.894532-6.039063 2.5l-7.066406 7.066406c-4.789063 4.820313-11.308594 7.519532-18.101563 7.5zm0 0"/><path d="m256.003906 469.492188c-5.207031.015624-10.125-2.398438-13.296875-6.535157-21.554687-28.207031-111.261719-20.894531-188.023437-4.636719-4.964844 1.109376-10.164063-.105468-14.121094-3.300781-4.078125-3.253906-6.445312-8.195312-6.425781-13.410156v-349.441406c-.066407-8.035157 5.519531-15.011719 13.375-16.699219 28.730469-6.265625 57.8125-10.792969 87.085937-13.5625 3.066406-.3125 6.058594 1.050781 7.835938 3.5625 1.78125 2.515625 2.066406 5.789062.75 8.574219-1.316406 2.785156-4.027344 4.644531-7.101563 4.867187-28.554687 2.703125-56.921875 7.121094-84.949219 13.234375l.070313 349.464844c50.859375-10.773437 172.753906-31.304687 205.097656 11.03125 31.742188-42.324219 153.652344-21.800781 204.5625-11.019531l-.058593-349.453125c-27.996094-6.140625-56.34375-10.566407-84.878907-13.257813-3.070312-.222656-5.785156-2.082031-7.101562-4.863281-1.316407-2.785156-1.03125-6.0625.75-8.574219 1.777343-2.515625 4.769531-3.875 7.835937-3.5625 29.269532 2.765625 58.347656 7.292969 87.078125 13.550782 7.859375 1.6875 13.449219 8.667968 13.382813 16.707031v349.441406c.019531 5.214844-2.347656 10.15625-6.425782 13.410156-3.992187 3.210938-9.238281 4.417969-14.234374 3.277344-76.628907-16.246094-166.34375-23.554687-187.945313 4.703125-3.167969 4.113281-8.070313 6.511719-13.261719 6.492188zm0 0"/><path d="m256.003906 469.339844c-4.710937 0-8.53125-3.820313-8.53125-8.53125v-93.867188c0-4.710937 3.820313-8.53125 8.53125-8.53125 4.714844 0 8.535156 3.820313 8.535156 8.53125v93.867188c0 4.710937-3.820312 8.53125-8.535156 8.53125zm0 0"/><path d="m255.761719 46.964844c-4.710938 0-8.53125-3.820313-8.53125-8.53125.015625-1.328125-.125-2.65625-.417969-3.949219-2.785156-10.5625-12.507812-17.789063-23.425781-17.410156-7.773438-.105469-15.140625 3.449219-19.898438 9.597656-2.542969 3.394531-3.925781 7.519531-3.945312 11.761719 0 4.710937-3.820313 8.53125-8.535157 8.53125-4.710937 0-8.53125-3.820313-8.53125-8.53125.011719-7.898438 2.570313-15.582032 7.289063-21.917969 7.988281-10.484375 20.441406-16.6015625 33.621094-16.5078125 18.878906-.3632815 35.5 12.3671875 40.066406 30.6874995.582031 2.539063.863281 5.132813.84375 7.738282 0 2.261718-.898437 4.433594-2.5 6.035156-1.601563 1.597656-3.769531 2.496094-6.035156 2.496094zm0 0"/><path d="m167.296875 88.8125c-1.636719 0-3.234375-.472656-4.609375-1.359375-10.042969-6.304687-16.832031-16.679687-18.59375-28.40625-.324219-1.871094-.484375-3.769531-.472656-5.667969.804687-23.605468 20.539062-42.121094 44.148437-41.417968 3.691407-.003907 7.371094.445312 10.953125 1.339843 4.570313 1.148438 7.34375 5.785157 6.195313 10.355469-1.148438 4.570312-5.785157 7.347656-10.355469 6.199219-2.222656-.550781-4.503906-.828125-6.792969-.820313-14.179687-.699218-26.269531 10.167969-27.082031 24.34375-.003906.996094.082031 1.992188.253906 2.976563 1.023438 6.921875 5.039063 13.046875 10.980469 16.75 3.183594 2.046875 4.636719 5.949219 3.566406 9.582031-1.070312 3.632812-4.40625 6.128906-8.191406 6.125zm0 0"/><path d="m126.796875 114.269531c-4.257813-.003906-7.859375-3.148437-8.441406-7.367187-.425781-2.871094-.648438-5.769532-.675781-8.675782-.773438-21.441406 12.25-40.972656 32.339843-48.503906 2.910157-.914062 6.085938-.207031 8.332031 1.851563 2.246094 2.0625 3.222657 5.167969 2.558594 8.140625-.660156 2.976562-2.863281 5.375-5.769531 6.289062-12.992187 5.273438-21.1875 18.226563-20.394531 32.222656.023437 2.125.195312 4.246094.515625 6.347657.644531 4.667969-2.617188 8.972656-7.285157 9.621093-.390624.050782-.785156.074219-1.179687.074219zm0 0"/><path d="m119.765625 197.433594c-1.609375 0-3.183594-.457032-4.542969-1.316406-8.199218-5.359376-14.566406-13.089844-18.257812-22.160157-.074219-.167969-.140625-.347656-.203125-.527343-3.304688-7.710938-4.992188-16.015626-4.949219-24.40625 0-23.996094 13.304688-45.128907 32.359375-51.386719 2.910156-.996094 6.128906-.351563 8.425781 1.691406 2.300782 2.039063 3.324219 5.15625 2.683594 8.164063-.644531 3.007812-2.851562 5.433593-5.785156 6.359374-12.136719 3.984376-20.617188 18.449219-20.617188 35.167969-.042968 6.210938 1.230469 12.363281 3.734375 18.046875.101563.226563.1875.449219.265625.683594 2.375 5.660156 6.355469 10.507812 11.449219 13.933594 3.214844 2.027344 4.699219 5.9375 3.644531 9.589844-1.058594 3.652343-4.402344 6.164062-8.207031 6.160156zm0 0"/><path d="m107.554688 246.679688c-2.050782 0-4.035157-.746094-5.574219-2.101563-10.933594-11.113281-16.929688-26.160156-16.644531-41.75-.21875-13.554687 4.265624-26.769531 12.683593-37.394531 2.207031-2.921875 6.03125-4.105469 9.5-2.949219 3.472657 1.160156 5.820313 4.402344 5.832031 8.0625v.0625c0 2-.703124 3.9375-1.988281 5.472656-12.707031 16.769531-11.808593 40.179688 2.144531 55.925781 2.492188 2.425782 3.265626 6.117188 1.957032 9.339844-1.308594 3.21875-4.433594 5.328125-7.910156 5.332032zm0 0"/><path d="m214.847656 349.875c-9.429687-.003906-18.703125-2.367188-26.980468-6.882812-5.824219-3.21875-10.96875-7.53125-15.148438-12.707032l-10.078125-12.402344c-2.269531-2.703124-4.90625-5.070312-7.835937-7.035156l-27.09375-17.847656c-9.636719-6.277344-16.824219-15.683594-20.34375-26.636719l-7.832032-25.363281c-1.324218-3.695312.050782-7.816406 3.328125-9.980469 3.277344-2.164062 7.605469-1.808593 10.488281.859375 1.109376 1.035156 1.933594 2.335938 2.394532 3.777344l7.917968 25.632812c2.34375 7.1875 7.085938 13.347657 13.429688 17.457032l27.136719 17.871094c4.328125 2.898437 8.21875 6.394531 11.558593 10.386718l10.203126 12.542969c2.792968 3.464844 6.230468 6.351563 10.128906 8.5 12.546875 6.640625 27.683594 6.082031 39.707031-1.46875l15.476563-10.226563c2.542968-1.679687 5.789062-1.875 8.515624-.511718 2.730469 1.363281 4.523438 4.074218 4.707032 7.121094.183594 3.042968-1.269532 5.953124-3.816406 7.632812l-15.46875 10.21875c-9.019532 5.945312-19.59375 9.101562-30.394532 9.0625zm0 0"/><path d="m255.761719 46.964844c-4.710938 0-8.53125-3.820313-8.53125-8.53125v-3.660156c-.144531-.496094-.242188-1.007813-.289063-1.523438-.273437-2.214844.359375-4.441406 1.753906-6.183594 1.394532-1.738281 3.433594-2.839844 5.65625-3.054687 2.476563-.210938 4.941407.570312 6.84375 2.171875 1.855469 1.570312 2.976563 3.839844 3.101563 6.269531v5.980469c0 4.710937-3.820313 8.53125-8.535156 8.53125zm0 0"/><path d="m321 46.964844c-4.710938 0-8.535156-3.820313-8.535156-8.53125-.023438-4.257813-1.414063-8.394532-3.972656-11.800782-4.757813-6.128906-12.113282-9.667968-19.871094-9.558593-10.863282-.390625-20.558594 6.761719-23.390625 17.253906-.3125 1.347656-.464844 2.722656-.453125 4.105469 0 4.710937-3.820313 8.53125-8.53125 8.53125-4.714844 0-8.535156-3.820313-8.535156-8.53125-.015626-2.65625.277343-5.304688.875-7.890625 4.617187-18.253907 21.210937-30.914063 40.035156-30.5351565 13.164062-.09375 25.605468 6.0039065 33.589844 16.4687495 4.738281 6.34375 7.304687 14.039063 7.324218 21.953126 0 2.265624-.898437 4.4375-2.5 6.035156-1.601562 1.601562-3.773437 2.5-6.035156 2.5zm0 0"/><path d="m344.710938 88.8125c-3.785157.003906-7.121094-2.492188-8.191407-6.125-1.066406-3.632812.382813-7.535156 3.566407-9.582031 5.863281-3.625 9.851562-9.621094 10.929687-16.425781.199219-1.089844.300781-2.195313.304687-3.300782-.808593-14.175781-12.902343-25.046875-27.082031-24.351562-2.289062-.003906-4.570312.269531-6.792969.824218-4.539062 1.066407-9.09375-1.707031-10.230468-6.226562-1.136719-4.523438 1.566406-9.121094 6.074218-10.324219 3.578126-.894531 7.257813-1.34375 10.949219-1.339843 23.609375-.703126 43.34375 17.8125 44.148438 41.417968.007812 2.007813-.167969 4.015625-.519531 5.992188-1.816407 11.605468-8.585938 21.851562-18.546876 28.082031-1.371093.890625-2.972656 1.359375-4.609374 1.359375zm0 0"/><path d="m385.210938 114.269531c-.394532 0-.785157-.027343-1.179688-.078125-4.667969-.644531-7.929688-4.953125-7.285156-9.621094.320312-2.101562.492187-4.21875.515625-6.34375.792969-13.996093-7.402344-26.949218-20.394531-32.21875-4.496094-1.414062-6.996094-6.207031-5.582032-10.703124 1.414063-4.5 6.207032-6.996094 10.703125-5.582032 20.089844 7.527344 33.117188 27.0625 32.339844 48.503906-.023437 2.90625-.25 5.804688-.671875 8.679688-.589844 4.214844-4.1875 7.355469-8.445312 7.363281zm0 0"/><path d="m392.242188 197.433594c-3.800782.003906-7.148438-2.507813-8.207032-6.160156-1.054687-3.652344.429688-7.5625 3.644532-9.589844 5.105468-3.429688 9.089843-8.28125 11.460937-13.953125.082031-.226563.164063-.441407.257813-.660157 2.5-5.683593 3.769531-11.835937 3.726562-18.046874 0-16.722657-8.476562-31.183594-20.613281-35.167969-4.421875-1.515625-6.804688-6.300781-5.34375-10.738281 1.457031-4.4375 6.210937-6.878907 10.667969-5.476563 19.046874 6.257813 32.355468 27.390625 32.355468 51.386719.046875 8.394531-1.636718 16.707031-4.949218 24.421875l-.199219.511719c-3.6875 9.074218-10.058594 16.800781-18.261719 22.15625-1.355469.859374-2.933594 1.316406-4.539062 1.316406zm0 0"/><path d="m404.429688 246.644531c-3.441407.003907-6.546876-2.0625-7.871094-5.238281-1.324219-3.179688-.605469-6.839844 1.820312-9.28125l.058594-.058594c14.007812-15.738281 14.933594-39.183594 2.210938-55.980468-2.019532-2.414063-2.546876-5.746094-1.375-8.667969 1.171874-2.921875 3.859374-4.960938 6.988281-5.3125 3.128906-.347657 6.195312 1.050781 7.984375 3.644531 8.25 10.582031 12.636718 23.664062 12.425781 37.078125.3125 15.398437-5.527344 30.289063-16.226563 41.367187-1.605468 1.574219-3.765624 2.453126-6.015624 2.449219zm0 0"/><path d="m297.164062 349.875c-10.808593.039062-21.386718-3.117188-30.40625-9.070312l-15.460937-10.210938c-2.390625-1.578125-3.828125-4.253906-3.824219-7.121094v-33.773437c0-4.710938 3.820313-8.53125 8.53125-8.53125 4.714844 0 8.535156 3.820312 8.535156 8.53125v29.183593l11.636719 7.6875c12.039063 7.578126 27.214844 8.128907 39.773438 1.445313 3.863281-2.132813 7.273437-5 10.042969-8.433594l10.132812-12.464843c3.359375-4.027344 7.269531-7.554688 11.621094-10.480469l27.15625-17.886719c6.371094-4.082031 11.121094-10.25 13.4375-17.449219l7.925781-25.644531c.925781-3.007812 3.425781-5.261719 6.511719-5.875 3.085937-.613281 6.257812.519531 8.257812 2.949219 2.003906 2.425781 2.507813 5.757812 1.320313 8.667969l-7.699219 24.925781c-3.492188 10.984375-10.691406 20.417969-20.367188 26.679687l-27.117187 17.863282c-2.957031 1.992187-5.617187 4.390624-7.898437 7.128906l-10.011719 12.320312c-4.15625 5.148438-9.269531 9.441406-15.0625 12.648438-8.289063 4.53125-17.585938 6.90625-27.035157 6.910156zm0 0"/><path d="m256.246094 46.964844c-4.714844 0-8.535156-3.820313-8.535156-8.53125v-5.980469c.003906-2.394531 1.011718-4.683594 2.78125-6.296875 1.777343-1.601562 4.136718-2.398438 6.519531-2.203125 4.761719.40625 8.332031 4.527344 8.054687 9.296875-.046875.542969-.144531 1.082031-.289062 1.609375v3.574219c0 2.261718-.898438 4.433594-2.496094 6.035156-1.601562 1.597656-3.773438 2.496094-6.035156 2.496094zm0 0"/><path d="m219.492188 315.785156c-11.644532.390625-22.117188-7.039062-25.59375-18.160156-3.546876-10.183594-23.039063-16.109375-29.585938-17.382812-4.628906-.890626-7.660156-5.363282-6.773438-9.988282.890626-4.628906 5.359376-7.664062 9.988282-6.773437 3.574218.679687 35.074218 7.273437 42.488281 28.519531.867187 2.675781 2.816406 4.863281 5.375 6.027344 2.558594 1.167968 5.488281 1.207031 8.074219.109375 4.472656-1.324219 9.179687 1.179687 10.574218 5.628906 1.394532 4.449219-1.039062 9.191406-5.46875 10.65625-2.9375.914063-6 1.371094-9.078124 1.363281zm0 0"/><path d="m292.515625 315.785156c-3.078125.007813-6.140625-.453125-9.078125-1.367187-4.425781-1.480469-6.84375-6.238281-5.425781-10.683594 1.417969-4.449219 6.144531-6.929687 10.609375-5.574219 2.582031 1.078125 5.496094 1.027344 8.039062-.144531 2.542969-1.171875 4.476563-3.355469 5.332032-6.019531 7.410156-21.246094 38.910156-27.835938 42.488281-28.519532 4.628906-.886718 9.101562 2.144532 9.988281 6.773438s-2.144531 9.101562-6.773438 9.988281c-6.550781 1.28125-26.039062 7.199219-29.585937 17.382813-3.472656 11.125-13.949219 18.554687-25.59375 18.164062zm0 0"/><path d="m292.515625 315.785156c-3.078125.007813-6.140625-.453125-9.078125-1.367187-4.425781-1.480469-6.84375-6.238281-5.425781-10.683594 1.417969-4.449219 6.144531-6.929687 10.609375-5.574219 2.582031 1.078125 5.496094 1.027344 8.039062-.144531 2.542969-1.171875 4.476563-3.355469 5.332032-6.019531 7.410156-21.246094 38.910156-27.835938 42.488281-28.519532 4.628906-.886718 9.101562 2.144532 9.988281 6.773438s-2.144531 9.101562-6.773438 9.988281c-6.550781 1.28125-26.039062 7.199219-29.585937 17.382813-3.472656 11.125-13.949219 18.554687-25.59375 18.164062zm0 0"/><path d="m169.089844 247.621094c-14.398438-.289063-27.144532-9.398438-32.078125-22.929688-1.566407-4.445312.761719-9.320312 5.207031-10.890625 4.445312-1.570312 9.320312.761719 10.890625 5.207031 2.457031 6.761719 8.792969 11.335938 15.980469 11.550782 4.714844 0 8.535156 3.820312 8.535156 8.53125 0 4.714844-3.820312 8.535156-8.535156 8.535156zm0 0"/><path d="m342.917969 247.621094c-4.714844 0-8.535157-3.820313-8.535157-8.535156 0-4.710938 3.820313-8.53125 8.535157-8.53125 7.152343-.257813 13.449219-4.792969 15.960937-11.496094 1.554688-4.449219 6.421875-6.796875 10.871094-5.246094 4.449219 1.554688 6.800781 6.421875 5.246094 10.871094-4.933594 13.535156-17.675782 22.648437-32.078125 22.9375zm0 0"/><path d="m238.9375 238.941406c-4.710938 0-8.535156-3.820312-8.535156-8.53125 0-10.519531-1.113282-10.679687-14.785156-12.695312-7.480469-.925782-14.859376-2.535156-22.046876-4.8125-18.335937-6.03125-30.914062-22.929688-31.433593-42.226563-.015625-4.714843 3.792969-8.546875 8.507812-8.5625 4.710938-.011719 8.542969 3.796875 8.558594 8.507813.507813 11.964844 8.386719 22.363281 19.769531 26.089844 6.238282 1.953124 12.640625 3.332031 19.132813 4.121093 13.761719 2.027344 29.367187 4.320313 29.367187 29.578125 0 4.710938-3.824218 8.53125-8.535156 8.53125zm0 0"/><path d="m238.9375 93.875c-4.710938 0-8.535156-3.820312-8.535156-8.535156 0-8.054688-16.921875-8.53125-17.09375-8.53125-4.714844-.007813-8.527344-3.835938-8.519532-8.546875.007813-4.714844 3.835938-8.527344 8.546876-8.519531 11.804687 0 34.136718 5.351562 34.136718 25.597656 0 4.714844-3.824218 8.535156-8.535156 8.535156zm0 0"/><path d="m273.070312 238.941406c-4.710937 0-8.53125-3.820312-8.53125-8.53125 0-25.257812 15.601563-27.550781 29.363282-29.578125 6.492187-.789062 12.894531-2.167969 19.136718-4.121093 11.382813-3.726563 19.261719-14.128907 19.765626-26.097657.066406-4.667969 3.863281-8.421875 8.53125-8.4375h.066406c4.683594.019531 8.464844 3.820313 8.46875 8.5-.519532 19.296875-13.09375 36.195313-31.433594 42.226563-7.1875 2.277344-14.566406 3.886718-22.046875 4.8125-13.667969 2.015625-14.785156 2.175781-14.785156 12.695312 0 4.710938-3.820313 8.53125-8.535157 8.53125zm0 0"/><path d="m273.070312 93.875c-4.710937 0-8.53125-3.820312-8.53125-8.535156 0-20.246094 22.328126-25.597656 34.132813-25.597656 4.710937-.007813 8.539063 3.808593 8.542969 8.519531.007812 4.714843-3.804688 8.539062-8.519532 8.546875-.324218.003906-17.089843.511718-17.089843 8.53125 0 4.714844-3.820313 8.535156-8.535157 8.535156zm0 0"/><path d="m213.335938 170.675781c-4.710938.007813-8.539063-3.808593-8.542969-8.523437-.007813-4.710938 3.808593-8.539063 8.519531-8.542969.324219 0 17.089844-.511719 17.089844-8.535156 0-4.710938 3.824218-8.53125 8.535156-8.53125s8.535156 3.820312 8.535156 8.53125c0 20.25-22.332031 25.601562-34.136718 25.601562zm0 0"/><path d="m298.671875 170.675781c-11.804687 0-34.132813-5.351562-34.132813-25.601562 0-4.710938 3.820313-8.53125 8.53125-8.53125 4.714844 0 8.535157 3.820312 8.535157 8.53125 0 8.058593 16.921875 8.535156 17.09375 8.535156 4.714843.007813 8.527343 3.832031 8.519531 8.546875-.007812 4.710938-3.835938 8.527344-8.546875 8.519531zm0 0"/><path d="m85.335938 341.339844h-8.53125c-4.714844 0-8.535157-3.820313-8.535157-8.53125 0-4.714844 3.820313-8.535156 8.535157-8.535156h8.53125c4.714843 0 8.535156 3.820312 8.535156 8.535156 0 4.710937-3.820313 8.53125-8.535156 8.53125zm0 0"/><path d="m145.070312 341.339844h-25.597656c-4.714844 0-8.535156-3.820313-8.535156-8.53125 0-4.714844 3.820312-8.535156 8.535156-8.535156h25.597656c4.714844 0 8.535157 3.820312 8.535157 8.535156 0 4.710937-3.820313 8.53125-8.535157 8.53125zm0 0"/><path d="m128.003906 375.476562h-51.199218c-4.714844 0-8.535157-3.820312-8.535157-8.535156 0-4.710937 3.820313-8.53125 8.535157-8.53125h51.199218c4.714844 0 8.535156 3.820313 8.535156 8.53125 0 4.714844-3.820312 8.535156-8.535156 8.535156zm0 0"/><path d="m187.738281 375.476562h-25.601562c-4.710938 0-8.53125-3.820312-8.53125-8.535156 0-4.710937 3.820312-8.53125 8.53125-8.53125h25.601562c4.710938 0 8.53125 3.820313 8.53125 8.53125 0 4.714844-3.820312 8.535156-8.53125 8.535156zm0 0"/><path d="m93.871094 409.609375h-17.066406c-4.714844 0-8.535157-3.820313-8.535157-8.535156 0-4.710938 3.820313-8.53125 8.535157-8.53125h17.066406c4.710937 0 8.53125 3.820312 8.53125 8.53125 0 4.714843-3.820313 8.535156-8.53125 8.535156zm0 0"/><path d="m213.335938 409.609375h-85.332032c-4.710937 0-8.53125-3.820313-8.53125-8.535156 0-4.710938 3.820313-8.53125 8.53125-8.53125h85.332032c4.714843 0 8.535156 3.820312 8.535156 8.53125 0 4.714843-3.820313 8.535156-8.535156 8.535156zm0 0"/><path d="m435.203125 341.339844h-8.53125c-4.714844 0-8.535156-3.820313-8.535156-8.53125 0-4.714844 3.820312-8.535156 8.535156-8.535156h8.53125c4.714844 0 8.535156 3.820312 8.535156 8.535156 0 4.710937-3.820312 8.53125-8.535156 8.53125zm0 0"/><path d="m392.539062 341.339844h-25.601562c-4.710938 0-8.535156-3.820313-8.535156-8.53125 0-4.714844 3.824218-8.535156 8.535156-8.535156h25.601562c4.710938 0 8.53125 3.820312 8.53125 8.535156 0 4.710937-3.820312 8.53125-8.53125 8.53125zm0 0"/><path d="m435.203125 375.476562h-51.199219c-4.710937 0-8.53125-3.820312-8.53125-8.535156 0-4.710937 3.820313-8.53125 8.53125-8.53125h51.199219c4.714844 0 8.535156 3.820313 8.535156 8.53125 0 4.714844-3.820312 8.535156-8.535156 8.535156zm0 0"/><path d="m349.871094 375.476562h-25.601563c-4.710937 0-8.53125-3.820312-8.53125-8.535156 0-4.710937 3.820313-8.53125 8.53125-8.53125h25.601563c4.710937 0 8.53125 3.820313 8.53125 8.53125 0 4.714844-3.820313 8.535156-8.53125 8.535156zm0 0"/><path d="m435.203125 409.609375h-17.066406c-4.710938 0-8.53125-3.820313-8.53125-8.535156 0-4.710938 3.820312-8.53125 8.53125-8.53125h17.066406c4.714844 0 8.535156 3.820312 8.535156 8.53125 0 4.714843-3.820312 8.535156-8.535156 8.535156zm0 0"/><path d="m384.003906 409.609375h-85.332031c-4.714844 0-8.535156-3.820313-8.535156-8.535156 0-4.710938 3.820312-8.53125 8.535156-8.53125h85.332031c4.714844 0 8.535156 3.820312 8.535156 8.53125 0 4.714843-3.820312 8.535156-8.535156 8.535156zm0 0"/></svg>