<svg height="512pt" viewBox="-32 0 512 512" width="512pt" xmlns="http://www.w3.org/2000/svg"><path d="m272 32h-32v-32h-32v32h-32v32h32v64h32v-64h32zm0 0" fill="#57565c"/><path d="m448 512h-448v-122.832031l92.929688-37.167969h262.140624l92.929688 37.167969zm0 0" fill="#e0c938"/><path d="m368 512h-288v-216.558594l48-32v-79.121094l96-76.800781 96 76.800781v79.121094l48 32zm0 0" fill="#f2dd29"/><path d="m288 512h-128v-96c0-35.347656 28.652344-64 64-64s64 28.652344 64 64zm0 0" fill="#ad935c"/><path d="m208 208h32v32h-32zm0 0" fill="#fff"/><path d="m208 272h32v32h-32zm0 0" fill="#fff"/><path d="m224 352c-35.347656 0-64 28.652344-64 64v32c0-35.347656 28.652344-64 64-64s64 28.652344 64 64v-32c0-35.347656-28.652344-64-64-64zm0 0" fill="#99814f"/></svg>