<svg height="512pt" viewBox="-70 0 512 512" width="512pt" xmlns="http://www.w3.org/2000/svg"><path d="m357.570312 0h-247.464843c-4 0-7.832031 1.589844-10.660157 4.417969l-95.027343 95.027343c-2.828125 2.824219-4.417969 6.660157-4.417969 10.660157v386.816406c0 8.328125 6.75 15.078125 15.078125 15.078125h342.492187c8.328126 0 15.078126-6.75 15.078126-15.078125v-481.84375c0-8.328125-6.75-15.078125-15.078126-15.078125zm-262.542968 51.480469v43.542969h-43.542969zm247.464844 430.363281h-312.335938v-356.664062h79.949219c8.328125 0 15.078125-6.75 15.078125-15.078126v-79.945312h217.308594zm0 0"/><path d="m129.226562 167.664062-52.101562 113.578126c-3.472656 7.570312-.148438 16.519531 7.417969 19.992187 2.039062.933594 4.175781 1.375 6.277343 1.375 5.714844 0 11.179688-3.261719 13.714844-8.792969l14.890625-32.460937h47.011719l14.890625 32.460937c2.535156 5.53125 8 8.792969 13.714844 8.792969 2.101562 0 4.238281-.441406 6.277343-1.375 7.570313-3.472656 10.890626-12.421875 7.417969-19.992187l-52.101562-113.578126c-2.457031-5.359374-7.8125-8.792968-13.703125-8.792968-5.894532 0-11.25 3.433594-13.707032 8.792968zm4.035157 63.535157 9.667969-21.082031 9.671874 21.082031zm0 0"/><path d="m230.390625 215.28125h10.636719v10.640625c0 8.324219 6.75 15.078125 15.078125 15.078125s15.078125-6.753906 15.078125-15.078125v-10.640625h10.636718c8.328126 0 15.078126-6.75 15.078126-15.078125 0-8.324219-6.75-15.078125-15.078126-15.078125h-10.636718v-10.636719c0-8.328125-6.75-15.078125-15.078125-15.078125s-15.078125 6.75-15.078125 15.078125v10.636719h-10.636719c-8.328125 0-15.078125 6.753906-15.078125 15.078125 0 8.328125 6.75 15.078125 15.078125 15.078125zm0 0"/><path d="m281.820312 332.539062h-190.992187c-8.328125 0-15.078125 6.75-15.078125 15.078126 0 8.328124 6.75 15.078124 15.078125 15.078124h190.992187c8.328126 0 15.078126-6.75 15.078126-15.078124 0-8.328126-6.75-15.078126-15.078126-15.078126zm0 0"/><path d="m216.777344 378.554688h-125.949219c-8.328125 0-15.078125 6.75-15.078125 15.078124 0 8.328126 6.75 15.078126 15.078125 15.078126h125.949219c8.324218 0 15.078125-6.75 15.078125-15.078126 0-8.328124-6.75-15.078124-15.078125-15.078124zm0 0"/></svg>