<svg height="512pt" viewBox="0 -68 512 512" width="512pt" xmlns="http://www.w3.org/2000/svg"><path d="m8 311.992188c-4.425781 0-8-3.578126-8-8 0-30.871094 25.128906-55.992188 56-55.992188 4.425781 0 8 3.574219 8 8s-3.574219 8-8 8c-22.054688 0-40 17.9375-40 39.992188 0 4.421874-3.574219 8-8 8zm0 0"/><path d="m88 264.007812-32-.007812c-4.425781 0-8-3.585938-8-8 0-4.425781 3.585938-8 8-8l32 .007812c4.425781 0 8 3.585938 8 8 0 4.425782-3.585938 8-8 8zm0 0"/><path d="m8 360c-4.425781 0-8-3.574219-8-8v-45.710938c0-4.425781 3.574219-8 8-8s8 3.574219 8 8v45.710938c0 4.425781-3.574219 8-8 8zm0 0"/><path d="m248 311.992188c-4.425781 0-8-3.578126-8-8 0-22.054688-17.945312-39.992188-40-39.992188-4.425781 0-8-3.574219-8-8s3.574219-8 8-8c30.871094 0 56 25.121094 56 55.992188 0 4.421874-3.574219 8-8 8zm0 0"/><path d="m168 264.007812c-4.414062 0-8-3.574218-8-8 0-4.414062 3.574219-8 8-8l32-.007812c4.414062 0 8 3.574219 8 8 0 4.414062-3.574219 8-8 8zm0 0"/><path d="m248 360c-4.425781 0-8-3.574219-8-8v-45.710938c0-4.425781 3.574219-8 8-8s8 3.574219 8 8v45.710938c0 4.425781-3.574219 8-8 8zm0 0"/><path d="m232 376h-208c-4.425781 0-8-3.574219-8-8s3.574219-8 8-8h208c4.425781 0 8 3.574219 8 8s-3.574219 8-8 8zm0 0"/><path d="m88 264.007812c-4.425781 0-8-3.574218-8-8v-25.609374c0-4.421876 3.574219-8 8-8s8 3.578124 8 8v25.609374c0 4.425782-3.574219 8-8 8zm0 0"/><path d="m168 264c-4.425781 0-8-3.574219-8-8v-25.601562c0-4.421876 3.574219-8 8-8s8 3.578124 8 8v25.601562c0 4.425781-3.574219 8-8 8zm0 0"/><path d="m128 248c-52.9375 0-96-43.0625-96-96 0-4.414062 3.574219-8 8-8s8 3.585938 8 8c0 44.113281 35.886719 80 80 80s80-35.886719 80-80c0-4.414062 3.574219-8 8-8s8 3.585938 8 8c0 52.9375-43.0625 96-96 96zm0 0"/><path d="m40 160.007812c-4.425781 0-8-3.582031-8-8v-72.007812c0-4.414062 3.574219-8 8-8s8 3.585938 8 8v72.007812c0 4.417969-3.574219 8-8 8zm0 0"/><path d="m216 160.015625c-4.425781 0-8-3.582031-8-8v-72.015625c0-4.414062 3.574219-8 8-8s8 3.585938 8 8v72.015625c0 4.417969-3.574219 8-8 8zm0 0"/><path d="m216 88c-4.425781 0-8-3.585938-8-8 0-17.648438-14.351562-32-32-32-4.425781 0-8-3.585938-8-8s3.574219-8 8-8c26.472656 0 48 21.527344 48 48 0 4.414062-3.574219 8-8 8zm0 0"/><path d="m176 48c-4.425781 0-8-3.585938-8-8v-32c0-4.414062 3.574219-8 8-8s8 3.585938 8 8v32c0 4.414062-3.574219 8-8 8zm0 0"/><path d="m176 16h-64c-4.425781 0-8-3.585938-8-8s3.574219-8 8-8h64c4.425781 0 8 3.585938 8 8s-3.574219 8-8 8zm0 0"/><path d="m40 88c-4.425781 0-8-3.585938-8-8 0-44.113281 35.886719-79.9921875 80-79.9921875 4.425781 0 8 3.5859375 8 7.9999995 0 4.417969-3.574219 8-8 8-35.289062 0-64 28.703126-64 63.992188 0 4.414062-3.574219 8-8 8zm0 0"/><path d="m216 128c-2.046875 0-4.097656-.785156-5.65625-2.34375l-24-24c-3.128906-3.128906-3.128906-8.183594 0-11.3125s8.183594-3.128906 11.3125 0l24 24c3.128906 3.128906 3.128906 8.183594 0 11.3125-1.558594 1.558594-3.609375 2.34375-5.65625 2.34375zm0 0"/><path d="m128 120c-35.878906 0-66.503906-16.265625-67.792969-16.960938-3.886719-2.085937-5.34375-6.933593-3.253906-10.824218 2.09375-3.878906 6.910156-5.359375 10.832031-3.261719.277344.152344 28.472656 15.046875 60.214844 15.046875 31.894531 0 59.929688-14.894531 60.207031-15.039062 3.882813-2.097657 8.746094-.640626 10.832031 3.246093 2.097657 3.890625.632813 8.746094-3.253906 10.832031-1.28125.695313-31.90625 16.960938-67.785156 16.960938zm0 0"/><path d="m40 128c-2.046875 0-4.097656-.785156-5.65625-2.34375-3.128906-3.128906-3.128906-8.183594 0-11.3125l24-24c3.128906-3.128906 8.183594-3.128906 11.3125 0s3.128906 8.183594 0 11.3125l-24 24c-1.558594 1.558594-3.609375 2.34375-5.65625 2.34375zm0 0"/><path d="m104 280c-2.046875 0-4.097656-.785156-5.65625-2.34375l-16-15.992188c-3.128906-3.128906-3.128906-8.183593 0-11.3125 3.128906-3.128906 8.183594-3.128906 11.3125 0l16 15.992188c3.128906 3.128906 3.128906 8.183594 0 11.3125-1.558594 1.558594-3.609375 2.34375-5.65625 2.34375zm0 0"/><path d="m104 280c-3.351562 0-6.472656-2.121094-7.585938-5.472656-1.398437-4.191406.867188-8.726563 5.058594-10.121094l24-8c4.230469-1.414062 8.71875.867188 10.121094 5.058594 1.398438 4.191406-.867188 8.726562-5.058594 10.121094l-24 8c-.847656.277343-1.703125.414062-2.535156.414062zm0 0"/><path d="m152 280c-2.046875 0-4.097656-.785156-5.65625-2.34375-3.128906-3.128906-3.128906-8.183594 0-11.3125l16-15.992188c3.128906-3.128906 8.183594-3.128906 11.3125 0 3.128906 3.128907 3.128906 8.183594 0 11.3125l-16 15.992188c-1.558594 1.558594-3.609375 2.34375-5.65625 2.34375zm0 0"/><path d="m152 280c-.832031 0-1.6875-.136719-2.527344-.414062l-24-8c-4.183594-1.394532-6.457031-5.921876-5.058594-10.121094 1.402344-4.183594 5.898438-6.472656 10.121094-5.058594l24 8c4.183594 1.394531 6.457032 5.921875 5.058594 10.121094-1.121094 3.351562-4.242188 5.472656-7.59375 5.472656zm0 0"/><path d="m232 376c-4.425781 0-8-3.574219-8-8s3.574219-8 8-8c4.414062 0 8-3.585938 8-8 0-4.425781 3.574219-8 8-8s8 3.574219 8 8c0 13.230469-10.769531 24-24 24zm0 0"/><path d="m24 376c-13.230469 0-24-10.769531-24-24 0-4.425781 3.574219-8 8-8s8 3.574219 8 8c0 4.414062 3.585938 8 8 8 4.425781 0 8 3.574219 8 8s-3.574219 8-8 8zm0 0"/><path d="m128.238281 312c-4.421875 0-8.039062-3.574219-8.039062-8s3.535156-8 7.953125-8h.085937c4.417969 0 8 3.574219 8 8s-3.582031 8-8 8zm0 0"/><path d="m128.238281 344c-4.421875 0-8.039062-3.574219-8.039062-8s3.535156-8 7.953125-8h.085937c4.417969 0 8 3.574219 8 8s-3.582031 8-8 8zm0 0"/><path d="m320 376c-26.472656 0-48-21.527344-48-48s21.527344-48 48-48c4.425781 0 8 3.574219 8 8s-3.574219 8-8 8c-17.648438 0-32 14.351562-32 32s14.351562 32 32 32c4.425781 0 8 3.574219 8 8s-3.574219 8-8 8zm0 0"/><path d="m504 296h-184c-4.425781 0-8-3.574219-8-8s3.574219-8 8-8h184c4.425781 0 8 3.574219 8 8s-3.574219 8-8 8zm0 0"/><path d="m504 376h-184c-4.425781 0-8-3.574219-8-8s3.574219-8 8-8h184c4.425781 0 8 3.574219 8 8s-3.574219 8-8 8zm0 0"/><path d="m488 376c-4.425781 0-8-3.574219-8-8v-80c0-4.425781 3.574219-8 8-8s8 3.574219 8 8v80c0 4.425781-3.574219 8-8 8zm0 0"/><path d="m456 272c-4.425781 0-8-3.574219-8-8s3.574219-8 8-8c13.230469 0 24-10.769531 24-24s-10.769531-24-24-24c-4.425781 0-8-3.574219-8-8 0-4.414062 3.574219-8 8-8 22.054688 0 40 17.945312 40 40s-17.945312 40-40 40zm0 0"/><path d="m456 272h-152c-4.425781 0-8-3.574219-8-8s3.574219-8 8-8h152c4.425781 0 8 3.574219 8 8s-3.574219 8-8 8zm0 0"/><path d="m456 208h-152c-4.425781 0-8-3.574219-8-8 0-4.414062 3.574219-8 8-8h152c4.425781 0 8 3.585938 8 8 0 4.425781-3.574219 8-8 8zm0 0"/><path d="m320 272c-4.425781 0-8-3.574219-8-8v-64c0-4.414062 3.574219-8 8-8s8 3.585938 8 8v64c0 4.425781-3.574219 8-8 8zm0 0"/><path d="m376 184c-27.839844 0-48-38.222656-48-64 0-26.472656 21.527344-48 48-48 4.425781 0 8 3.585938 8 8s-3.574219 8-8 8c-17.648438 0-32 14.351562-32 32 0 19.832031 16.542969 48 32 48 4.425781 0 8 3.585938 8 8s-3.574219 8-8 8zm0 0"/><path d="m408 184c-4.425781 0-8-3.585938-8-8s3.574219-8 8-8c15.457031 0 32-28.167969 32-48 0-17.648438-14.351562-32-32-32-4.425781 0-8-3.585938-8-8s3.574219-8 8-8c26.472656 0 48 21.527344 48 48 0 25.777344-20.160156 64-48 64zm0 0"/><path d="m384 184c-4.425781 0-8-3.585938-8-8s3.574219-8 8-8c0-4.414062 3.574219-8 8-8s8 3.585938 8 8c0 8.824219-7.175781 16-16 16zm0 0"/><path d="m400 184c-8.824219 0-16-7.175781-16-16 0-4.414062 3.574219-8 8-8s8 3.585938 8 8v.007812c4.425781 0 8 3.578126 8 8 0 4.425782-3.574219 7.992188-8 7.992188zm0 0"/><path d="m384 184h-8c-4.425781 0-8-3.585938-8-8s3.574219-8 8-8h8c4.425781 0 8 3.585938 8 8s-3.574219 8-8 8zm0 0"/><path d="m408 184h-8c-4.425781 0-8-3.585938-8-8s3.574219-8 8-8h8c4.425781 0 8 3.585938 8 8s-3.574219 8-8 8zm0 0"/><path d="m392.007812 88c-.640624 0-1.296874-.070312-1.945312-.238281-4.285156-1.074219-6.894531-5.417969-5.824219-9.707031l8-32c1.066407-4.285157 5.410157-6.917969 9.699219-5.824219 4.285156 1.074219 6.894531 5.417969 5.824219 9.707031l-8 32c-.914063 3.636719-4.167969 6.0625-7.753907 6.0625zm0 0"/><path d="m392 90.214844c-1.390625 0-2.785156-.359375-4.03125-1.085938-1.28125-.753906-2.617188-1.128906-3.96875-1.128906-4.425781 0-8-3.585938-8-8s3.574219-8 8-8c2.710938 0 5.414062.488281 8 1.425781 2.585938-.9375 5.289062-1.425781 8-1.425781 4.425781 0 8 3.585938 8 8s-3.574219 8-8 8c-1.351562 0-2.6875.375-3.96875 1.128906-1.246094.726563-2.640625 1.085938-4.03125 1.085938zm0 0"/><path d="m408 88h-8c-4.425781 0-8-3.585938-8-8s3.574219-8 8-8h8c4.425781 0 8 3.585938 8 8s-3.574219 8-8 8zm0 0"/><path d="m384 88h-8c-4.425781 0-8-3.585938-8-8s3.574219-8 8-8h8c4.425781 0 8 3.585938 8 8s-3.574219 8-8 8zm0 0"/></svg>