<svg height="504pt" viewBox="0 -71 504 503" width="504pt" xmlns="http://www.w3.org/2000/svg"><path d="m382.0625 88.269531c.648438.160157 1.304688.230469 1.945312.230469 3.585938 0 6.839844-2.425781 7.753907-6.0625l8-32c1.078125-4.28125-1.53125-8.625-5.824219-9.707031-4.289062-1.09375-8.632812 1.539062-9.699219 5.832031l-8 32c-1.070312 4.28125 1.539063 8.625 5.824219 9.707031zm0 0" fill="#656d78"/><path d="m400 72.5c22.078125 0 40 17.921875 40 40s-17.921875 56-40 56h-8c-4.398438 0-8-3.601562-8-8 0 4.398438-3.601562 8-8 8h-8c-22.078125 0-40-33.921875-40-56s17.921875-40 40-40h8c2.960938 0 5.679688.871094 8 2.230469 2.320312-1.359375 5.039062-2.230469 8-2.230469zm0 0" fill="#ed5565"/><path d="m488 272.5v80h-176c-22.078125 0-40-17.921875-40-40s17.921875-40 40-40zm0 0" fill="#e6e9ed"/><path d="m448 184.5c17.679688 0 32 14.320312 32 32s-14.320312 32-32 32h-144v-64zm0 0" fill="#e6e9ed"/><path d="m56 88.5-24 24v-40c0-39.769531 32.238281-72 72-72h64v32c22.078125 0 40 17.921875 40 40v40l-24-24s-29.679688 16-64 16-64-16-64-16zm0 0" fill="#965353"/><path d="m168 32.5v-32h-32v48c22.078125 0 40 9.921875 40 32v11.734375c5.070312-2.160156 8-3.734375 8-3.734375l24 24v-40c0-22.078125-17.921875-40-40-40zm0 0" fill="#844747"/><path d="m208 112.5v32c0 34.160156-19.519531 63.839844-48 78.398438-12 6.167968-25.601562 9.601562-40 9.601562s-28-3.441406-40-9.601562c-28.480469-14.550782-48-44.238282-48-78.398438v-32l24-24s29.679688 16 64 16 64-16 64-16zm0 0" fill="#eac6bb"/><path d="m184 88.5s-2.929688 1.574219-8 3.734375v52.265625c0 34.160156-19.519531 63.839844-48 78.398438-7.433594 3.824218-15.527344 6.449218-24 7.992187 5.199219.960937 10.511719 1.609375 16 1.609375 14.398438 0 28-3.441406 40-9.601562 28.480469-14.550782 48-44.238282 48-78.398438v-32zm0 0" fill="#d3b1a9"/><path d="m120 256.5-24 8-16-16v-25.601562c12 6.167968 25.601562 9.601562 40 9.601562s28-3.441406 40-9.601562v25.601562l-16 16zm0 0" fill="#f5f7fa"/><path d="m96 264.5 24-8 24 8 16-16h32c26.558594 0 48 21.441406 48 48v48c0 8.871094-7.121094 16-16 16h-208c-8.878906 0-16-7.128906-16-16v-48c0-26.558594 21.441406-48 48-48h32zm0 0" fill="#5d9cec"/><path d="m192 248.5h-32c26.558594 0 48 21.441406 48 48v48c0 8.871094-7.121094 16-16 16h32c8.878906 0 16-7.128906 16-16v-48c0-26.558594-21.441406-48-48-48zm0 0" fill="#4a89dc"/><path d="m120.238281 288.5h-.078125c-4.417968 0-7.953125 3.574219-7.953125 8s3.617188 8 8.039063 8c4.417968 0 8-3.574219 8-8s-3.589844-8-8.007813-8zm0 0" fill="#f5f7fa"/><path d="m120.238281 320.5h-.078125c-4.417968 0-7.953125 3.574219-7.953125 8s3.617188 8 8.039063 8c4.417968 0 8-3.574219 8-8s-3.589844-8-8.007813-8zm0 0" fill="#f5f7fa"/><path d="m496 344.5h-184c-17.648438 0-32-14.351562-32-32s14.351562-32 32-32h184c4.425781 0 8-3.574219 8-8s-3.574219-8-8-8h-184c-26.472656 0-48 21.527344-48 48s21.527344 48 48 48h184c4.425781 0 8-3.574219 8-8s-3.574219-8-8-8zm0 0" fill="#ed5565"/><path d="m448 240.5h-152c-4.425781 0-8 3.574219-8 8s3.574219 8 8 8h152c22.054688 0 40-17.945312 40-40s-17.945312-40-40-40h-152c-4.425781 0-8 3.574219-8 8s3.574219 8 8 8h152c13.230469 0 24 10.769531 24 24s-10.769531 24-24 24zm0 0" fill="#5d9cec"/></svg>