<?xml version="1.0" encoding="utf-8"?>
<!-- Generator: Adobe Illustrator 23.0.3, SVG Export Plug-In . SVG Version: 6.00 Build 0)  -->
<svg version="1.1" id="Capa_1" xmlns="http://www.w3.org/2000/svg" xmlns:xlink="http://www.w3.org/1999/xlink" x="0px" y="0px"
	 viewBox="0 0 512 512" style="enable-background:new 0 0 512 512;" xml:space="preserve">
<style type="text/css">
	.st0{fill:#FFFFFF;}
</style>
<g>
	<g>
		<path class="st0" d="M482,273.6V226c0-8.3-6.7-15-15-15c-31,0-59.9,2.6-87.2,8c-15.9-15.4-35.3-26.5-56.3-32.6
			c22.9-19.3,37.5-48.1,37.5-80.3C361,47.6,313.9,0,256,0S151,47.6,151,106c0,32.2,14.6,61.1,37.5,80.3c-21,6.1-40.4,17.2-56.3,32.6
			c-27.3-5.3-56.2-8-87.2-8c-8.3,0-15,6.7-15,15v47.6C12.5,279.8,0,296.5,0,316v30c0,19.6,12.5,36.2,30,42.4V436c0,8.3,6.7,15,15,15
			c78.4,0,142.8,18.6,202.7,58.5c5,3.3,11.6,3.4,16.6,0C324.2,469.6,388.6,451,467,451c8.3,0,15-6.7,15-15v-47.6
			c17.5-6.2,30-22.9,30-42.4v-30C512,296.5,499.5,279.8,482,273.6z M181,106c0-41.9,33.6-76,75-76s75,34.1,75,76
			c0,41.4-33.6,75-75,75S181,147.4,181,106z M45,361c-8.3,0-15-6.7-15-15v-30c0-8.3,6.7-15,15-15s15,6.7,15,15v30
			C60,354.3,53.3,361,45,361z M241,470.1c-54.5-31.1-112.9-46.9-181-48.9v-32.8c17.5-6.2,30-22.9,30-42.4v-30
			c0-19.6-12.5-36.2-30-42.4v-32.4c70.5,2,127.1,18.6,181,52.9V470.1z M256,268.1c-27.7-17.5-56.5-30.8-87.3-40.1
			c16.9-11,36.8-17,57.3-17h60c20.5,0,40.4,6,57.3,17C312.5,237.4,283.7,250.7,256,268.1z M452,421.2c-68.1,2-126.5,17.7-181,48.9
			V294.1c53.9-34.3,110.5-50.9,181-52.9v32.4c-17.5,6.2-30,22.9-30,42.4v30c0,19.6,12.5,36.2,30,42.4V421.2z M482,346
			c0,8.3-6.7,15-15,15s-15-6.7-15-15v-30c0-8.3,6.7-15,15-15s15,6.7,15,15V346z"/>
	</g>
</g>
</svg>
