<svg id="Layer_1" data-name="Layer 1" xmlns="http://www.w3.org/2000/svg" viewBox="0 0 500 102"><defs><style>.cls-1{fill:#ffac00;}</style></defs><title>Stars1-5_halfsteps(NoWhite)</title><path class="cls-1" d="M361.08,40.42,350,6.45l-11.05,34-35.91,0,29.07,21L321,95.48l29-21,29.06,21L368,61.43l29-21Zm12.29,47.16L350,70.74l-23.31,16.9,8.88-27.32L312.24,43.47l28.84,0L350,16.13l8.94,27.29,28.84,0-23.31,16.9Z"/><path class="cls-1" d="M261.08,40.53,250,6.55l-11,34-35.91,0,29.07,21L221,95.59l29-21,29.06,21L268,61.54l29-21Zm12.29,47.16L250,70.85,226.71,87.74l8.88-27.31L212.24,43.58l28.84,0L250,16.24l8.94,27.29,28.84,0L264.43,60.4Z"/><path class="cls-1" d="M161.08,40.64,150,6.66l-11,34L103,40.7l29.07,21-11,34,29-21,29.06,21L168,61.65l29-21ZM173.37,87.8,150,71,126.71,87.85l8.88-27.31L112.24,43.69l28.84,0L150,16.35l8.94,27.29,28.84,0L164.43,60.51Z"/><path class="cls-1" d="M461.08,40.31,450,6.34l-11.05,34-35.91,0,29.07,21L421,95.37l29-21,29.06,21L468,61.32l29-21Zm12.29,47.17L450,70.63l-23.31,16.9,8.88-27.31L412.24,43.36l28.84,0L450,16l8.94,27.29,28.84,0-23.31,16.9Z"/><polygon class="cls-1" points="68.61 63.51 67.95 61.51 97 40.49 61.09 40.49 59.87 36.74 50 6.5 50 6.5 50 6.5 40.13 36.74 38.91 40.49 3 40.49 32.05 61.51 31.39 63.51 20.96 95.5 20.96 95.5 20.96 95.5 50 74.49 79.04 95.5 79.04 95.5 79.04 95.5 68.61 63.51"/></svg>