<svg id="Layer_1" data-name="Layer 1" xmlns="http://www.w3.org/2000/svg" viewBox="0 0 500 102"><defs><style>.cls-1{fill:#ffac00;}.cls-2{fill:none;}</style></defs><title>Stars1-5_halfsteps(NoWhite)</title><path class="cls-1" d="M261.09,40.49,250,6.5l-11.09,34H203l29.05,21L221,95.5l29-21,29,21L268,61.51l29.05-21Zm12.24,47.17L250,70.79,226.67,87.66l8.91-27.3L212.25,43.48h28.84L250,16.19l8.91,27.29h28.84L264.42,60.36Z"/><path class="cls-1" d="M461.09,40.49,450,6.5l-11.09,34H403l29.05,21L421,95.5l29-21,29,21L468,61.51l29.05-21Zm12.24,47.17L450,70.79,426.67,87.66l8.91-27.3L412.25,43.48h28.84L450,16.19l8.91,27.29h28.84L464.42,60.36Z"/><polygon class="cls-2" points="150 69.91 173.28 86.82 164.39 59.46 187.67 42.54 158.89 42.54 150 15.18 150 15.18 150 69.91 150 69.91"/><path class="cls-1" d="M197,40.49H161.09L150,6.5h0l-11.09,34H103l29.05,21L121,95.5l29-21h0l29,21L168,61.51ZM173.33,87.66,150,70.79h0V16.19h0l8.91,27.29h28.84L164.42,60.36Z"/><polygon class="cls-1" points="68.61 63.51 67.95 61.51 97 40.49 61.09 40.49 59.87 36.74 50 6.5 50 6.5 50 6.5 40.13 36.74 38.91 40.49 3 40.49 32.05 61.51 31.39 63.51 20.96 95.5 20.96 95.5 20.96 95.5 50 74.49 79.04 95.5 79.04 95.5 79.04 95.5 68.61 63.51"/><path class="cls-1" d="M361.09,40.49,350,6.5l-11.09,34H303l29.05,21L321,95.5l29-21,29,21L368,61.51l29.05-21Zm12.24,47.17L350,70.79,326.67,87.66l8.91-27.3L312.25,43.48h28.84L350,16.19l8.91,27.29h28.84L364.42,60.36Z"/></svg>