<svg id="Layer_1" data-name="Layer 1" xmlns="http://www.w3.org/2000/svg" viewBox="0 0 500 102"><defs><style>.cls-1{fill:#ffac00;}</style></defs><title>Stars1-5_halfsteps(NoWhite)</title><path class="cls-1" d="M361.09,40.49,350,6.5l-11.09,34H303l29.05,21L321,95.5l29-21,29,21L368,61.51l29.05-21Zm12.24,47.17L350,70.79,326.67,87.66l8.91-27.3L312.25,43.48h28.84L350,16.19l8.91,27.29h28.84L364.42,60.36Z"/><path class="cls-1" d="M461.09,40.49,450,6.5l-11.09,34H403l29.05,21L421,95.5l29-21,29,21L468,61.51l29.05-21Zm12.24,47.17L450,70.79,426.67,87.66l8.91-27.3L412.25,43.48h28.84L450,16.19l8.91,27.29h28.84L464.42,60.36Z"/><polygon class="cls-1" points="268.61 63.51 267.95 61.51 297 40.49 261.09 40.49 259.87 36.74 250 6.5 250 6.5 250 6.5 240.13 36.74 238.91 40.49 203 40.49 232.05 61.51 231.4 63.51 220.96 95.5 220.96 95.5 220.96 95.5 250 74.49 279.04 95.5 279.04 95.5 279.04 95.5 268.61 63.51"/><polygon class="cls-1" points="68.61 63.51 67.95 61.51 97 40.49 61.09 40.49 59.87 36.74 50 6.5 50 6.5 50 6.5 40.13 36.74 38.91 40.49 3 40.49 32.05 61.51 31.39 63.51 20.96 95.5 20.96 95.5 20.96 95.5 50 74.49 79.04 95.5 79.04 95.5 79.04 95.5 68.61 63.51"/><polygon class="cls-1" points="168.6 63.51 167.95 61.51 197 40.49 161.09 40.49 159.87 36.74 150 6.5 150 6.5 150 6.5 140.13 36.74 138.91 40.49 103 40.49 132.05 61.51 131.4 63.51 120.96 95.5 120.96 95.5 120.96 95.5 150 74.49 179.04 95.5 179.04 95.5 179.04 95.5 168.6 63.51"/></svg>