<svg enable-background="new 0 0 100 100" height="512" viewBox="0 0 100 100" width="512" xmlns="http://www.w3.org/2000/svg"><path d="m7.466681 34.86161h76.291824v46.981998h-76.291824z" fill="#4388b9"/><path d="m7.4666805 81.843605v-46.9819946l38.1459141 23.4909973z" fill="#4893ca"/><path d="m83.7585068 34.8616104v46.9819946l-38.1459122-23.4909973z" fill="#4893ca"/><path d="m7.4666805 34.8616104 38.1456852 32.6316071 38.1461411-32.6316071z" fill="#509fd7"/><path d="m73.8478546 42.5821037c-3.2680206 2.6151085-6.5277328 5.2399597-9.7579193 7.8992081-6.2213402 5.0860481-12.3587036 10.2695427-18.4777184 15.4751091-6.1204491-5.2035599-12.2580948-10.3873444-18.479435-15.4725304-3.2301903-2.6595306-6.4896145-5.2840996-9.7579231-7.8992043-3.3044243-2.5721169-6.5575428-5.2047081-9.9081116-7.7232246 3.0069137 2.9203568 6.1112781 5.7263527 9.1643372 8.592823 3.0897465 2.8234787 6.1875172 5.6375008 9.3150978 8.4165535 6.2359581 5.5810356 12.5610504 11.057457 18.9033432 16.513813l.7626915.6560745.7629776-.6560745c6.3442993-5.4540634 12.6693954-10.9307709 18.9059258-16.5112343 3.1272888-2.7793388 6.2253494-5.5930748 9.315094-8.4165535 3.051918-2.8676186 6.1565628-5.6736145 9.1623306-8.5954018-3.3519974 2.5170824-6.6051178 5.1496736-9.9106903 7.7206422z" fill="#32729b"/><circle cx="78.086" cy="32.603" fill="#dc594e" r="14.447"/><path d="m74.9931946 39.6555023c-.5117188 0-1.0234375-.1953125-1.4140625-.5859375l-3.9179688-3.9179688c-.78125-.78125-.78125-2.046875 0-2.828125.78125-.7812519 2.046875-.7812519 2.828125 0l2.5039062 2.5039062 8.6904297-8.6904316c.78125-.78125 2.046875-.78125 2.828125 0s.78125 2.046875 0 2.828125l-10.1044921 10.1044942c-.390625.390625-.9023438.5859375-1.4140625.5859375z" fill="#fff"/></svg>